<svg width="210" height="210" viewBox="0 0 210 210" fill="none" xmlns="http://www.w3.org/2000/svg">
<path fill-rule="evenodd" clip-rule="evenodd" d="M209.41 18.8143C209.41 14.0335 207.51 9.44977 204.131 6.0691C200.75 2.68843 196.165 0.789062 191.384 0.789062H18.5893C13.8085 0.789062 9.22324 2.68843 5.84256 6.0691C2.46188 9.44977 0.5625 14.0335 0.5625 18.8143V191.61C0.5625 196.391 2.46188 200.975 5.84256 204.356C9.22324 207.736 13.8085 209.636 18.5893 209.636H191.384C196.165 209.636 200.75 207.736 204.131 204.356C207.51 200.975 209.41 196.391 209.41 191.61V18.8143Z" fill="white"/>
<path d="M127.97 204.437C127.63 202.654 126.408 201.081 124.839 200.147C123.135 199.13 121.083 198.807 119.104 198.947C117.608 199.053 116.136 199.432 114.765 200.037C114.759 200.04 114.753 200.043 114.746 200.046C115.77 196.75 116.935 193.554 118.171 190.302C119.756 186.132 121.341 181.962 122.927 177.793C125.002 172.333 123.212 172.605 118.063 172.767C113.586 172.909 109.104 172.94 104.625 172.862C105.728 184.22 106.832 195.577 107.936 206.935C107.964 206.941 107.993 206.946 108.02 206.951C108.26 207.403 109.023 207.56 109.475 207.69C110.913 208.102 112.437 208.098 113.92 208.086C114.172 208.084 114.423 208.082 114.675 208.08C116.097 208.276 117.522 208.452 118.951 208.589C120.584 208.745 122.243 208.792 123.861 208.958C125.192 209.095 126.382 209.036 127.299 207.875C128.05 206.925 128.239 205.625 127.97 204.437Z" fill="#F26532"/>
<path d="M114.844 200.008C113.672 200.387 112.668 201.256 112.125 202.363L114.844 200.008Z" fill="#F26532"/>
<path d="M116.812 200.828C119.192 202.473 120.452 205.591 119.882 208.426L116.812 200.828Z" fill="#F26532"/>
<path d="M123.375 201.062C124.466 201.939 125.275 203.163 125.655 204.51C126.035 205.859 125.983 207.324 125.511 208.642" fill="#F26532"/>
<path d="M88.6071 172.767C83.4581 172.605 81.6674 172.333 83.7431 177.793C85.3292 181.962 86.9137 186.132 88.499 190.302C89.645 193.318 90.5693 196.404 91.4905 199.497C89.3523 198.637 86.913 198.512 84.8998 199.635C82.7786 200.545 81.3964 202.686 81.2026 204.961C81.1199 205.939 81.3717 206.995 82.0898 207.664C82.611 208.149 83.3145 208.382 83.9995 208.576C86.2867 209.223 88.5963 208.81 90.9176 208.493C92.4573 208.284 93.9924 208.037 95.5214 207.753C96.1098 207.645 97.4619 207.615 98.1708 207.189C98.5113 207.102 98.7268 207.015 98.7345 206.935C99.838 195.577 100.942 184.22 102.046 172.862C97.5662 172.94 93.0843 172.909 88.6071 172.767Z" fill="#F26532"/>
<path d="M91.5 199.188C93.2529 199.713 94.8158 200.852 95.8521 202.36L91.5 199.188Z" fill="#F26532"/>
<path d="M92.2644 201.648C89.9857 202.916 88.5417 205.552 88.6992 208.156L92.2644 201.648Z" fill="#F26532"/>
<path d="M87.1818 201.18C86.3069 201.462 85.6243 202.175 85.1834 202.981C84.7432 203.787 84.5139 204.689 84.2892 205.58C84.0846 206.39 83.8792 207.243 84.0861 208.053" fill="#F26532"/>
<path d="M74.2165 202.506C69.4026 199.158 63.1718 197.922 57.4445 199.179C55.646 199.574 53.8306 200.245 52.5627 201.581C51.2955 202.916 50.7271 205.046 51.6252 206.653C52.7634 208.691 55.5101 209.033 57.8445 209.056C65.215 209.13 72.5926 208.418 79.8126 206.935C80.9168 195.577 82.0203 184.219 83.1245 172.862C78.645 172.94 74.1632 172.908 69.6853 172.768C64.5371 172.605 62.7463 172.332 64.822 177.792C66.4073 181.962 67.9918 186.131 69.5771 190.301C70.3509 192.336 71.1239 194.369 71.8968 196.403C72.3586 197.617 73.1856 201.788 74.2165 202.506Z" fill="#F26532"/>
<path d="M74.625 202.117C75.6296 202.699 76.5084 203.496 77.1864 204.438L74.625 202.117Z" fill="#F26532"/>
<path d="M67.1508 200.711C65.14 200.975 63.235 201.972 61.8721 203.472C60.5084 204.973 59.6976 206.964 59.625 208.99" fill="#F26532"/>
<path d="M58.6372 200.477C57.109 201.084 55.7963 202.219 54.977 203.645C54.1569 205.07 53.8357 206.775 54.0797 208.402" fill="#F26532"/>
<path d="M136.032 202.506C140.847 199.158 147.077 197.922 152.804 199.179C154.603 199.574 156.418 200.245 157.686 201.581C158.954 202.916 159.521 205.046 158.623 206.653C157.486 208.691 154.739 209.033 152.404 209.056C145.034 209.13 137.656 208.418 130.436 206.935C129.333 195.577 128.228 184.219 127.125 172.862C131.604 172.94 136.086 172.908 140.563 172.768C145.712 172.605 147.502 172.332 145.427 177.792C143.841 181.962 142.256 186.131 140.672 190.301C139.899 192.336 139.125 194.369 138.352 196.403C137.891 197.617 137.063 201.788 136.032 202.506Z" fill="#F26532"/>
<path d="M137.326 201.648C136.512 202.079 135.869 202.824 135.562 203.692L137.326 201.648Z" fill="#F26532"/>
<path d="M143.062 201.883C144.676 202.09 146.2 202.932 147.233 204.189C148.266 205.446 148.798 207.104 148.688 208.727" fill="#F26532"/>
<path d="M150.562 201.062C152.081 201.361 153.467 202.284 154.328 203.568C155.191 204.853 155.52 206.484 155.223 208.002" fill="#F26532"/>
<path d="M49.1367 86.3956C50.3522 84.4181 52.2765 82.2165 54.5235 82.798C55.9289 83.1609 56.8169 84.5076 57.5575 85.7563C62.0123 93.2581 66.0624 100.999 69.6863 108.937C69.5218 108.575 59.1806 110.312 58.1165 110.425C54.0888 110.853 50.0502 111.188 46.007 111.43C42.8303 111.62 38.0002 113.028 39.1824 108.473C40.1245 104.846 41.6233 101.265 43.1329 97.8418C44.8719 93.8967 46.8781 90.0689 49.1367 86.3956Z" fill="#2DBDEE"/>
<path d="M156.42 85.8984C155.002 84.0614 152.855 82.0761 150.682 82.8915C149.324 83.4027 148.583 84.8359 147.979 86.1548C144.345 94.0867 141.137 102.214 138.375 110.49C138.501 110.113 148.967 110.745 150.037 110.744C154.088 110.744 158.139 110.649 162.186 110.461C165.364 110.313 170.316 111.202 168.657 106.798C167.337 103.29 165.467 99.8882 163.603 96.6442C161.456 92.9061 159.055 89.3115 156.42 85.8984Z" fill="#2DBDEE"/>
<path d="M38.5035 123.83C40.1274 127.24 43.7745 129.587 47.5513 129.654C51.3273 129.719 55.0539 127.501 56.7967 124.15C61.1094 128.779 69.8167 127.91 73.1294 122.519C77.1046 128.014 86.3894 128.401 90.8079 123.254C96.438 129.4 107.632 128.971 112.775 122.414C113.931 125.684 117.15 128.119 120.611 128.342C124.072 128.566 127.577 126.565 129.143 123.47C131.319 126.253 134.973 127.805 138.487 127.437C141.999 127.068 145.254 124.793 146.805 121.62C148.051 124.458 151.025 126.45 154.124 126.522C157.223 126.593 160.285 124.742 161.662 121.966C164.096 125.4 170.144 125.174 172.316 121.566C173.854 124.026 176.744 125.578 179.645 125.502C180.237 125.487 180.822 125.388 181.395 125.244C181.272 123.209 181.144 121.239 181.008 119.382C180.715 115.355 180.206 110.929 177.247 108.181C174.702 105.819 170.992 105.325 167.536 104.991C142.61 102.587 117.627 103.676 92.7446 103.788C81.3169 103.839 69.8607 103.882 58.4778 105.006C49.6964 105.873 38.6371 103.055 31.6341 110.156C27.597 114.249 26.8264 120.276 26.8125 126.175C30.7399 127.602 35.5329 126.83 38.5035 123.83Z" fill="#F26532"/>
<path d="M172.599 142.117C170.427 145.725 164.379 145.952 161.945 142.516C160.568 145.293 157.505 147.145 154.407 147.073C151.308 147.001 148.334 145.01 147.088 142.172C145.536 145.345 142.282 147.621 138.77 147.988C135.256 148.356 131.601 146.804 129.426 144.021C127.86 147.116 124.355 149.118 120.893 148.894C117.432 148.671 114.214 146.236 113.058 142.965C107.914 149.523 96.7207 149.951 91.0906 143.806C86.6721 148.952 77.3873 148.566 73.412 143.07C70.0993 148.462 61.3921 149.331 57.0794 144.702C55.3366 148.053 51.61 150.271 47.834 150.205C44.0572 150.139 40.4101 147.792 38.7862 144.382C35.9793 147.217 31.5438 148.066 27.75 146.946C27.8612 150.197 27.9716 153.446 28.0851 156.695C28.2133 160.402 28.3315 164.39 29.2009 168.115C32.6295 168.662 36.3306 167.708 38.7862 165.228C40.4101 168.638 44.0572 170.985 47.834 171.05C51.61 171.117 55.3366 168.898 57.0794 165.548C61.3921 170.177 70.0993 169.308 73.412 163.917C77.3873 169.412 86.6721 169.798 91.0906 164.652C96.7207 170.797 107.914 170.369 113.058 163.811C114.214 167.082 117.432 169.517 120.893 169.74C124.355 169.964 127.86 167.962 129.426 164.868C131.601 167.651 135.256 169.203 138.77 168.834C142.282 168.467 145.536 166.191 147.088 163.018C148.334 165.856 151.308 167.847 154.407 167.919C157.505 167.991 160.568 166.14 161.945 163.362C164.379 166.797 170.427 166.572 172.599 162.963C174.137 165.423 177.027 166.976 179.927 166.9C180.724 166.879 181.51 166.726 182.265 166.476C183.014 163.107 183.144 159.51 183.029 156.015C182.923 152.767 182.797 149.19 182.652 145.485C181.781 145.821 180.862 146.029 179.927 146.054C177.027 146.13 174.137 144.577 172.599 142.117Z" fill="#F26532"/>
<path d="M180.996 172.105C180.794 171.238 180.568 166.875 181.735 166.489C180.98 166.739 180.195 166.892 179.398 166.913C176.498 166.989 173.607 165.437 172.069 162.977C169.898 166.585 163.849 166.81 161.415 163.376C160.038 166.153 156.976 168.004 153.877 167.932C150.778 167.861 147.805 165.869 146.558 163.031C145.007 166.204 141.752 168.48 138.24 168.847C134.727 169.216 131.072 167.664 128.897 164.881C127.331 167.976 123.826 169.977 120.364 169.753C116.903 169.53 113.684 167.095 112.528 163.824C107.385 170.382 96.1912 170.81 90.5612 164.665C86.1427 169.811 76.8578 169.425 72.8826 163.93C69.5699 169.321 60.8626 170.19 56.55 165.561C54.8071 168.912 51.0805 171.13 47.3045 171.064C43.5277 170.998 39.8806 168.651 38.2567 165.241C35.6707 167.854 32.2359 168.363 28.7464 168.201C28.8962 172.295 28.3256 176.335 29.1256 180.438C29.4754 182.233 30.0607 184.01 30.8977 185.638C33.6282 185.559 36.3278 184.558 38.2567 182.609C39.8806 186.019 43.5277 188.367 47.3045 188.432C51.0805 188.498 54.8071 186.28 56.55 182.93C60.8626 187.559 69.5699 186.69 72.8826 181.298C76.8578 186.793 86.1427 187.179 90.5612 182.033C96.1912 188.178 107.385 187.75 112.528 181.192C113.684 184.463 116.903 186.898 120.364 187.121C123.826 187.345 127.331 185.343 128.897 182.249C131.072 185.032 134.727 186.583 138.24 186.216C141.752 185.848 145.007 183.573 146.558 180.399C147.805 183.237 150.778 185.229 153.877 185.301C156.976 185.373 160.038 183.521 161.415 180.744C163.849 184.179 169.898 183.953 172.069 180.345C173.607 182.805 176.498 184.357 179.398 184.281C179.695 184.274 179.989 184.238 180.282 184.197C181.291 182.691 181.857 180.835 181.962 179.01C182.098 176.63 181.531 174.397 180.996 172.105Z" fill="#F47E57"/>
<path d="M179.645 125.546C176.745 125.622 173.854 124.07 172.316 121.609C170.145 125.218 164.096 125.444 161.662 122.009C160.285 124.786 157.223 126.637 154.124 126.565C151.025 126.494 148.051 124.502 146.805 121.664C145.254 124.837 141.999 127.112 138.487 127.48C134.974 127.849 131.319 126.297 129.144 123.514C127.578 126.609 124.073 128.61 120.611 128.386C117.15 128.163 113.931 125.727 112.775 122.457C107.632 129.015 96.4382 129.443 90.8081 123.298C86.3896 128.445 77.1048 128.058 73.1296 122.563C69.8169 127.954 61.1096 128.823 56.7969 124.194C55.0541 127.545 51.3275 129.763 47.5515 129.697C43.7747 129.631 40.1276 127.284 38.5037 123.874C35.5331 126.874 30.7401 127.646 26.8127 126.219C26.8096 127.504 26.8413 128.783 26.8845 130.034C27.0783 135.688 27.2729 141.343 27.4675 146.996C31.2613 148.116 35.6968 147.266 38.5037 144.432C40.1276 147.841 43.7747 150.188 47.5515 150.255C51.3275 150.32 55.0541 148.103 56.7969 144.751C61.1096 149.38 69.8169 148.511 73.1296 143.12C77.1048 148.615 86.3896 149.001 90.8081 143.855C96.4382 150.001 107.632 149.572 112.775 143.015C113.931 146.286 117.15 148.72 120.611 148.943C124.073 149.167 127.578 147.166 129.144 144.071C131.319 146.854 134.974 148.405 138.487 148.038C141.999 147.67 145.254 145.394 146.805 142.221C148.051 145.059 151.025 147.051 154.124 147.123C157.223 147.194 160.285 145.343 161.662 142.566C164.096 146.001 170.145 145.774 172.316 142.167C173.854 144.627 176.745 146.179 179.645 146.103C180.579 146.079 181.498 145.87 182.369 145.535C182.107 138.835 181.782 131.712 181.395 125.287C180.822 125.432 180.237 125.531 179.645 125.546Z" fill="#F47E57"/>
<path d="M44.611 121.594C41.2335 126.602 38.9347 132.803 40.3748 138.669C41.8412 144.641 47.3245 149.334 53.4248 150.109C59.5252 150.883 65.8872 147.834 69.3196 142.733C72.752 137.631 73.2192 130.74 70.7459 125.111C68.4115 119.798 63.7143 115.9 58.2757 114.056C52.6411 112.146 47.5801 117.191 44.611 121.594Z" fill="#FDFCFD"/>
<path d="M48.7889 124.692C47.4253 126.327 46.8152 128.474 46.5936 130.591C46.3581 132.829 46.5334 135.163 47.5071 137.191C49.4785 141.294 54.8383 143.334 59.0869 141.701C63.3354 140.067 65.9439 135.085 64.9964 130.634C63.6605 124.357 53.6916 118.811 48.7889 124.692Z" fill="black"/>
<path d="M58.3394 125.679C57.9912 126.548 57.741 127.471 57.7502 128.407C57.7603 129.343 58.0483 130.298 58.6715 130.997C59.7726 132.233 61.788 132.406 63.2228 131.581C64.6575 130.756 65.5023 129.107 65.6135 127.455C65.6822 126.401 65.4691 125.301 64.8544 124.442C62.9988 121.848 59.3672 123.113 58.3394 125.679Z" fill="#FDFCFD"/>
<path d="M139.298 120.07C135.921 125.078 133.622 131.28 135.062 137.146C136.529 143.118 142.012 147.81 148.112 148.585C154.212 149.36 160.574 146.311 164.006 141.209C167.439 136.107 167.907 129.217 165.432 123.587C163.099 118.274 158.402 114.377 152.963 112.533C147.329 110.623 142.267 115.667 139.298 120.07Z" fill="#FDFCFD"/>
<path d="M143.476 123.169C142.112 124.804 141.503 126.95 141.281 129.068C141.046 131.305 141.221 133.639 142.195 135.667C144.166 139.77 149.525 141.81 153.774 140.177C158.023 138.544 160.632 133.562 159.684 129.11C158.348 122.834 148.379 117.287 143.476 123.169Z" fill="black"/>
<path d="M153.027 124.272C152.679 125.142 152.428 126.064 152.438 127.001C152.447 127.937 152.736 128.891 153.358 129.591C154.46 130.827 156.476 131 157.91 130.175C159.345 129.349 160.191 127.701 160.3 126.049C160.37 124.994 160.156 123.895 159.541 123.035C157.686 120.441 154.055 121.707 153.027 124.272Z" fill="#FDFCFD"/>
<path d="M133.538 168.256C132.74 163.364 132.384 157.124 129.621 152.87C128.889 151.742 127.764 150.796 126.435 150.597C125.327 150.43 124.215 150.788 123.145 151.12C111.154 154.841 98.3276 155.839 85.9061 154.018C83.5702 153.675 80.8259 153.362 79.1873 155.062C77.7093 156.596 77.9603 158.971 77.7618 160.907C77.4861 163.592 77.541 166.35 77.4444 169.048C77.4205 169.72 77.4321 170.486 77.9278 170.94C79.683 172.557 82.1502 168.635 82.9625 167.542C83.7231 166.518 84.4212 165.447 85.049 164.337C85.3061 163.882 86.7524 161.757 86.5555 161.289C87.7223 164.066 91.1879 167.223 94.3817 167.09C96.6327 166.996 98.6751 165.113 98.9515 162.876C98.8635 164.917 100.006 166.962 101.789 167.956C103.573 168.95 105.914 168.846 107.602 167.698C109.291 166.55 110.249 164.412 109.981 162.388C109.471 164.463 110.818 166.723 112.771 167.591C114.722 168.46 117.078 168.085 118.901 166.97C120.93 165.728 122.621 163.283 122.355 160.826C123.997 164.408 126.421 167.63 129.408 170.199C129.933 170.65 130.493 171.091 131.153 171.298C131.814 171.505 132.602 171.434 133.102 170.954C133.787 170.296 133.691 169.194 133.538 168.256Z" fill="#FDFCFD"/>
<path d="M77.9192 149.687C76.3146 153.39 78.9385 157.826 82.54 159.646C86.1423 161.466 90.3747 161.36 94.4071 161.214C101.764 160.947 109.12 160.68 116.476 160.412C120.337 160.272 124.592 159.969 127.327 157.24C130.438 154.136 130.365 153.522 129.938 149.148" fill="#F26532"/>
<path d="M91.486 121.594C88.1085 126.602 85.8097 132.803 87.2498 138.669C88.717 144.641 94.1995 149.334 100.3 150.109C106.4 150.883 112.762 147.834 116.195 142.733C119.627 137.631 120.094 130.74 117.621 125.111C115.287 119.798 110.589 115.9 105.151 114.056C99.5161 112.146 94.4551 117.191 91.486 121.594Z" fill="#FDFCFD"/>
<path d="M96.6018 124.692C95.2381 126.327 94.628 128.474 94.4057 130.591C94.1709 132.829 94.3462 135.163 95.3199 137.191C97.2913 141.294 102.651 143.334 106.899 141.701C111.148 140.067 113.757 135.085 112.809 130.634C111.473 124.357 101.505 118.811 96.6018 124.692Z" fill="black"/>
<path d="M105.214 125.679C104.866 126.548 104.616 127.471 104.625 128.407C104.635 129.343 104.923 130.298 105.546 130.997C106.648 132.233 108.663 132.406 110.098 131.581C111.532 130.756 112.378 129.107 112.488 127.455C112.558 126.401 112.344 125.301 111.729 124.442C109.874 121.848 106.242 123.113 105.214 125.679Z" fill="#FDFCFD"/>
<path d="M56.8556 165.206C56.5715 167.393 57.7089 169.809 59.7599 170.616C61.7313 171.392 63.9838 170.594 65.7529 169.431C68.9714 167.318 71.1528 163.382 68.5969 159.845C66.5266 156.982 62.7004 158.31 60.2927 160.003C58.5575 161.222 57.1344 163.057 56.8556 165.206Z" fill="#EE3536"/>
<path d="M135.576 161.915C135.461 163.834 136.096 165.883 137.599 167.082C138.891 168.113 140.668 168.393 142.298 168.122C144.545 167.749 146.617 166.345 147.713 164.348C148.809 162.353 148.868 159.8 147.783 157.8C146.441 155.324 143.036 153.562 140.385 154.861C137.719 156.167 135.755 158.93 135.576 161.915Z" fill="#EE3536"/>
<path fill-rule="evenodd" clip-rule="evenodd" d="M115.251 199.451C113.929 199.878 112.797 200.858 112.185 202.106C112.042 202.398 112.163 202.751 112.454 202.894C112.746 203.038 113.099 202.916 113.242 202.625C113.716 201.66 114.591 200.902 115.614 200.57C115.923 200.471 116.093 200.139 115.992 199.829C115.893 199.52 115.561 199.35 115.251 199.451Z" fill="black"/>
<path fill-rule="evenodd" clip-rule="evenodd" d="M117.067 201.315C119.257 202.83 120.418 205.702 119.894 208.312C119.83 208.631 120.036 208.941 120.355 209.005C120.673 209.069 120.983 208.863 121.047 208.544C121.663 205.485 120.303 202.121 117.735 200.347C117.468 200.162 117.101 200.228 116.917 200.496C116.732 200.764 116.799 201.13 117.067 201.315Z" fill="black"/>
<path fill-rule="evenodd" clip-rule="evenodd" d="M122.658 201.524C123.654 202.324 124.393 203.442 124.739 204.673C125.087 205.904 125.039 207.243 124.607 208.446C124.498 208.752 124.658 209.09 124.963 209.199C125.269 209.309 125.607 209.149 125.716 208.843C126.23 207.411 126.285 205.819 125.873 204.353C125.46 202.889 124.58 201.558 123.394 200.606C123.141 200.402 122.77 200.443 122.567 200.697C122.363 200.95 122.404 201.321 122.658 201.524Z" fill="black"/>
<path fill-rule="evenodd" clip-rule="evenodd" d="M90.9821 199.754C92.6075 200.242 94.0569 201.298 95.0182 202.697C95.202 202.964 95.5688 203.033 95.8368 202.848C96.1039 202.664 96.1727 202.298 95.9881 202.03C94.8769 200.412 93.2005 199.19 91.3203 198.627C91.0091 198.533 90.6809 198.71 90.5875 199.021C90.494 199.332 90.6709 199.66 90.9821 199.754Z" fill="black"/>
<path fill-rule="evenodd" clip-rule="evenodd" d="M92.5666 201.137C90.0955 202.512 88.5295 205.37 88.7002 208.194C88.7195 208.518 88.999 208.765 89.3233 208.746C89.6477 208.726 89.8948 208.447 89.8755 208.123C89.7311 205.739 91.0531 203.326 93.1396 202.165C93.423 202.008 93.5257 201.649 93.3674 201.365C93.2098 201.081 92.8507 200.979 92.5666 201.137Z" fill="black"/>
<path fill-rule="evenodd" clip-rule="evenodd" d="M87.5869 200.623C86.5699 200.951 85.7653 201.765 85.2526 202.701V202.702C84.7885 203.552 84.5414 204.5 84.3043 205.439C84.0758 206.344 83.8704 207.297 84.1012 208.202C84.1823 208.516 84.5028 208.707 84.8178 208.626C85.1321 208.545 85.3229 208.225 85.2425 207.91C85.0595 207.194 85.2649 206.443 85.4456 205.728V205.727C85.658 204.884 85.8696 204.029 86.2858 203.267C86.6557 202.59 87.2155 201.979 87.9483 201.742C88.258 201.643 88.4278 201.311 88.3275 201.002C88.2278 200.692 87.8958 200.522 87.5869 200.623Z" fill="black"/>
<path fill-rule="evenodd" clip-rule="evenodd" d="M73.9814 202.63C74.9142 203.17 75.7304 203.909 76.3598 204.784C76.5497 205.048 76.9181 205.108 77.1814 204.919C77.4455 204.729 77.5049 204.36 77.3158 204.097C76.5891 203.088 75.6478 202.234 74.5714 201.61C74.2903 201.448 73.9297 201.544 73.7667 201.825C73.6038 202.106 73.7003 202.467 73.9814 202.63Z" fill="black"/>
<path fill-rule="evenodd" clip-rule="evenodd" d="M67.6632 200.13C65.5157 200.412 63.481 201.477 62.0254 203.079C60.569 204.681 59.7034 206.809 59.6254 208.972C59.6138 209.297 59.8679 209.57 60.1929 209.582C60.5173 209.593 60.7906 209.339 60.8022 209.014C60.8694 207.126 61.6254 205.27 62.8964 203.871C64.1667 202.473 65.9419 201.544 67.8161 201.298C68.1381 201.255 68.3659 200.959 68.3234 200.637C68.2809 200.315 67.9852 200.088 67.6632 200.13Z" fill="black"/>
<path fill-rule="evenodd" clip-rule="evenodd" d="M59.0087 199.933C57.3578 200.587 55.94 201.814 55.0551 203.354C54.1694 204.894 53.8227 206.735 54.086 208.492C54.1346 208.814 54.4342 209.035 54.7555 208.987C55.0767 208.939 55.2983 208.639 55.2504 208.318C55.0257 206.821 55.3215 205.252 56.0759 203.941C56.8296 202.63 58.0373 201.585 59.4427 201.026C59.7446 200.906 59.8929 200.564 59.7724 200.262C59.6527 199.96 59.3107 199.812 59.0087 199.933Z" fill="black"/>
<path fill-rule="evenodd" clip-rule="evenodd" d="M136.703 201.131C135.758 201.629 135.014 202.493 134.659 203.499C134.551 203.806 134.712 204.142 135.018 204.251C135.324 204.359 135.661 204.197 135.769 203.891C136.027 203.16 136.568 202.534 137.252 202.172C137.54 202.02 137.65 201.664 137.498 201.376C137.347 201.089 136.99 200.979 136.703 201.131Z" fill="black"/>
<path fill-rule="evenodd" clip-rule="evenodd" d="M143.576 202.469C145.043 202.658 146.428 203.423 147.367 204.565C148.306 205.708 148.789 207.215 148.689 208.691C148.667 209.014 148.913 209.295 149.237 209.318C149.561 209.34 149.842 209.094 149.864 208.77C149.984 206.999 149.404 205.189 148.277 203.818C147.149 202.447 145.487 201.527 143.726 201.302C143.404 201.26 143.108 201.489 143.067 201.811C143.026 202.133 143.254 202.428 143.576 202.469Z" fill="black"/>
<path fill-rule="evenodd" clip-rule="evenodd" d="M150.1 201.643C151.467 201.912 152.715 202.743 153.491 203.899C154.268 205.056 154.564 206.525 154.296 207.892C154.234 208.21 154.442 208.52 154.761 208.583C155.079 208.645 155.389 208.437 155.452 208.118C155.778 206.449 155.417 204.656 154.469 203.243C153.521 201.831 151.997 200.817 150.327 200.488C150.008 200.425 149.699 200.633 149.636 200.952C149.574 201.271 149.781 201.58 150.1 201.643Z" fill="black"/>
<path fill-rule="evenodd" clip-rule="evenodd" d="M77.0487 149.31C75.2587 153.44 78.0849 158.436 82.1034 160.466C85.8439 162.357 90.2346 162.285 94.423 162.133C101.78 161.866 109.136 161.599 116.491 161.332C120.583 161.183 125.067 160.78 127.965 157.889C129.682 156.176 130.483 155.123 130.833 153.922C131.175 152.749 131.074 151.405 130.844 149.049C130.795 148.539 130.34 148.165 129.829 148.215C129.319 148.265 128.945 148.72 128.996 149.23C129.192 151.248 129.342 152.398 129.05 153.401C128.765 154.378 128.047 155.183 126.653 156.574C124.081 159.14 120.056 159.343 116.423 159.476C109.068 159.743 101.712 160.01 94.355 160.277C90.4786 160.418 86.4045 160.558 82.9405 158.808C79.7552 157.199 77.3344 153.323 78.7536 150.048C78.9575 149.578 78.7405 149.03 78.2703 148.826C77.8 148.622 77.2525 148.839 77.0487 149.31Z" fill="black"/>
</svg>
