<svg width="234" height="206" viewBox="0 0 234 206" fill="none" xmlns="http://www.w3.org/2000/svg">
<path d="M63.9375 1.71875C64.0133 1.89777 64.0909 2.07796 64.1697 2.25873C64.1732 2.25814 64.1761 2.25698 64.1802 2.2564C64.1038 2.07563 64.0303 1.89369 63.9375 1.71875Z" fill="#FDFCFD"/>
<path d="M63.9375 2.42221C63.9449 2.4393 63.9525 2.45639 63.9602 2.47357C63.9539 2.45606 63.9463 2.43905 63.939 2.42188C63.9384 2.42196 63.938 2.42212 63.9375 2.42221Z" fill="#FDFCFD"/>
<path d="M25.4062 73.5971C24.307 70.8972 23.8924 66.9122 26.6253 65.897C29.5126 64.8241 31.7214 68.4319 33.194 71.1379C37.044 78.2149 44.37 82.8785 52.0723 85.2418C59.7739 87.6043 67.9306 87.9387 75.9801 88.2566C76.4142 93.0551 79.3862 111.24 74.3808 114.082C70.0217 116.556 58.1034 109.074 54.3628 106.846C41.5261 99.2017 31.0571 87.4708 25.4062 73.5971Z" fill="#6ACCEC"/>
<path d="M33.0772 72.3055C33.9942 70.5188 34.3316 68.499 34.6195 66.5121C35.5402 60.1555 36.071 53.6446 34.8669 47.336C34.0107 46.9784 32.9858 47.4132 32.3889 48.124C31.7921 48.8348 31.5312 49.7615 31.3093 50.662C30.465 54.0869 29.9552 57.5943 29.7887 61.1182C28.3395 61.5703 26.9756 60.2875 25.9949 59.1276C22.9666 55.546 19.9376 51.9643 16.9093 48.3827C16.0643 47.3825 15.1983 46.3651 14.0812 45.6835C12.9633 45.002 11.5297 44.7021 10.3323 45.2307C10.3084 47.9021 11.6249 50.4153 13.2474 52.5372C14.8707 54.6598 16.8261 56.5147 18.3976 58.674C18.9277 59.402 19.4247 60.1983 19.526 61.092C19.6279 61.9857 19.2223 62.9949 18.3871 63.3301C17.3336 63.7537 16.2112 62.9889 15.3108 62.2976C12.3462 60.0206 9.13496 58.0644 5.75127 56.4742C4.81106 56.0333 3.82212 55.6119 2.78444 55.6209C1.74602 55.6292 0.643129 56.1788 0.298236 57.158C-0.020414 58.0622 0.385209 59.0924 1.048 59.7852C1.71079 60.4779 2.59402 60.9083 3.44575 61.3484C8.84856 64.1383 13.7558 67.8834 17.8727 72.3573C19.463 74.0862 21.0082 75.9779 23.1443 76.9549C26.9644 78.7033 31.3415 75.6892 33.0772 72.3055Z" fill="#6ACCEC"/>
<path d="M24.4164 62.2025C23.5414 63.2814 22.8291 64.4915 22.311 65.7803C21.6872 67.3331 21.3993 69.254 22.4407 70.5646C22.9775 71.2402 23.7948 71.642 24.6285 71.8632C25.4938 72.0934 26.5517 72.0926 27.1267 71.4073C27.6381 70.7993 27.5616 69.9003 27.3869 69.1251C27.0345 67.564 26.4047 65.9093 27.0023 64.4255C27.183 63.9787 27.4657 63.5806 27.6808 63.1494C28.1022 62.3052 28.0887 61.0553 26.9438 60.9144C25.9061 60.7862 25.0259 61.4512 24.4164 62.2025Z" fill="#2DBDEE"/>
<path d="M34.1223 51.5384C33.9386 52.2994 33.8914 53.0934 33.9828 53.8709C34.0263 54.2353 34.105 54.6087 34.321 54.9048C34.5376 55.201 34.9215 55.4004 35.2754 55.303C35.6637 55.1973 35.8834 54.7961 36.0408 54.4258C36.3655 53.6603 36.6159 52.8355 36.5364 52.0078C36.4779 51.399 36.1158 50.3845 35.4598 50.1626C34.6553 49.8904 34.2752 50.9041 34.1223 51.5384Z" fill="#2DBDEE"/>
<path d="M15.8988 51.3079C16.3494 51.736 17.0017 52.0952 17.5708 51.8455C17.8714 51.7135 18.0866 51.4271 18.1864 51.1145C18.2853 50.8011 18.2808 50.4629 18.2336 50.1383C18.0371 48.791 17.0745 47.5831 15.8051 47.0905C15.5637 46.9968 15.3035 46.9263 15.0463 46.963C13.1097 47.2375 15.23 50.6729 15.8988 51.3079Z" fill="#2DBDEE"/>
<path d="M204.88 62.9984C205.403 61.2634 205.888 59.428 207.129 58.1092C208.371 56.7911 210.664 56.2543 211.977 57.5019C213.008 58.4811 213.044 60.0893 212.954 61.5086C212.678 65.9143 211.893 70.2742 210.901 74.5748C208.128 86.5816 203.711 98.2075 197.813 109.027C195.185 113.848 192.213 118.571 188.18 122.298C184.147 126.024 178.922 128.698 173.431 128.758C171.329 128.782 174.057 99.7378 176.985 97.1669C180.429 94.14 184.896 92.2199 188.372 89.0424C191.968 85.7554 195.155 82.0216 197.838 77.9556C200.884 73.34 203.281 68.2933 204.88 62.9984Z" fill="#6ACCEC"/>
<path d="M200.827 53.4168C200.229 51.8543 199.621 50.1785 199.985 48.5455C200.348 46.9125 202.129 45.4902 203.668 46.1463C204.675 46.5752 205.192 47.6728 205.621 48.6798C206.059 49.7077 206.498 50.7356 206.936 51.7635C207.215 52.4188 207.551 53.1326 208.207 53.4108C208.904 53.7069 209.74 53.3763 210.256 52.8215C210.771 52.2666 211.038 51.5304 211.29 50.8166C212.799 46.5654 214.307 42.3142 215.816 38.0638C216.085 37.3028 216.368 36.52 216.908 35.9194C217.447 35.3189 218.314 34.938 219.077 35.2027C219.792 35.4508 220.236 36.2036 220.339 36.9541C220.442 37.7046 220.268 38.4619 220.096 39.1997C219.35 42.3802 218.606 45.5615 217.861 48.742C217.599 49.8629 217.554 51.4067 218.646 51.7703C219.595 52.0867 220.461 51.157 221.056 50.3525C223.062 47.6458 225.358 45.1558 227.895 42.9403C228.917 42.0466 230.229 41.1423 231.527 41.5427C232.797 41.9356 233.405 43.4831 233.194 44.7952C232.983 46.108 232.169 47.2327 231.379 48.3019C227.769 53.1896 224.158 58.0766 220.548 62.9651C219.407 64.5096 218.22 66.0961 216.569 67.0798C213.799 68.73 207.754 68.6086 205.543 65.8577C204.467 64.5194 204.008 61.7212 203.385 60.0935C202.533 57.8681 201.681 55.6421 200.827 53.4168Z" fill="#6ACCEC"/>
<path d="M213.043 54.4038C213.072 53.7784 213.203 53.0684 213.737 52.7408C214.134 52.4971 214.659 52.5466 215.071 52.761C215.484 52.9762 215.803 53.3316 216.091 53.6982C217.251 55.179 218.039 57.0804 217.703 58.9309C217.58 59.6117 217.253 60.3217 216.622 60.6073C215.36 61.1794 214.124 59.8343 213.566 58.8424C212.891 57.6435 212.979 55.7353 213.043 54.4038Z" fill="#2DBDEE"/>
<path d="M227.176 46.8699C227.078 47.172 227.003 47.5079 227.128 47.8003C227.27 48.131 227.642 48.3161 228.001 48.3341C228.361 48.3521 228.712 48.2322 229.047 48.1025C229.79 47.8146 230.531 47.4562 231.07 46.8706C231.611 46.2843 231.916 45.428 231.669 44.6715C231.361 43.7291 230.126 43.2567 229.299 43.7576C228.285 44.3709 227.529 45.7842 227.176 46.8699Z" fill="#2DBDEE"/>
<path d="M216.79 40.7287C216.742 41.0916 216.717 41.4703 216.836 41.8159C216.956 42.1623 217.254 42.4697 217.619 42.4989C217.948 42.5252 218.254 42.328 218.499 42.1053C219.183 41.4815 219.602 40.5773 219.64 39.652C219.671 38.8753 219.344 36.9656 218.203 37.5812C217.28 38.0798 216.915 39.7975 216.79 40.7287Z" fill="#2DBDEE"/>
<path d="M203.667 53.0269C203.795 53.2361 203.935 53.4453 204.13 53.5945C204.324 53.743 204.587 53.8247 204.821 53.7505C205.204 53.6283 205.353 53.1716 205.428 52.7758C205.588 51.9405 205.669 51.0723 205.477 50.2446C205.283 49.4161 204.778 48.6288 204.012 48.2592C203.805 48.1602 203.572 48.0913 203.348 48.1422C202.615 48.3079 202.658 49.8839 202.717 50.432C202.815 51.3542 203.187 52.2412 203.667 53.0269Z" fill="#2DBDEE"/>
<path d="M107.267 28.2475C105.52 24.8638 103.655 21.5423 101.686 18.2816C92.9735 16.6688 83.7836 17.7013 75.6434 21.2027C75.6179 21.3084 75.5872 21.4134 75.561 21.5191C74.5458 25.7433 73.5261 30.2284 73.3199 34.5815C73.137 38.4353 76.3789 38.8244 79.6427 39.5742C87.6786 41.4201 96.2964 40.7648 103.919 37.5986C105.845 36.7986 107.895 35.6327 108.471 33.6278C108.991 31.8164 108.131 29.9225 107.267 28.2475Z" fill="#CDDD44"/>
<path d="M96.6984 10.1012C95.504 8.3535 94.2804 6.62526 93.0208 4.92403C91.5355 2.91615 89.6723 0.75833 87.1764 0.666858C85.5066 0.606127 83.9224 1.54183 82.8247 2.80144C81.7271 4.06105 81.0418 5.61982 80.4112 7.16734C79.5273 9.33942 78.7288 11.5445 78 13.7736C83.8699 11.2198 90.2984 9.96325 96.6984 10.1012Z" fill="#CDDD44"/>
<path d="M102.167 18.1933C100.499 15.4304 98.7544 12.7132 96.9325 10.0493C90.5325 9.91135 84.104 11.1679 78.2341 13.7217C77.4379 16.1584 76.7331 18.6244 76.125 21.1144C84.2652 17.613 93.4551 16.5805 102.167 18.1933Z" fill="#9BA536"/>
<path d="M175.56 31.681C174.967 28.0184 174.246 24.3843 173.33 20.7997C168.398 18.2879 162.544 17.5861 157.16 18.8727C155.736 20.9384 154.373 23.046 153.077 25.1948C153.051 25.2383 153.026 25.2825 153 25.3267C160.931 25.0606 168.936 27.3114 175.56 31.681Z" fill="#9BA536"/>
<path d="M173.857 20.7825C173.329 18.7199 172.753 16.6693 172.073 14.6465C171.322 12.4129 170.089 9.88394 167.764 9.50081C165.429 9.11618 163.449 11.1293 161.993 12.9932C160.499 14.9036 159.065 16.8598 157.688 18.8556C163.071 17.569 168.925 18.2708 173.857 20.7825Z" fill="#CDDD44"/>
<path d="M177.502 46.3571C176.927 41.4514 176.337 36.5284 175.547 31.6489C168.922 27.2792 160.918 25.0284 152.987 25.2946C150.737 29.0337 148.638 32.8958 146.836 36.871C145.228 40.4159 148.836 42.9801 151.467 45.1949C157.19 50.0114 164.499 52.9715 171.987 53.2842C173.5 53.3471 175.159 53.2572 176.294 52.2547C177.862 50.8699 177.746 48.4347 177.502 46.3571Z" fill="#CDDD44"/>
<path d="M195.36 190.354C193.035 188.467 190.317 187.057 187.443 186.222C186.818 186.04 179.483 184.915 179.544 185.412C177.901 172.022 178.546 159.194 179.265 145.899C179.768 136.604 179.785 127.256 180.046 117.951C180.565 99.3209 181.086 80.6914 181.606 62.0619C181.75 56.893 181.862 51.5404 179.856 46.7749C176.007 37.6323 165.528 33.2214 155.733 31.6484C135.24 28.3576 114.719 24.3509 93.8526 24.71C86.6368 24.8337 78.7478 25.642 73.6269 30.7277C66.2199 38.0836 67.1474 50.9999 67.5058 60.4844C67.9976 73.5236 68.6147 86.5591 69.3577 99.5871C70.1472 113.455 71.0792 127.316 72.1521 141.166C72.9071 150.92 73.1163 160.695 74.0925 170.433C74.6068 175.567 74.6053 180.561 74.5671 185.729C68.56 186.553 62.93 189.855 59.2786 194.697C58.0078 196.382 56.9333 198.523 57.5579 200.539C58.4674 203.467 62.1855 204.254 65.2475 204.423C76.2001 205.031 87.2351 204.147 97.9515 201.805C98.7628 201.627 99.6122 201.421 100.223 200.858C101.035 200.111 101.231 198.925 101.38 197.833C101.893 194.095 101.215 190.158 101.4 186.338C101.619 181.826 102.206 177.333 103.158 172.918C103.584 170.936 104.14 168.897 105.117 167.146C104.434 160.404 110.078 148.592 112.39 145.645C117.541 139.08 126.302 134.975 134.414 136.922C139.953 138.252 144.63 142.211 147.65 147.04C150.67 151.869 152.165 157.516 152.878 163.167C153.073 164.719 153.192 166.304 152.923 167.839C152.966 168.282 152.996 168.725 153.019 169.16C153.395 176.317 153.045 183.458 153.045 190.599C153.113 195.014 153.013 200.245 156.603 202.815C158.545 204.204 161.076 204.375 163.461 204.465C165.137 204.528 166.813 204.576 168.489 204.607C176.338 204.756 186.894 204.561 194.727 204.022C196.45 203.904 198.29 203.723 199.628 202.629C204.601 198.562 198.506 192.909 195.36 190.354Z" fill="#6ACCEC"/>
<path d="M152.068 163.097C151.355 157.446 149.86 151.8 146.84 146.971C143.82 142.141 139.143 138.183 133.604 136.853C125.492 134.906 116.731 139.011 111.58 145.575C109.268 148.523 103.624 160.334 104.307 167.077C104.827 166.146 105.461 165.291 106.271 164.579C108.362 162.74 111.233 162.121 113.983 161.679C124.266 160.025 134.798 159.935 145.108 161.415C147.152 161.708 149.362 162.158 150.699 163.73C151.641 164.84 151.967 166.296 152.113 167.77C152.382 166.234 152.263 164.649 152.068 163.097Z" fill="#2DBDEE"/>
<path d="M72.4252 38.1156C71.7534 39.9278 71.5308 41.8757 71.449 43.8064C71.3973 45.0315 71.4843 46.4418 72.4545 47.1916C73.5079 48.0066 75.0592 47.5964 76.1936 46.8992C79.6193 44.7923 81.31 40.2315 80.0857 36.4009C79.5826 34.8249 78.1063 32.8995 76.2183 33.4581C74.3784 34.0024 73.0378 36.4624 72.4252 38.1156Z" fill="#2DBDEE"/>
<path d="M84.3327 47.6446C83.1788 49.4748 82.6 51.6619 82.6982 53.8235C82.729 54.484 82.8264 55.1603 83.1586 55.7316C83.4907 56.3029 84.098 56.7513 84.7593 56.7348C85.6365 56.713 86.2851 55.94 86.8084 55.2353C88.131 53.4546 89.5143 51.4909 89.4543 49.2739C89.4318 48.4514 89.1904 47.6124 88.655 46.9863C87.2035 45.2851 85.3569 46.0214 84.3327 47.6446Z" fill="#2DBDEE"/>
<path d="M74.5554 64.8054C75.0638 65.6099 75.911 66.4556 76.8212 66.1782C77.2801 66.038 77.6077 65.6414 77.8746 65.2417C79.869 62.2674 79.8772 58.0207 77.8139 55.0742C76.9337 53.8175 75.2205 52.5114 73.6849 53.5281C72.2499 54.4781 72.3234 56.6607 72.4201 58.1572C72.5723 60.5025 73.2981 62.8162 74.5554 64.8054Z" fill="#2DBDEE"/>
<path d="M85.7428 37.3348C85.4938 38.1063 85.3709 38.9708 85.6985 39.7123C86.0397 40.4868 86.8329 40.9967 87.6629 41.1609C88.4929 41.3258 89.3559 41.1856 90.1664 40.9434C91.6899 40.4898 93.1459 39.6351 94.0337 38.3162C95.8098 35.6778 94.3703 32.1666 91.0443 32.0714C88.6099 32.0017 86.3928 35.3194 85.7428 37.3348Z" fill="#2DBDEE"/>
<path d="M168.039 44.4838C167.969 46.167 167.941 47.884 168.421 49.4982C168.9 51.1132 169.966 52.6352 171.527 53.268C172.439 53.6369 173.562 53.6519 174.333 53.0401C175.266 52.2993 175.389 50.9407 175.323 49.7509C175.214 47.8045 174.787 45.8303 173.731 44.1921C172.952 42.9842 171.516 41.5784 170.02 41.355C168.187 41.0813 168.104 42.952 168.039 44.4838Z" fill="#2DBDEE"/>
<path d="M153.866 37.0641C152.556 38.1018 151.907 39.8667 152.094 41.5267C152.28 43.1874 153.248 44.7155 154.586 45.7171C155.649 46.5134 156.998 47.0015 158.313 46.8088C160.623 46.4699 162.232 43.9912 162.056 41.6632C161.765 37.8213 157.42 34.2487 153.866 37.0641Z" fill="#2DBDEE"/>
<path d="M161.175 65.2273C162.098 66.4944 163.69 67.4923 165.193 67.0432C166.449 66.6668 167.233 65.4147 167.667 64.1769C168.79 60.9776 168.714 53.6246 165.009 51.9054C160.877 49.989 159.744 55.7689 159.59 58.4869C159.458 60.8231 159.764 63.2869 161.175 65.2273Z" fill="#2DBDEE"/>
<path d="M171.932 64.2237C171.644 65.67 171.743 67.1643 171.92 68.6294C172.045 69.667 172.303 70.8427 173.218 71.3465C174.058 71.8091 175.164 71.474 175.836 70.7917C176.509 70.1086 176.831 69.1595 177.051 68.2268C177.377 66.8464 177.526 65.3934 177.205 64.0108C176.255 59.9268 172.703 60.3624 171.932 64.2237Z" fill="#2DBDEE"/>
<path d="M98.625 129.009C98.6273 130.463 99.1034 131.942 100.091 133.008C101.079 134.075 102.603 134.673 104.029 134.392C105.932 134.018 107.289 132.181 107.633 130.273C108.124 127.55 106.622 123.539 103.571 122.949C100.473 122.35 98.6198 126.52 98.625 129.009Z" fill="#2DBDEE"/>
<path d="M95.9395 141.817C95.5384 143.199 96.1134 144.808 97.2988 145.624C97.9654 146.083 98.8411 146.294 99.6021 146.019C100.757 145.601 101.284 144.26 101.436 143.042C101.547 142.159 101.524 141.218 101.09 140.442C99.7678 138.077 96.5243 139.795 95.9395 141.817Z" fill="#2DBDEE"/>
<path d="M146.931 138.086C148.173 139.1 150.086 139.192 151.419 138.3C154.642 136.146 152.669 131.234 149.074 131.097C145.403 130.957 144.334 135.965 146.931 138.086Z" fill="#2DBDEE"/>
<path d="M153.859 119.711C152.338 121.296 151.677 123.696 152.29 125.806C152.902 127.915 154.817 129.618 157 129.863C159.184 130.108 161.483 128.806 162.292 126.763C163.095 124.733 162.425 122.39 161.278 120.534C159.727 118.025 155.973 117.509 153.859 119.711Z" fill="#2DBDEE"/>
<path d="M155.95 139.546C156.184 140.462 156.687 141.347 157.492 141.843C158.734 142.608 160.495 142.219 161.445 141.112C162.395 140.005 162.554 138.344 162.014 136.989C161.448 135.567 159.528 133.303 157.802 134.056C156.024 134.831 155.537 137.92 155.95 139.546Z" fill="#2DBDEE"/>
<path d="M85.5044 132.312C85.6101 134.332 87.5033 136.089 89.5261 136.042C90.626 136.018 91.7372 135.478 92.3138 134.54C93.0485 133.345 92.7989 131.747 92.0641 130.552C91.2431 129.216 89.9445 127.738 88.3003 128.278C86.677 128.814 85.4159 130.618 85.5044 132.312Z" fill="#2DBDEE"/>
<path d="M92.3191 89.1857C92.1867 89.0107 92.0963 88.8381 92.0625 88.6719C92.1103 88.9057 92.1651 89.1384 92.2164 89.3717C92.2339 89.2994 92.2689 89.2376 92.3191 89.1857Z" fill="black"/>
<path d="M152.91 98.9705C152.017 100.002 150.954 101.009 149.612 101.263C148.27 101.515 146.651 100.668 146.564 99.3056C145.444 102.724 143.211 106.009 139.853 107.301C136.496 108.593 132.015 107.151 130.891 103.734C129.794 106.949 126.375 109.206 122.989 108.951C119.602 108.694 116.561 105.949 115.961 102.606C115.901 104.668 113.989 106.39 111.937 106.593C109.884 106.795 107.847 105.697 106.547 104.096C105.247 102.494 104.6 100.452 104.29 98.4119C104.584 100.02 102.773 101.397 101.145 101.248C99.5182 101.098 98.1768 99.9302 97.0919 98.7073C95.2175 96.5952 93.739 94.1622 92.4756 91.646C92.4006 91.4968 92.2244 91.1961 92.0625 90.8557C94.2421 99.9002 98.3875 108.589 105.035 115.064C112.218 122.061 122.556 126.168 132.443 124.497C140.53 123.129 147.768 117.987 152.299 111.15C156.678 104.545 158.611 96.4812 158.364 88.5547C157.363 92.38 155.502 95.9819 152.91 98.9705Z" fill="black"/>
<path d="M114.677 130.659C114.769 132.982 114.925 135.416 116.15 137.392C117.358 139.341 119.47 140.581 121.663 141.255C125.479 142.428 129.762 142.044 133.277 140.152C136.793 138.259 139.485 134.868 140.465 130.998C141.665 126.261 140.354 121.291 139.049 116.581C138.403 114.248 137.756 111.916 137.109 109.582C136.504 107.395 135.847 105.115 134.29 103.465C132.432 101.495 129.531 100.759 126.837 101.031C122.957 101.422 118.278 104.203 117.122 108.15C115.83 112.562 114.895 117.127 114.656 121.728C114.502 124.704 114.559 127.685 114.677 130.659Z" fill="#F27CAB"/>
<path d="M125.813 128.593C125.807 129.149 125.934 129.873 126.484 129.962C127.076 130.058 127.408 129.309 127.518 128.719C128.887 121.317 128.539 113.717 128.118 106.2C128.095 105.786 128.068 105.36 127.883 104.988C127.525 104.27 126.567 104.138 126.106 104.831C125.777 105.325 125.999 106.383 126 106.936C126.004 109.342 125.958 111.749 125.937 114.155C125.896 118.968 125.854 123.78 125.813 128.593Z" fill="black"/>
<path d="M92.3011 90.5793C92.223 90.2566 92.1504 89.9333 92.0796 89.6094C92.0149 89.8742 92.1437 90.2493 92.3011 90.5793Z" fill="#FDFCFD"/>
<path d="M97.3873 98.7177C98.4723 99.9406 99.8136 101.109 101.441 101.259C103.068 101.407 104.88 100.031 104.586 98.4223C104.895 100.462 105.543 102.505 106.843 104.106C108.143 105.708 110.179 106.805 112.232 106.603C114.285 106.401 116.196 104.678 116.256 102.617C116.856 105.96 119.898 108.705 123.284 108.961C126.671 109.216 130.09 106.959 131.186 103.744C132.311 107.162 136.791 108.603 140.149 107.312C143.507 106.02 145.739 102.734 146.86 99.316C146.947 100.678 148.566 101.526 149.908 101.273C151.249 101.02 152.312 100.013 153.206 98.9809C155.798 95.9923 157.658 92.3904 158.66 88.5651C158.651 88.2877 158.647 88.011 158.633 87.7344C149.714 95.3805 138.155 99.8881 126.414 100.297C119.979 100.521 113.51 99.5125 107.428 97.4026C104.388 96.3469 101.441 95.0168 98.644 93.4251C97.4458 92.7443 93.4098 90.9411 92.1945 89.3336C92.13 89.4004 92.085 89.4798 92.0625 89.5728C92.157 90.0046 92.2537 90.4358 92.3579 90.8662C92.5199 91.2066 92.6961 91.5072 92.771 91.6564C94.0344 94.1726 95.5129 96.6056 97.3873 98.7177Z" fill="#FDFCFD"/>
<path d="M159.108 78.8771C158.086 81.3948 158.689 84.63 160.882 86.2345C163.214 87.941 166.703 87.3614 168.854 85.4323C170.964 83.5414 171.959 80.3879 171.026 77.7134C170.253 75.4979 167.542 73.1586 165.029 73.6114C162.6 74.0493 160 76.681 159.108 78.8771Z" fill="#F27CAB"/>
<path d="M77.4267 76.8856C76.7377 79.3036 76.9994 82.0522 78.4419 84.1111C79.8852 86.1699 82.5866 87.3764 85.0219 86.751C86.6676 86.3289 88.0539 85.1413 88.9387 83.6912C90.4734 81.1742 90.5162 77.8191 89.0459 75.2646C87.7255 72.9718 85.0789 71.2534 82.4082 71.0982C79.814 70.9475 78.0513 74.6948 77.4267 76.8856Z" fill="#F27CAB"/>
<path d="M125.667 45.7673C124.397 48.8271 124.646 52.5175 126.472 55.2819C128.297 58.047 131.699 59.7415 134.99 59.3553C137.349 59.0794 139.519 57.8071 141.172 56.1013C144.084 53.0955 145.44 48.4372 143.912 44.5414C142.368 40.6044 138.288 38.8867 134.284 38.9887C130.571 39.0839 127.027 42.4923 125.667 45.7673Z" fill="#FDFCFD"/>
<path d="M129.614 49.0516C129.388 51.112 129.887 53.428 131.548 54.6673C132.925 55.6945 134.886 55.7553 136.442 55.0295C137.999 54.3045 139.164 52.8829 139.822 51.2964C140.479 49.7099 140.661 47.8797 140.062 46.2707C139.29 44.1998 136.707 42.2122 134.436 42.8585C131.551 43.6787 129.932 46.1635 129.614 49.0516Z" fill="black"/>
<path d="M136.358 46.0003C135.897 47.1437 136.121 48.5735 137.021 49.417C137.945 50.2859 139.479 50.3857 140.539 49.6884C141.598 48.9911 142.114 47.5838 141.809 46.3527C141.537 45.255 140.399 43.9834 139.223 43.8057C138.018 43.6235 136.771 44.9739 136.358 46.0003Z" fill="#FDFCFD"/>
<path d="M93.6444 63.5351C92.444 67.3785 92.8534 71.6379 95.4431 75.0186C98.0327 78.3985 102.976 80.7116 107.922 80.3165C112.521 79.9483 116.436 77.4208 119.267 74.5095C125.891 67.6971 127.415 55.802 116.037 51.3132C105.984 47.3469 95.8464 56.4828 93.6444 63.5351Z" fill="#FDFCFD"/>
<path d="M104.155 57.6436C102.147 59.6649 100.778 62.3581 100.537 65.1974C100.296 68.0361 101.238 70.9954 103.225 73.037C105.212 75.0786 108.25 76.1043 111.032 75.4925C113.483 74.9542 115.586 73.208 116.802 71.0127C118.017 68.8173 118.389 66.2126 118.107 63.7196C117.87 61.624 117.161 59.5397 115.804 57.9262C112.546 54.0574 107.585 54.1909 104.155 57.6436Z" fill="black"/>
<path d="M115.262 59.4572C114.95 60.1185 114.675 60.8083 114.589 61.5348C114.503 62.2606 114.62 63.032 115.037 63.6341C115.454 64.2332 116.202 64.6276 116.924 64.5076C117.843 64.3562 118.461 63.4699 118.769 62.5905C119.052 61.7845 119.164 60.884 118.877 60.0795C118.295 58.4495 116.104 57.6765 115.262 59.4572Z" fill="#FDFCFD"/>
<path d="M136.227 68.7428C134.228 71.8783 133.692 75.6804 134.862 79.0326C136.052 82.4373 139.96 85.4806 144.443 85.2894C148.66 85.1087 151.954 82.2371 153.623 79.1833C156.417 74.0691 155.541 66.7439 148.299 64.2284C146.763 63.6953 145.037 63.4434 143.388 63.6871C141.336 63.99 139.557 65.0344 138.232 66.3038C137.454 67.0475 136.784 67.8693 136.227 68.7428Z" fill="#FDFCFD"/>
<path d="M141.003 70.2342C140.119 71.1849 139.633 72.3276 139.306 73.4762C138.97 74.6578 138.788 75.892 139.093 77.0788C139.399 78.2657 140.243 79.4076 141.577 80.0127C143.788 81.0136 146.811 80.2249 148.359 78.6286C149.907 77.0331 150.202 74.8685 149.828 72.8824C149.62 71.769 149.199 70.6443 148.288 69.7768C146.203 67.7877 142.794 68.3111 141.003 70.2342Z" fill="black"/>
<path d="M147.287 70.4302C146.801 70.9633 146.567 71.6156 146.473 72.2679C146.405 72.7372 146.412 73.2366 146.702 73.6504C147.214 74.3822 148.531 74.6064 149.49 74.2487C150.45 73.8918 151.045 73.0828 151.21 72.2573C151.596 70.3222 149.122 68.4148 147.287 70.4302Z" fill="#FDFCFD"/>
<path fill-rule="evenodd" clip-rule="evenodd" d="M46.5663 87.8316C46.1172 89.6303 46.0092 91.513 46.2499 93.3507C46.3151 93.8448 46.768 94.1926 47.2613 94.1282C47.7554 94.0629 48.1032 93.6101 48.0388 93.1167C47.8266 91.5025 47.9211 89.8492 48.3162 88.2694C48.4369 87.7866 48.143 87.2963 47.6601 87.1755C47.1773 87.0548 46.687 87.3487 46.5663 87.8316Z" fill="black"/>
<path fill-rule="evenodd" clip-rule="evenodd" d="M30.5985 60.8082C29.7378 62.5139 28.8771 64.2511 28.5015 66.1255C28.0929 68.1596 28.3125 70.3939 29.4994 72.0944C29.7843 72.5023 30.3466 72.602 30.7552 72.3171C31.1631 72.0322 31.2628 71.4699 30.9779 71.0612C30.0685 69.7596 29.9567 68.0382 30.2694 66.4809C30.6135 64.7647 31.4203 63.1827 32.209 61.6209C32.4332 61.1763 32.2547 60.6335 31.8101 60.4093C31.3655 60.1851 30.8227 60.3636 30.5985 60.8082Z" fill="black"/>
<path fill-rule="evenodd" clip-rule="evenodd" d="M199.883 82.7788C200.178 84.9906 201.571 87.0292 203.524 88.1074C203.96 88.348 204.508 88.1899 204.749 87.7535C204.99 87.3179 204.832 86.7691 204.395 86.5284C202.934 85.7217 201.892 84.1959 201.671 82.5404C201.605 82.047 201.151 81.6999 200.658 81.7659C200.164 81.8311 199.817 82.2855 199.883 82.7788Z" fill="black"/>
<path fill-rule="evenodd" clip-rule="evenodd" d="M208.498 54.028C210.314 56.401 211.17 59.4878 210.836 62.4569C210.78 62.9517 211.137 63.3985 211.631 63.454C212.126 63.5102 212.572 63.1534 212.628 62.6593C213.014 59.2313 212.027 55.6692 209.93 52.9318C209.628 52.5367 209.061 52.4609 208.666 52.7638C208.271 53.066 208.195 53.6328 208.498 54.028Z" fill="black"/>
<path fill-rule="evenodd" clip-rule="evenodd" d="M179.063 95.5166C178.634 107.034 178.182 116.242 178.347 127.766C178.355 128.263 178.764 128.662 179.262 128.655C179.76 128.647 180.158 128.238 180.151 127.74C179.986 116.249 180.438 107.068 180.866 95.5841C180.884 95.0862 180.495 94.6678 179.998 94.6491C179.5 94.6303 179.082 95.0195 179.063 95.5166Z" fill="black"/>
<path fill-rule="evenodd" clip-rule="evenodd" d="M67.6905 86.4833C68.4695 96.0601 69.2485 105.636 70.0275 115.213C70.068 115.709 70.5036 116.079 71 116.038C71.4956 115.998 71.866 115.562 71.8255 115.066C71.0465 105.489 70.2675 95.9131 69.4884 86.3363C69.448 85.8407 69.0123 85.4704 68.516 85.5108C68.0204 85.5513 67.65 85.9869 67.6905 86.4833Z" fill="black"/>
<path fill-rule="evenodd" clip-rule="evenodd" d="M178.665 184.453C172.011 184.099 165.255 186.154 159.923 190.152C159.525 190.45 159.444 191.015 159.743 191.414C160.042 191.812 160.607 191.893 161.006 191.594C166.001 187.848 172.333 185.923 178.569 186.254C179.066 186.28 179.491 185.899 179.517 185.402C179.544 184.905 179.162 184.479 178.665 184.453Z" fill="black"/>
<path fill-rule="evenodd" clip-rule="evenodd" d="M173.083 194.617C176.206 196.732 178.226 200.39 178.353 204.157C178.369 204.655 178.787 205.046 179.284 205.029C179.782 205.012 180.172 204.594 180.155 204.097C180.009 199.763 177.686 195.557 174.095 193.124C173.683 192.845 173.121 192.953 172.842 193.364C172.564 193.777 172.672 194.338 173.083 194.617Z" fill="black"/>
<path fill-rule="evenodd" clip-rule="evenodd" d="M185.025 202.833C185.023 202.854 185.022 202.874 185.022 202.895C185.019 203.086 185.016 203.276 185.016 203.468L186.819 203.511C187.021 198.92 184.55 194.306 180.619 191.927C180.193 191.669 179.638 191.806 179.38 192.232C179.123 192.658 179.259 193.212 179.685 193.47C182.895 195.413 184.972 199.088 185.025 202.833Z" fill="black"/>
<path fill-rule="evenodd" clip-rule="evenodd" d="M188.14 193.012C191.616 195.012 194.098 198.656 194.684 202.624C194.757 203.116 195.216 203.456 195.709 203.384C196.201 203.311 196.542 202.852 196.469 202.36C195.803 197.856 192.985 193.719 189.039 191.448C188.608 191.2 188.056 191.349 187.808 191.78C187.559 192.212 187.709 192.764 188.14 193.012Z" fill="black"/>
<path fill-rule="evenodd" clip-rule="evenodd" d="M62.9403 203.256C62.827 201.028 63.5258 198.768 64.8784 196.993C66.2302 195.218 68.2261 193.944 70.4042 193.463C70.89 193.355 71.1975 192.874 71.0902 192.387C70.9823 191.901 70.5009 191.594 70.0143 191.701C67.4246 192.274 65.0516 193.789 63.4434 195.9C61.8359 198.01 61.0036 200.698 61.1393 203.348C61.1648 203.845 61.5884 204.228 62.0855 204.203C62.5826 204.177 62.9658 203.754 62.9403 203.256Z" fill="black"/>
<path fill-rule="evenodd" clip-rule="evenodd" d="M76.914 192.422C73.4583 194.779 71.3237 198.958 71.4422 203.14C71.4557 203.638 71.8711 204.03 72.3689 204.016C72.8667 204.002 73.2589 203.587 73.2446 203.089C73.1442 199.508 74.9713 195.93 77.9307 193.913C78.3416 193.632 78.448 193.071 78.1676 192.659C77.8872 192.248 77.3256 192.142 76.914 192.422Z" fill="black"/>
<path fill-rule="evenodd" clip-rule="evenodd" d="M86.9597 192.589C83.8819 195.127 82.2482 199.309 82.7902 203.262C82.8585 203.755 83.3136 204.101 83.8069 204.033C84.2995 203.965 84.6452 203.51 84.5777 203.017C84.1181 199.67 85.5014 196.129 88.1068 193.98C88.4914 193.664 88.5454 193.095 88.229 192.711C87.9126 192.326 87.3436 192.272 86.9597 192.589Z" fill="black"/>
<path fill-rule="evenodd" clip-rule="evenodd" d="M74.1908 186.451C80.4963 186.613 86.7718 187.858 92.6598 190.118C93.1246 190.297 93.6465 190.064 93.8249 189.599C94.0034 189.135 93.7709 188.613 93.3061 188.434C87.2262 186.101 80.7467 184.815 74.2373 184.649C73.7394 184.636 73.3255 185.03 73.3128 185.527C73.3001 186.025 73.6937 186.438 74.1908 186.451Z" fill="black"/>
<path fill-rule="evenodd" clip-rule="evenodd" d="M124.586 38.069C125.483 37.0246 126.725 36.3378 127.99 35.795C130.536 34.701 133.379 34.1335 136.1 34.6538C138.719 35.1539 141.204 36.7659 142.333 39.1809C142.545 39.6315 143.081 39.8265 143.533 39.6158C143.983 39.4043 144.178 38.8675 143.968 38.4161C142.597 35.4868 139.616 33.4887 136.439 32.8813C133.367 32.295 130.152 32.9031 127.277 34.138C125.762 34.7888 124.294 35.642 123.218 36.8934C122.893 37.2705 122.936 37.8403 123.314 38.165C123.691 38.4896 124.261 38.4469 124.586 38.069Z" fill="black"/>
<path fill-rule="evenodd" clip-rule="evenodd" d="M119.716 48.2598C117.147 45.6071 113.486 44.0446 109.793 44.0236C106.099 44.0034 102.422 45.5246 99.8231 48.1488C99.473 48.502 99.476 49.074 99.8299 49.4242C100.183 49.7743 100.755 49.7713 101.105 49.4174C103.367 47.1336 106.568 45.8103 109.782 45.8275C112.997 45.8455 116.184 47.2056 118.42 49.5149C118.767 49.8725 119.338 49.8815 119.696 49.5351C120.053 49.1887 120.062 48.6174 119.716 48.2598Z" fill="black"/>
<path fill-rule="evenodd" clip-rule="evenodd" d="M138.671 63.6911C140.088 61.9075 142.311 60.7896 144.588 60.7138C146.865 60.6381 149.158 61.6053 150.691 63.2915C151.026 63.6596 151.596 63.6874 151.965 63.3522C152.333 63.0171 152.361 62.4465 152.025 62.0784C150.141 60.0068 147.326 58.8177 144.528 58.9114C141.73 59.0036 139 60.3779 137.258 62.5695C136.948 62.9586 137.014 63.5269 137.403 63.8366C137.793 64.1462 138.361 64.081 138.671 63.6911Z" fill="black"/>
</svg>
