<svg width="209" height="210" viewBox="0 0 209 210" fill="none" xmlns="http://www.w3.org/2000/svg">
<path fill-rule="evenodd" clip-rule="evenodd" d="M208.972 18.8143C208.972 14.0335 207.073 9.44977 203.694 6.0691C200.313 2.68843 195.728 0.789062 190.947 0.789062H18.1518C13.371 0.789062 8.78574 2.68843 5.40506 6.0691C2.02438 9.44977 0.125 14.0335 0.125 18.8143V191.61C0.125 196.391 2.02438 200.975 5.40506 204.356C8.78574 207.736 13.371 209.636 18.1518 209.636H190.947C195.728 209.636 200.313 207.736 203.694 204.356C207.073 200.975 208.972 196.391 208.972 191.61V18.8143Z" fill="white"/>
<path d="M90.0165 203.989C89.7897 204.854 89.5629 205.719 89.3366 206.584C91.6367 205.66 93.8483 204.516 95.9313 203.172C94.7459 205.795 92.6994 208.02 90.1844 209.421C90.8939 208.492 91.6039 207.564 92.3134 206.635C90.7566 207.836 88.894 208.636 86.9516 208.94C87.6046 208.333 88.1722 207.635 88.633 206.872C86.5236 208.228 84.1514 209.173 81.6875 209.641C83.0386 209.37 84.6839 208.142 85.9387 207.484C87.5644 206.632 89.0013 205.541 90.0165 203.989Z" fill="#9BA536"/>
<path d="M170.86 79.6506C172.284 78.7951 173.688 77.8296 175.305 77.4522C176.922 77.0744 178.85 77.4417 179.79 78.811C181.026 80.6111 180.035 83.0517 178.965 84.9554C174.602 92.7218 169.167 99.8859 162.864 106.182C159.922 109.121 156.197 112.066 152.08 111.476C152.608 111.552 151.706 88.7211 152.106 86.8462C152.555 84.7432 152.389 85.1516 154.801 84.9042C156.686 84.7112 158.554 84.4142 160.396 83.9602C164.072 83.054 167.615 81.6021 170.86 79.6506Z" fill="#633B97"/>
<path d="M171.099 70.8065C170.855 69.794 170.612 68.7377 170.843 67.7224C171.074 66.7072 171.937 65.754 172.978 65.7878C174.267 65.8293 175.03 67.2091 175.532 68.3977C176.353 70.342 177.173 72.2866 177.993 74.2309C180.628 70.5195 183.436 66.6575 187.533 64.6763C188.1 64.4021 188.708 64.1634 189.337 64.1894C189.965 64.215 190.618 64.5659 190.825 65.1604C191.103 65.9584 190.519 66.7761 189.972 67.4199C188.072 69.6594 186.171 71.8993 184.271 74.1387C186.152 75.1147 188.475 74.1989 190.165 72.9204C191.855 71.6424 193.316 69.9792 195.29 69.209C196.184 68.8595 197.282 68.7418 198.037 69.3345C198.927 70.0335 198.927 71.453 198.347 72.424C197.766 73.395 196.765 74.0237 195.802 74.616C193.47 76.0478 191.139 77.4805 188.808 78.9123C188.148 79.3175 187.407 79.865 187.426 80.6384C187.446 81.4365 188.328 81.9758 189.126 81.9713C189.925 81.9667 190.666 81.5907 191.417 81.3201C193.247 80.6613 195.291 80.6143 197.149 81.1896C197.912 81.4255 198.669 81.7837 199.176 82.4011C199.683 83.018 199.877 83.9424 199.472 84.6305C199.037 85.3692 198.106 85.6169 197.269 85.799C192.377 86.864 187.486 87.9289 182.594 88.9939C180.696 89.4073 178.7 89.8179 176.84 89.2581C172.827 88.0508 172.777 84.3544 172.929 80.8867C173.078 77.4723 171.888 74.0931 171.099 70.8065Z" fill="#633B97"/>
<path d="M32.8705 78.1026C31.8288 77.2503 30.8017 76.3149 29.5278 75.88C28.2538 75.4452 26.6358 75.6665 25.8825 76.7821C25.2045 77.7869 25.429 79.1279 25.7201 80.3046C28.5062 91.5675 35.1177 101.848 44.2096 109.055C46.288 110.703 49.0248 112.261 51.4554 111.2C53.5699 110.277 54.445 107.782 54.9369 105.528C55.9252 100.998 58.8076 87.8871 52.9178 85.9215C49.5295 84.7903 45.8085 84.8962 42.3649 83.5821C38.9364 82.2739 35.7109 80.4283 32.8705 78.1026Z" fill="#633B97"/>
<path d="M31.318 91.1474C31.7424 91.0986 32.0043 90.6492 32.0855 90.2294C32.3159 89.0367 31.3098 85.8696 29.6845 87.2745C29.0448 87.827 29.095 88.4846 29.429 89.1904C29.7279 89.8215 30.4506 91.2478 31.318 91.1474Z" fill="#7E5DA7"/>
<path d="M36.5482 95.1231C36.7444 95.2796 36.9803 95.4265 37.2289 95.3914C37.4484 95.3604 37.6286 95.1861 37.7185 94.983C37.8084 94.78 37.8212 94.5514 37.813 94.3296C37.7783 93.3765 37.3763 92.4411 36.7083 91.7603C35.9363 90.9741 34.5898 90.7624 34.844 92.1682C35.052 93.3194 35.6256 94.389 36.5482 95.1231Z" fill="#7E5DA7"/>
<path d="M37.2862 101.762C37.5996 102.021 38.0272 102.242 38.3986 102.076C38.7969 101.898 38.9005 101.377 38.8567 100.942C38.7586 99.9764 37.4591 97.7415 36.1802 98.4127C34.9564 99.0547 36.6697 101.254 37.2862 101.762Z" fill="#7E5DA7"/>
<path d="M33.397 96.239C33.5668 96.4019 33.8145 96.5634 34.0189 96.4475C34.1996 96.3449 34.2174 96.0948 34.1969 95.8881C34.1266 95.1877 33.4773 93.0565 32.4507 93.4055C31.1841 93.8358 32.9421 95.8024 33.397 96.239Z" fill="#7E5DA7"/>
<path d="M36.278 64.98C36.0854 63.8973 35.5625 62.6105 34.467 62.5143C33.0799 62.3929 32.4443 64.2504 32.599 65.6334C32.7532 67.0169 33.1401 68.6371 32.1655 69.6305C31.315 70.4965 29.8229 70.3332 28.8063 69.6702C27.7897 69.0067 27.0916 67.9691 26.2735 67.0721C24.4607 65.0854 22.0405 63.7791 19.6692 62.5102C19.0487 62.1775 18.3524 61.8349 17.6693 62.0069C16.6796 62.256 16.2475 63.5395 16.5902 64.5009C16.9324 65.4623 17.8089 66.128 18.7019 66.6226C19.5948 67.1168 20.5622 67.5074 21.3251 68.1854C22.2833 69.0369 22.7459 70.7447 21.7252 71.5209C21.2845 71.8562 20.684 71.911 20.1383 71.8179C18.8794 71.603 17.8541 70.7073 16.9676 69.7879C16.0814 68.8685 15.2273 67.8628 14.0756 67.3098C12.9244 66.7573 11.3594 66.8074 10.565 67.8076C9.42791 69.239 10.6444 71.4373 12.255 72.302C13.8662 73.1667 15.7935 73.3118 17.3805 74.2193C18.9679 75.1269 20.0662 77.4233 18.8178 78.7589C18.0056 79.6281 16.619 79.6235 15.4709 79.3119C14.3229 79.0007 13.2169 78.4463 12.0278 78.429C10.8383 78.4116 9.50137 79.2069 9.5 80.3965C9.49909 81.2328 10.1397 81.9209 10.7826 82.4561C13.7293 84.9059 17.6762 86.1146 21.4889 85.7345C31.7986 84.7065 38.016 74.771 36.278 64.98Z" fill="#633B97"/>
<path d="M116.206 203.629C115.735 204.665 114.685 205.902 113.719 205.3C113.149 204.945 113.08 204.157 113.073 203.486C112.923 189.432 112.774 175.378 112.625 161.324C120.041 161.643 127.587 159.946 134.798 160.188C135.728 163.388 133.727 165.426 132.378 168.135C130.399 172.111 128.684 176.244 126.842 180.286C123.297 188.068 119.752 195.848 116.206 203.629Z" fill="#633B97"/>
<path d="M124.221 195.439C130.103 195.361 136.108 199.301 137.418 205.037C131.925 206.13 126.275 206.049 120.674 205.963C117.761 205.918 114.318 206.377 111.467 205.809C108.875 205.292 109.782 203.19 111.119 201.67C114.332 198.014 119.338 195.504 124.221 195.439Z" fill="#633B97"/>
<path d="M97.7052 203.629C98.177 204.665 99.2264 205.902 100.192 205.3C100.763 204.945 100.832 204.157 100.839 203.486C100.988 189.432 101.137 175.378 101.286 161.324C93.8701 161.643 86.3245 159.946 79.1134 160.188C78.183 163.388 80.1839 165.426 81.5331 168.135C83.5129 172.111 85.2272 176.244 87.0692 180.286C90.6145 188.068 94.1598 195.848 97.7052 203.629Z" fill="#633B97"/>
<path d="M86.4476 195.439C80.5652 195.361 74.5591 199.301 73.25 205.037C78.7428 206.13 84.3934 206.049 89.9938 205.963C92.9072 205.918 96.3494 206.377 99.2007 205.809C101.792 205.292 100.885 203.19 99.5493 201.67C96.3362 198.014 91.3303 195.504 86.4476 195.439Z" fill="#633B97"/>
<path d="M25.7947 47.7423C24.8607 48.894 25.8919 50.6114 27.3479 50.3317C29.7315 49.8741 32.2159 49.9485 34.5685 50.5407C34.6876 46.8448 35.3949 43.1676 36.6652 39.6953C32.4404 41.4046 28.6656 44.2038 25.7947 47.7423Z" fill="#F26532"/>
<path d="M37.9052 39.3594C37.5685 39.4798 37.2409 39.6217 36.9091 39.7559C35.6388 43.2282 34.9316 46.9054 34.8125 50.6013C35.7547 50.8381 36.6778 51.1497 37.5621 51.5563C38.1416 51.8223 38.7028 52.1262 39.2449 52.4606C40.2939 47.0779 42.7519 41.9684 46.341 37.8203C43.471 37.8815 40.6096 38.3934 37.9052 39.3594Z" fill="#B24C27"/>
<path d="M55.7699 39.6997C53.9895 38.2884 50.633 38.0881 48.4967 37.9119C47.5531 37.8344 46.6054 37.8065 45.6586 37.8266C42.0695 41.9747 39.6115 47.0841 38.5625 52.4669C42.1918 54.7077 44.9199 58.4 45.9242 62.5512C46.2559 63.9215 46.4266 65.377 47.3848 66.4794C47.8894 67.0593 48.6071 67.4549 49.3751 67.4212C50.6536 67.365 51.2823 66.2476 51.7669 65.221C54.5808 59.2605 56.3193 52.7982 56.9047 46.2345C57.0945 44.1051 57.6895 41.2218 55.7699 39.6997Z" fill="#F26532"/>
<path d="M181.583 49.9485C179.173 45.9893 175.733 42.6625 171.688 40.3984C172.814 43.9766 173.46 47.7045 173.611 51.4533C175.668 51.362 177.744 51.6495 179.697 52.3056C181.102 52.7784 182.355 51.2151 181.583 49.9485Z" fill="#F26532"/>
<path d="M159.634 36.9864C157.493 36.8741 154.14 36.6218 152.186 37.7812C150.079 39.0319 150.282 41.9685 150.184 44.1048C149.883 50.6876 150.737 57.3247 152.725 63.6087C153.068 64.691 153.541 65.8832 154.8 66.1105C155.557 66.2469 156.321 65.9517 156.899 65.4443C157.997 64.4806 158.361 63.0611 158.873 61.7484C160.107 58.5882 162.379 55.8614 165.214 54.0039C164.757 48.0791 163.038 42.2528 160.201 37.0315C160.012 37.0174 159.823 36.9964 159.634 36.9864Z" fill="#F26532"/>
<path d="M170.846 40.0269C167.624 38.3578 164.054 37.3827 160.438 37.1172C163.274 42.3385 164.993 48.1647 165.45 54.0896C166.718 53.2596 168.098 52.6021 169.548 52.1591C170.831 51.7676 172.161 51.5518 173.499 51.4924C173.348 47.7436 172.702 44.0158 171.575 40.4376C171.332 40.3016 171.094 40.1551 170.846 40.0269Z" fill="#B24C27"/>
<path d="M158.579 48.6253C158.545 48.3009 158.506 47.976 158.46 47.6516C157.911 43.7298 156.468 39.866 153.761 36.9947C146.711 29.5157 133.881 30.1171 124.473 29.6092C112.153 28.944 99.8042 28.5064 87.4695 29.0257C76.067 29.5052 58.526 29.4965 50.0528 38.6701C39.3165 53.1485 46.6179 105.061 46.5458 124.886C46.7909 136.014 46.1982 147.228 46.0261 158.357C45.1332 166.042 49.1654 171.537 57.0846 171.352C62.3574 171.815 67.6371 172.201 72.9209 172.516C72.8511 172.438 72.7803 172.36 72.7178 172.274C72.158 171.503 71.9777 170.527 71.8372 169.585C70.2849 159.164 71.2888 147.826 76.6802 138.596C82.0046 129.479 91.5341 122.78 102.012 121.484C112.49 120.188 123.638 124.58 129.934 133.054C138.412 144.462 137.225 159.387 136.44 172.753C139.153 172.612 141.866 172.457 144.578 172.277C147.511 172.082 150.692 171.76 152.835 169.748C159.498 159.325 154.403 145.21 155.479 133.458C156.858 118.38 156.77 103.007 157.3 87.8766C157.57 80.1609 157.826 72.4447 158.073 64.728C158.243 59.3963 159.129 53.9675 158.579 48.6253Z" fill="#633B97"/>
<path d="M66.7424 70.7461C66.423 72.5882 67.5272 74.6027 69.283 75.2465C71.0383 75.8898 73.2348 75.0115 73.9905 73.3013C74.46 72.2382 74.3838 70.9962 74.0128 69.8947C72.6846 65.9479 67.414 66.8764 66.7424 70.7461Z" fill="#7E5DA7"/>
<path d="M56.5135 62.7405C56.1065 64.0582 56.6208 65.6073 57.735 66.4204C58.8493 67.2331 60.4818 67.2495 61.612 66.4596C62.7423 65.6694 63.288 64.1308 62.9074 62.8053C62.5775 61.6554 61.2274 59.8148 59.869 59.979C58.5344 60.1406 56.9037 61.4784 56.5135 62.7405Z" fill="#7E5DA7"/>
<path d="M54.8151 77.7591C55.2143 78.6885 55.9544 79.487 56.8934 79.8635C57.8325 80.2395 58.965 80.1578 59.7881 79.5696C60.546 79.0285 60.9772 78.1396 61.2546 77.2508C61.9655 74.9721 61.0488 71.3839 57.9967 71.5779C55.1897 71.7567 53.8404 75.4877 54.8151 77.7591Z" fill="#7E5DA7"/>
<path d="M72.3154 80.9508C72.3852 82.1974 73.5072 83.2947 74.7551 83.3367C75.4437 83.36 76.1728 83.0556 76.5132 82.457C76.834 81.8935 76.7637 81.1876 76.5794 80.5657C76.2874 79.5824 75.315 78.1912 74.125 78.3855C73.0413 78.5626 72.2588 79.941 72.3154 80.9508Z" fill="#7E5DA7"/>
<path d="M128.693 69.5231C128.268 71.0713 128.901 72.9197 130.317 73.6753C131.494 74.3036 133.049 74.0759 134.048 73.1912C135.901 71.5499 135.442 68.6982 133.682 67.1901C131.698 65.49 129.282 67.3722 128.693 69.5231Z" fill="#7E5DA7"/>
<path d="M138.942 65.6708C138.599 67.4257 139.613 69.3184 141.211 70.12C142.078 70.5544 143.127 70.6886 144.024 70.3208C145.007 69.9179 145.693 68.951 145.928 67.9139C146.163 66.8772 145.992 65.7817 145.631 64.7815C144.402 61.3726 139.586 62.3796 138.942 65.6708Z" fill="#7E5DA7"/>
<path d="M137.663 80.0716C138.829 80.7359 140.435 80.5461 141.372 79.587C143.372 77.5414 141.643 73.3705 138.66 73.8323C135.687 74.2922 135.146 78.6365 137.663 80.0716Z" fill="#7E5DA7"/>
<path d="M146.576 74.4994C146.334 75.2879 146.266 76.1708 146.622 76.9141C147.103 77.9202 148.264 78.4517 149.377 78.5183C150.296 78.5735 151.261 78.3472 151.956 77.7427C153.75 76.1817 152.873 73.3231 151.179 72.051C149.272 70.6183 147.136 72.6715 146.576 74.4994Z" fill="#7E5DA7"/>
<path d="M130.135 133.052C123.838 124.578 112.691 120.186 102.213 121.482C91.7345 122.778 82.205 129.477 76.8806 138.593C71.4892 147.824 70.4854 159.162 72.0376 169.583C72.1782 170.525 72.3584 171.5 72.9183 172.271C72.9808 172.357 73.0515 172.435 73.1213 172.514C94.2682 173.775 115.485 173.852 136.64 172.75C137.425 159.385 138.612 144.46 130.135 133.052Z" fill="#7E5DA7"/>
<path d="M60.1858 24.7547C56.7563 26.1258 54.2869 28.0066 56.5405 30.2497C55.4021 29.1167 53.1722 29.9098 52.7255 31.4534C52.2788 32.9965 53.3785 34.7039 54.8806 35.2711C56.3831 35.8387 58.1156 35.4449 59.484 34.604C58.3857 35.0087 58.3292 36.7052 59.1477 37.542C59.9663 38.3784 61.2416 38.5445 62.4115 38.5513C65.8592 38.5723 69.3074 37.6109 72.2477 35.8095C76.6919 38.8096 83.1145 38.4573 87.2047 34.9896C91.2286 38.7571 98.4758 38.1726 101.845 33.8082C105.457 37.7528 112.528 37.6921 116.072 33.6864C117.215 35.7228 119.453 37.099 121.784 37.1989C124.116 37.2988 126.463 36.1193 127.776 34.1883C128.89 36.2224 131.052 37.6433 133.36 37.8582C135.668 38.0731 138.055 37.0761 139.525 35.2829C141.942 36.8713 144.573 38.5221 147.462 38.3971C150.35 38.2725 153.253 35.4244 152.274 32.7013C154.549 33.7466 155.141 30.5362 154.426 29.1642C153.634 27.6429 151.986 26.453 150.491 25.7056C148.373 24.6465 146.009 24.1998 143.674 23.8065C119.366 19.7123 94.4988 20.2001 69.9361 22.2775C68.7657 22.3765 63.91 23.2654 60.1858 24.7547Z" fill="#CDDD44"/>
<path d="M70.0525 97.5872C72.2203 96.4862 74.6678 98.079 75.7168 99.9744C76.5144 101.415 76.7512 103.102 76.7754 104.749C78.8163 103.002 81.9295 102.635 84.3205 103.859C86.7114 105.083 88.234 107.824 88.0109 110.5C88.5283 107.764 91.9094 106.26 94.5732 107.072C97.237 107.884 99.0908 110.395 99.9386 113.047C100.274 110.196 102.955 107.814 105.827 107.818C108.698 107.822 111.373 110.21 111.701 113.063C113.083 110.988 114.586 108.809 116.867 107.802C119.148 106.795 122.401 107.585 123.101 109.978C123.91 107.92 124.77 105.787 126.405 104.299C128.041 102.812 130.695 102.195 132.472 103.51C132.349 101.794 132.23 100.041 132.663 98.3756C133.097 96.7102 134.19 95.1182 135.813 94.5474C137.331 94.014 139.275 94.6756 139.908 96.1166C139.505 94.7993 140.052 93.2265 141.223 92.4832C142.055 91.9548 143.132 91.8914 144.053 92.2295C144.682 89.0716 144.708 85.8073 143.991 82.5859C143.791 82.6795 143.588 82.7694 143.386 82.8615C143.402 82.9756 143.418 83.0897 143.434 83.2033C143.642 84.678 143.805 86.223 143.297 87.6224C142.788 89.0223 141.402 90.2164 139.928 90.0069C138.261 89.7706 137.292 87.9509 137.066 86.2827C136.556 88.4734 136.007 90.7228 134.694 92.5493C133.382 94.3758 131.108 95.6968 128.91 95.2218C126.428 94.6847 124.993 92.2359 123.936 89.8614C125.072 93.0184 123.273 97.0355 120.049 98.1155C116.582 99.2768 112.376 96.733 111.795 93.1224C110.988 96.3926 107.752 98.8908 104.385 98.8433C101.017 98.7963 97.8525 96.2087 97.1375 92.9171C97.6668 94.8686 96.5023 97.056 94.6882 97.9481C92.874 98.8406 90.6035 98.5276 88.9216 97.4065C87.2393 96.2849 86.1155 94.4507 85.5739 92.5028C85.7541 94.4429 84.3173 96.3502 82.4465 96.8941C80.5757 97.438 78.4504 96.6965 77.1655 95.2323C75.8806 93.7681 75.4097 91.6838 75.7305 89.7624C75.2098 90.8793 74.6687 92.0251 73.7703 92.8687C72.8723 93.7129 71.5203 94.1942 70.3792 93.7288C69.2937 93.2862 68.685 92.1492 68.1977 91.0833C67.792 90.1954 65.5051 85.7288 66.0463 84.6753C65.6311 84.4047 65.2177 84.1314 64.8125 83.8421C64.8253 89.1062 66.3812 94.2823 69.0026 98.9163C69.1682 98.3378 69.4953 97.8701 70.0525 97.5872Z" fill="black"/>
<path d="M67.9838 91.1034C68.4711 92.1692 69.0798 93.3063 70.1653 93.7489C71.3064 94.2143 72.6584 93.7329 73.5564 92.8888C74.4548 92.0451 74.9959 90.8994 75.5165 89.7824C75.1958 91.7038 75.6667 93.7881 76.9516 95.2523C78.2365 96.7165 80.3618 97.458 82.2326 96.9141C84.1034 96.3702 85.5402 94.463 85.36 92.5228C85.9016 94.4707 87.0254 96.305 88.7077 97.4265C90.3896 98.5476 92.6601 98.8606 94.4742 97.9681C96.2884 97.0761 97.4529 94.8887 96.9236 92.9371C97.6386 96.2288 100.803 98.8164 104.171 98.8633C107.538 98.9108 110.774 96.4127 111.581 93.1425C112.162 96.753 116.368 99.2968 119.835 98.1356C123.059 97.0556 124.858 93.0384 123.722 89.8814C123.681 89.7874 123.639 89.6939 123.598 89.6004C113.409 92.02 102.864 92.9454 92.4114 92.292C83.1109 91.7102 73.607 89.7692 65.8324 84.6953C65.2912 85.7489 67.5781 90.2154 67.9838 91.1034Z" fill="#FDFCFD"/>
<path d="M80.2685 111.45C89.4087 117.534 100.953 119.459 111.827 117.941C120.7 116.702 129.449 113.126 135.719 106.728C139.679 102.687 142.534 97.5842 143.613 92.17C142.692 91.8318 141.614 91.8953 140.783 92.4236C139.612 93.1669 139.065 94.7397 139.468 96.057C139.511 96.157 139.55 96.2601 139.58 96.3673C139.536 96.266 139.5 96.1624 139.468 96.057C138.835 94.6161 136.891 93.9545 135.373 94.4879C133.749 95.0587 132.657 96.6507 132.223 98.3161C131.79 99.9811 131.909 101.734 132.032 103.45C130.255 102.135 127.601 102.752 125.965 104.24C124.33 105.727 123.47 107.861 122.661 109.918C121.961 107.525 118.708 106.735 116.427 107.742C114.146 108.749 112.643 110.928 111.261 113.003C110.933 110.15 108.258 107.762 105.386 107.758C102.515 107.755 99.8339 110.136 99.4985 112.988C98.6508 110.336 96.7969 107.825 94.1331 107.012C91.4693 106.2 88.0883 107.705 87.5708 110.441C87.794 107.764 86.2713 105.024 83.8804 103.8C81.4895 102.576 78.3763 102.943 76.3353 104.689C76.3111 103.042 76.0743 101.355 75.2767 99.9149C74.2277 98.0195 71.7802 96.4266 69.6124 97.5276C69.0553 97.8105 68.7281 98.2782 68.5625 98.8568C71.4083 103.889 75.5103 108.283 80.2685 111.45Z" fill="#FDFCFD"/>
<path d="M122.553 45.9544C122.496 46.0178 122.44 46.0821 122.385 46.1474C117.874 51.4937 120.344 61.139 127.76 62.0813C131.152 62.512 134.689 60.8165 136.597 57.9802C140.209 52.6116 137.696 44.189 130.967 42.9899C127.909 42.4446 124.624 43.641 122.553 45.9544Z" fill="#FDFCFD"/>
<path d="M125.147 47.9973C124.389 48.9062 124.05 50.0999 123.927 51.2771C123.796 52.5209 123.894 53.8186 124.435 54.946C125.531 57.227 128.511 58.3613 130.872 57.4533C133.234 56.5453 134.685 53.7757 134.158 51.3004C133.416 47.8112 127.873 44.7276 125.147 47.9973Z" fill="black"/>
<path d="M130.765 48.5585C130.571 49.0417 130.433 49.555 130.438 50.0756C130.443 50.5963 130.604 51.1269 130.95 51.5157C131.562 52.2028 132.683 52.2991 133.48 51.8401C134.278 51.3811 134.748 50.4648 134.809 49.5463C134.848 48.96 134.729 48.3486 134.387 47.8704C133.356 46.429 131.337 47.1322 130.765 48.5585Z" fill="#FDFCFD"/>
<path d="M97.2407 45.9544C97.1837 46.0178 97.128 46.0821 97.0728 46.1474C92.5615 51.4937 95.0318 61.139 102.448 62.0813C105.839 62.512 109.376 60.8165 111.285 57.9802C114.897 52.6116 112.384 44.189 105.655 42.9899C102.596 42.4446 99.3118 43.641 97.2407 45.9544Z" fill="#FDFCFD"/>
<path d="M99.8349 47.9973C99.077 48.9062 98.738 50.0999 98.6143 51.2771C98.4838 52.5209 98.581 53.8186 99.1226 54.946C100.218 57.227 103.198 58.3613 105.56 57.4533C107.922 56.5453 109.373 53.7757 108.846 51.3004C108.103 47.8112 102.561 44.7276 99.8349 47.9973Z" fill="black"/>
<path d="M104.515 48.5585C104.321 49.0417 104.182 49.555 104.188 50.0756C104.193 50.5963 104.353 51.1269 104.7 51.5157C105.311 52.2028 106.432 52.2991 107.23 51.8401C108.028 51.3811 108.498 50.4648 108.559 49.5463C108.598 48.96 108.479 48.3486 108.137 47.8704C107.105 46.429 105.087 47.1322 104.515 48.5585Z" fill="#FDFCFD"/>
<path d="M71.928 45.9544C71.871 46.0178 71.8153 46.0821 71.7601 46.1474C67.2493 51.4937 69.7191 61.139 77.1356 62.0813C80.5271 62.512 84.0638 60.8165 85.9724 57.9802C89.5843 52.6116 87.0711 44.189 80.3423 42.9899C77.2838 42.4446 73.9991 43.641 71.928 45.9544Z" fill="#FDFCFD"/>
<path d="M74.5226 47.9973C73.7642 48.9062 73.4257 50.0999 73.302 51.2771C73.1711 52.5209 73.2687 53.8186 73.8099 54.946C74.9059 57.227 77.8854 58.3613 80.2476 57.4533C82.6097 56.5453 84.0598 53.7757 83.5333 51.3004C82.7904 47.8112 77.2484 44.7276 74.5226 47.9973Z" fill="black"/>
<path d="M79.2023 48.5585C79.0093 49.0417 78.8697 49.555 78.8752 50.0756C78.8806 50.5963 79.0408 51.1269 79.3871 51.5157C79.9994 52.2028 81.1196 52.2991 81.9177 51.8401C82.7153 51.3811 83.1857 50.4648 83.2464 49.5463C83.2856 48.96 83.1665 48.3486 82.8248 47.8704C81.7931 46.429 79.774 47.1322 79.2023 48.5585Z" fill="#FDFCFD"/>
<path d="M83.1781 67.5169C83.121 67.5803 83.0654 67.6446 83.0102 67.7099C78.4993 73.0561 80.9688 82.7015 88.3861 83.6437C91.7772 84.0745 95.3143 82.3794 97.2225 79.5431C100.834 74.1741 98.3213 65.7515 91.592 64.5524C88.5339 64.0071 85.2492 65.2035 83.1781 67.5169Z" fill="#FDFCFD"/>
<path d="M86.7099 69.4426C85.9516 70.352 85.6126 71.5452 85.4894 72.7228C85.3589 73.9662 85.4556 75.2643 85.9972 76.3914C87.0932 78.6723 90.0732 79.8066 92.4349 78.8986C94.7971 77.9906 96.2472 75.221 95.7206 72.7461C94.9783 69.2565 89.4358 66.1729 86.7099 69.4426Z" fill="black"/>
<path d="M91.3903 70.0042C91.1963 70.4874 91.0572 71.0002 91.0627 71.5209C91.0681 72.0415 91.2283 72.5721 91.5746 72.9609C92.1869 73.6481 93.3076 73.7444 94.1052 73.2853C94.9028 72.8263 95.3732 71.9101 95.4339 70.9916C95.4727 70.4057 95.354 69.7938 95.0118 69.3161C93.9801 67.8742 91.9615 68.5773 91.3903 70.0042Z" fill="#FDFCFD"/>
<path d="M112.241 67.5169C112.184 67.5803 112.128 67.6446 112.073 67.7099C107.562 73.0561 110.032 82.7015 117.448 83.6437C120.84 84.0745 124.377 82.3794 126.285 79.5431C129.897 74.1741 127.384 65.7515 120.655 64.5524C117.597 64.0071 114.312 65.2035 112.241 67.5169Z" fill="#FDFCFD"/>
<path d="M114.835 69.4426C114.077 70.352 113.738 71.5452 113.614 72.7228C113.484 73.9662 113.581 75.2643 114.123 76.3914C115.219 78.6723 118.198 79.8066 120.56 78.8986C122.923 77.9906 124.373 75.221 123.846 72.7461C123.103 69.2565 117.561 66.1729 114.835 69.4426Z" fill="black"/>
<path d="M119.515 70.0042C119.321 70.4874 119.182 71.0002 119.188 71.5209C119.193 72.0415 119.353 72.5721 119.7 72.9609C120.312 73.6481 121.432 73.7444 122.23 73.2853C123.028 72.8263 123.498 71.9101 123.559 70.9916C123.598 70.4057 123.479 69.7938 123.137 69.3161C122.105 67.8742 120.087 68.5773 119.515 70.0042Z" fill="#FDFCFD"/>
<path fill-rule="evenodd" clip-rule="evenodd" d="M177.425 74.9336C178.182 78.3379 177.48 82.0411 175.531 84.933C175.362 85.184 175.428 85.5253 175.68 85.6945C175.93 85.8643 176.272 85.7977 176.441 85.5463C178.556 82.4079 179.318 78.3899 178.497 74.6954C178.431 74.3997 178.137 74.2131 177.842 74.2788C177.546 74.3445 177.36 74.6379 177.425 74.9336Z" fill="black"/>
<path fill-rule="evenodd" clip-rule="evenodd" d="M39.623 85.6435C39.4245 87.2022 39.0782 88.7421 38.5899 90.236C38.4955 90.5239 38.6529 90.8342 38.9408 90.9282C39.2287 91.0227 39.539 90.8652 39.633 90.5773C40.1431 89.0177 40.505 87.4093 40.7117 85.7822C40.75 85.4815 40.5369 85.2064 40.2367 85.1685C39.936 85.1302 39.6613 85.3433 39.623 85.6435Z" fill="black"/>
<path fill-rule="evenodd" clip-rule="evenodd" d="M31.7681 68.9542C31.7672 69.6382 31.3114 70.2369 30.8113 70.7032C30.1949 71.2776 29.4717 71.7326 28.8854 72.3376C27.2368 74.0382 26.8303 76.8183 27.9226 78.9204C28.0622 79.1892 28.3939 79.2937 28.6627 79.154C28.9314 79.0144 29.0359 78.6827 28.8963 78.4139C28.0148 76.7179 28.3428 74.4744 29.6738 73.1014C30.2474 72.5101 30.9569 72.0679 31.5596 71.5063C32.2787 70.8364 32.8641 69.9394 32.866 68.9561C32.8664 68.6531 32.6209 68.4067 32.318 68.4063C32.015 68.4058 31.7686 68.6513 31.7681 68.9542Z" fill="black"/>
<path fill-rule="evenodd" clip-rule="evenodd" d="M119.76 200.174C121.348 200.107 122.955 200.617 124.214 201.587C125.474 202.557 126.377 203.98 126.719 205.533C126.784 205.829 127.077 206.016 127.372 205.951C127.669 205.886 127.856 205.593 127.791 205.298C127.394 203.495 126.346 201.844 124.884 200.717C123.422 199.591 121.557 199 119.714 199.077C119.411 199.09 119.175 199.346 119.188 199.648C119.201 199.951 119.457 200.187 119.76 200.174Z" fill="black"/>
<path fill-rule="evenodd" clip-rule="evenodd" d="M126.11 198.728C129.084 199.819 131.485 202.367 132.394 205.401C132.481 205.691 132.788 205.857 133.077 205.769C133.368 205.683 133.533 205.376 133.446 205.086C132.438 201.726 129.781 198.905 126.488 197.698C126.204 197.593 125.888 197.74 125.784 198.024C125.679 198.308 125.826 198.624 126.11 198.728Z" fill="black"/>
<path fill-rule="evenodd" clip-rule="evenodd" d="M92.9313 199.542C91.0797 199.49 89.2167 200.061 87.7119 201.141C86.2071 202.219 85.0691 203.801 84.5243 205.571C84.4353 205.861 84.5982 206.168 84.8875 206.257C85.1772 206.346 85.4843 206.183 85.5738 205.894C86.0483 204.352 87.0403 202.973 88.3516 202.033V202.032C89.663 201.091 91.2869 200.595 92.9003 200.639C93.2032 200.648 93.456 200.409 93.4642 200.106C93.4729 199.803 93.2338 199.551 92.9313 199.542Z" fill="black"/>
<path fill-rule="evenodd" clip-rule="evenodd" d="M44.1887 84.2245C44.764 93.185 45.3394 102.146 45.9152 111.107C45.9344 111.409 46.1958 111.639 46.4979 111.619C46.8004 111.6 47.0299 111.339 47.0103 111.037C46.4345 102.076 45.8591 93.1147 45.2837 84.1542C45.2646 83.8517 45.0031 83.6222 44.7011 83.6418C44.3986 83.661 44.169 83.9224 44.1887 84.2245Z" fill="black"/>
<path fill-rule="evenodd" clip-rule="evenodd" d="M121.087 43.9971C123.035 41.7586 125.983 40.4253 128.95 40.4417C131.917 40.4577 134.851 41.8229 136.774 44.0828C136.97 44.3133 137.317 44.3411 137.547 44.1449C137.778 43.9487 137.806 43.6019 137.61 43.371C135.482 40.872 132.238 39.3617 128.957 39.3439C125.675 39.3257 122.414 40.8004 120.26 43.2762C120.061 43.5048 120.085 43.852 120.313 44.0505C120.542 44.2494 120.889 44.2252 121.087 43.9971Z" fill="black"/>
<path fill-rule="evenodd" clip-rule="evenodd" d="M94.8281 43.5996C96.8955 41.3496 99.949 40.0392 103.005 40.0916H103.005C106.06 40.1432 109.068 41.5559 111.058 43.8752C111.256 44.1047 111.602 44.1311 111.832 43.934C112.062 43.7364 112.088 43.3897 111.891 43.1602C109.699 40.6068 106.388 39.0509 103.023 38.9938C99.6588 38.9368 96.2964 40.3796 94.0196 42.8567C93.8147 43.0798 93.8293 43.4271 94.0524 43.6324C94.2755 43.8373 94.6228 43.8227 94.8281 43.5996Z" fill="black"/>
<path fill-rule="evenodd" clip-rule="evenodd" d="M68.597 44.369C70.7279 41.7837 74.0423 40.215 77.3933 40.2072C80.7437 40.199 84.066 41.7504 86.21 44.3257C86.4035 44.5584 86.7498 44.5898 86.983 44.3959C87.2157 44.2025 87.2472 43.8561 87.0532 43.623C84.7038 40.8013 81.0622 39.1003 77.3905 39.1094C73.7184 39.1181 70.0854 40.8374 67.7502 43.6709C67.5576 43.9045 67.5909 44.2508 67.8245 44.4434C68.0582 44.6359 68.4045 44.6026 68.597 44.369Z" fill="black"/>
<path fill-rule="evenodd" clip-rule="evenodd" d="M82.6633 66.2524C84.5551 63.9071 87.468 62.416 90.4771 62.2531C93.4859 62.0907 96.5425 63.2587 98.6761 65.3873C98.8906 65.6008 99.2387 65.6008 99.4527 65.3864C99.6662 65.1719 99.6662 64.8238 99.4518 64.6098C97.101 62.2649 93.7332 60.9782 90.4178 61.1571C87.1025 61.3364 83.8935 62.979 81.8092 65.5634C81.6189 65.7993 81.6558 66.1447 81.8917 66.335C82.1276 66.5253 82.4735 66.4883 82.6633 66.2524Z" fill="black"/>
<path fill-rule="evenodd" clip-rule="evenodd" d="M109.891 66.6355C111.456 64.1008 114.204 62.3332 117.16 61.9609C120.115 61.589 123.216 62.6202 125.36 64.6881C125.578 64.8984 125.926 64.892 126.136 64.6739C126.346 64.4558 126.34 64.1081 126.122 63.8978C123.743 61.6036 120.302 60.4592 117.023 60.8722C113.743 61.2846 110.693 63.2467 108.957 66.0588C108.798 66.3166 108.878 66.6551 109.135 66.8144C109.393 66.9732 109.732 66.8933 109.891 66.6355Z" fill="black"/>
</svg>
