<svg width="195" height="195" viewBox="0 0 195 195" fill="none" xmlns="http://www.w3.org/2000/svg">
<path fill-rule="evenodd" clip-rule="evenodd" d="M195 16.8272C195 12.3791 193.233 8.11436 190.089 4.96897C186.943 1.82358 182.677 0.0563965 178.229 0.0563965H17.4597C13.0117 0.0563965 8.74549 1.82358 5.60009 4.96897C2.45469 8.11436 0.6875 12.3791 0.6875 16.8272V177.598C0.6875 182.046 2.45469 186.31 5.60009 189.456C8.74549 192.601 13.0117 194.368 17.4597 194.368H178.229C182.677 194.368 186.943 192.601 190.089 189.456C193.233 186.31 195 182.046 195 177.598V16.8272Z" fill="white"/>
<path d="M56.5117 49.4478C56.5194 49.466 56.5273 49.4843 56.5354 49.5027C56.5357 49.5027 56.536 49.5025 56.5364 49.5025C56.5286 49.4841 56.5212 49.4656 56.5117 49.4478Z" fill="#FDFCFD"/>
<path d="M29.2009 100.649C28.4175 98.725 28.122 95.8848 30.0698 95.1612C32.1277 94.3965 33.702 96.968 34.7515 98.8965C37.4955 103.94 42.7169 107.264 48.2065 108.949C53.6956 110.633 59.5091 110.871 65.2462 111.097C65.5556 114.517 67.6739 127.478 64.1064 129.503C60.9995 131.267 52.5051 125.934 49.8391 124.347C40.69 118.898 33.2285 110.537 29.2009 100.649Z" fill="#6ACCEC"/>
<path d="M34.5956 99.7929C35.2492 98.5195 35.4896 97.0799 35.6948 95.6638C36.3511 91.1334 36.7294 86.4928 35.8712 81.9966C35.2609 81.7417 34.5304 82.0516 34.1051 82.5582C33.6797 83.0648 33.4937 83.7253 33.3356 84.3671C32.7339 86.8081 32.3705 89.3079 32.2518 91.8195C31.2189 92.1417 30.2469 91.2274 29.5479 90.4007C27.3895 87.848 25.2307 85.2953 23.0723 82.7426C22.4701 82.0297 21.8529 81.3046 21.0567 80.8188C20.2599 80.3331 19.2382 80.1193 18.3848 80.4961C18.3677 82.4 19.306 84.1913 20.4624 85.7036C21.6194 87.2164 23.013 88.5384 24.1331 90.0774C24.5109 90.5963 24.8652 91.1638 24.9373 91.8008C25.01 92.4378 24.7209 93.1571 24.1256 93.3959C23.3748 93.6979 22.5748 93.1528 21.933 92.6601C19.8201 91.0372 17.5314 89.643 15.1197 88.5096C14.4496 88.1954 13.7448 87.895 13.0052 87.9015C12.2651 87.9073 11.479 88.299 11.2332 88.9969C11.0061 89.6414 11.2952 90.3756 11.7676 90.8694C12.24 91.3632 12.8695 91.6699 13.4765 91.9836C17.3273 93.972 20.8247 96.6412 23.759 99.8298C24.8924 101.062 25.9938 102.41 27.5162 103.107C30.2388 104.353 33.3585 102.205 34.5956 99.7929Z" fill="#6ACCEC"/>
<path d="M28.7553 92.5726C28.1317 93.3416 27.6241 94.204 27.2548 95.1226C26.8102 96.2293 26.605 97.5984 27.3473 98.5325C27.7299 99.014 28.3123 99.3004 28.9066 99.458C29.5232 99.6221 30.2772 99.6215 30.6871 99.1331C31.0515 98.6998 30.997 98.059 30.8725 97.5065C30.6214 96.3939 30.1725 95.2145 30.5984 94.157C30.7272 93.8385 30.9286 93.5548 31.082 93.2475C31.3823 92.6458 31.3727 91.755 30.5567 91.6545C29.8171 91.5632 29.1898 92.0372 28.7553 92.5726Z" fill="#2DBDEE"/>
<path d="M34.8368 84.9148C34.7059 85.4572 34.6722 86.0231 34.7374 86.5772C34.7684 86.8369 34.8245 87.1031 34.9784 87.3141C35.1328 87.5252 35.4064 87.6674 35.6586 87.5979C35.9355 87.5226 36.092 87.2367 36.2042 86.9727C36.4356 86.4271 36.6141 85.8393 36.5575 85.2493C36.5158 84.8154 36.2577 84.0924 35.7901 83.9342C35.2167 83.7402 34.9458 84.4627 34.8368 84.9148Z" fill="#2DBDEE"/>
<path d="M21.9242 84.716C22.2454 85.0211 22.7103 85.2771 23.1158 85.0992C23.3301 85.0051 23.4835 84.801 23.5546 84.5781C23.6251 84.3548 23.6219 84.1138 23.5882 83.8824C23.4482 82.9221 22.7621 82.0612 21.8574 81.7101C21.6853 81.6433 21.4999 81.5931 21.3166 81.6192C19.9363 81.8148 21.4475 84.2634 21.9242 84.716Z" fill="#2DBDEE"/>
<path d="M157.086 93.1192C157.459 91.8826 157.805 90.5745 158.69 89.6345C159.574 88.6951 161.209 88.3125 162.145 89.2017C162.88 89.8996 162.905 91.0458 162.841 92.0574C162.644 95.1974 162.085 98.3048 161.377 101.37C159.401 109.927 156.253 118.214 152.05 125.925C150.176 129.361 148.059 132.727 145.184 135.383C142.31 138.039 138.586 139.944 134.672 139.988C133.174 140.005 135.118 119.304 137.205 117.472C139.66 115.315 142.843 113.946 145.321 111.681C147.884 109.339 150.156 106.677 152.068 103.779C154.238 100.49 155.947 96.893 157.086 93.1192Z" fill="#6ACCEC"/>
<path d="M154.011 86.2593C153.584 85.1457 153.151 83.9514 153.41 82.7875C153.669 81.6236 154.938 80.6099 156.036 81.0775C156.753 81.3832 157.122 82.1655 157.428 82.8831C157.74 83.6158 158.052 84.3484 158.365 85.081C158.564 85.5481 158.803 86.0568 159.27 86.2551C159.767 86.4661 160.363 86.2305 160.731 85.835C161.098 85.4396 161.288 84.9149 161.468 84.4061C162.543 81.3762 163.618 78.3463 164.694 75.3169C164.885 74.7745 165.087 74.2166 165.472 73.7886C165.856 73.3605 166.474 73.0891 167.018 73.2777C167.527 73.4546 167.844 73.9911 167.917 74.526C167.991 75.0609 167.867 75.6007 167.744 76.1265C167.213 78.3933 166.682 80.6607 166.151 82.9275C165.964 83.7264 165.932 84.8267 166.71 85.0859C167.387 85.3114 168.004 84.6487 168.428 84.0753C169.858 82.1462 171.495 80.3716 173.303 78.7925C174.031 78.1555 174.966 77.5111 175.891 77.7964C176.797 78.0764 177.229 79.1794 177.079 80.1145C176.929 81.0502 176.349 81.8518 175.786 82.6138C173.213 86.0974 170.639 89.5805 168.066 93.0646C167.253 94.1654 166.407 95.2962 165.231 95.9973C163.256 97.1735 158.947 97.0869 157.371 95.1263C156.605 94.1724 156.278 92.1781 155.834 91.018C155.226 89.4319 154.619 87.8454 154.011 86.2593Z" fill="#6ACCEC"/>
<path d="M162.957 86.9475C162.978 86.5019 163.072 85.9958 163.452 85.7623C163.735 85.5886 164.109 85.6239 164.403 85.7767C164.697 85.9301 164.925 86.1834 165.129 86.4447C165.956 87.5001 166.518 88.8553 166.279 90.1741C166.191 90.6593 165.958 91.1654 165.508 91.369C164.609 91.7767 163.728 90.818 163.33 90.111C162.849 89.2566 162.912 87.8966 162.957 86.9475Z" fill="#2DBDEE"/>
<path d="M172.603 81.5763C172.533 81.7917 172.479 82.0311 172.568 82.2395C172.669 82.4751 172.935 82.6071 173.19 82.6199C173.447 82.6327 173.697 82.5473 173.936 82.4548C174.465 82.2496 174.993 81.9942 175.378 81.5768C175.763 81.1589 175.981 80.5487 175.805 80.0095C175.585 79.3378 174.705 79.0011 174.115 79.3581C173.393 79.7952 172.854 80.8025 172.603 81.5763Z" fill="#2DBDEE"/>
<path d="M165.572 77.2903C165.538 77.549 165.52 77.8188 165.605 78.0652C165.691 78.3121 165.903 78.5312 166.163 78.552C166.398 78.5707 166.616 78.4302 166.79 78.2715C167.277 77.8268 167.576 77.1824 167.603 76.523C167.625 75.9693 167.392 74.6083 166.579 75.047C165.921 75.4024 165.661 76.6266 165.572 77.2903Z" fill="#2DBDEE"/>
<path d="M155.774 85.9783C155.865 86.1274 155.965 86.2765 156.104 86.3828C156.243 86.4886 156.43 86.5469 156.596 86.4939C156.869 86.4068 156.976 86.0814 157.029 85.7992C157.143 85.2039 157.201 84.5851 157.064 83.9952C156.926 83.4047 156.566 82.8436 156.02 82.5801C155.873 82.5096 155.707 82.4604 155.547 82.4968C155.025 82.6149 155.055 83.7381 155.097 84.1288C155.167 84.7861 155.432 85.4182 155.774 85.9783Z" fill="#2DBDEE"/>
<path d="M87.69 68.3102C86.4449 65.8986 85.1154 63.5313 83.7121 61.2073C77.5026 60.0579 70.9528 60.7937 65.1511 63.2892C65.1329 63.3646 65.111 63.4394 65.0923 63.5148C64.3687 66.5254 63.642 69.7221 63.495 72.8246C63.3646 75.5713 65.6753 75.8487 68.0014 76.383C73.7289 77.6987 79.871 77.2316 85.304 74.975C86.6768 74.4048 88.1373 73.5738 88.5482 72.1449C88.9191 70.8539 88.3061 69.504 87.69 68.3102Z" fill="#CDDD44"/>
<path d="M79.4333 55.4106C78.582 54.165 77.7099 52.9332 76.8121 51.7207C75.7535 50.2897 74.4256 48.7518 72.6467 48.6866C71.4566 48.6433 70.3275 49.3102 69.5452 50.2079C68.7628 51.1057 68.2744 52.2166 67.825 53.3196C67.195 54.8677 66.6259 56.4393 66.1064 58.028C70.2901 56.2079 74.8718 55.3123 79.4333 55.4106Z" fill="#CDDD44"/>
<path d="M83.7949 61.2563C82.6059 59.2871 81.3624 57.3505 80.0639 55.4519C75.5025 55.3536 70.9207 56.2492 66.7371 58.0692C66.1696 59.806 65.6673 61.5635 65.2339 63.3382C71.0356 60.8427 77.5855 60.1068 83.7949 61.2563Z" fill="#9BA536"/>
<path d="M136.265 70.8015C135.843 68.191 135.329 65.6009 134.676 63.046C131.161 61.2559 126.988 60.7557 123.151 61.6727C122.136 63.1449 121.164 64.647 120.241 66.1786C120.222 66.2096 120.205 66.2411 120.186 66.2726C125.839 66.0829 131.544 67.6871 136.265 70.8015Z" fill="#9BA536"/>
<path d="M135.2 62.9741C134.823 61.5041 134.413 60.0426 133.928 58.6008C133.393 57.0089 132.514 55.2065 130.857 54.9334C129.193 54.6593 127.782 56.0941 126.744 57.4225C125.679 58.7841 124.657 60.1783 123.675 61.6008C127.512 60.6838 131.685 61.184 135.2 62.9741Z" fill="#CDDD44"/>
<path d="M137.965 81.2655C137.555 77.769 137.135 74.2603 136.572 70.7826C131.85 67.6682 126.145 66.064 120.492 66.2537C118.889 68.9187 117.393 71.6713 116.108 74.5045C114.963 77.0311 117.534 78.8586 119.409 80.4372C123.488 83.87 128.697 85.9797 134.035 86.2026C135.113 86.2474 136.295 86.1833 137.104 85.4689C138.222 84.4819 138.139 82.7462 137.965 81.2655Z" fill="#CDDD44"/>
<path d="M149.623 183.877C147.966 182.532 146.029 181.527 143.98 180.932C143.535 180.802 138.307 180 138.351 180.355C137.179 170.811 137.639 161.668 138.152 152.193C138.511 145.568 138.523 138.905 138.708 132.274C139.079 118.996 139.449 105.718 139.82 92.4402C139.923 88.7562 140.003 84.9413 138.573 81.5448C135.83 75.0286 128.361 71.8849 121.38 70.7638C106.774 68.4184 92.1485 65.5627 77.2763 65.8187C72.1335 65.9068 66.5107 66.4829 62.8609 70.1076C57.5818 75.3503 58.2429 84.556 58.4983 91.3159C58.8488 100.609 59.2886 109.9 59.8182 119.185C60.3809 129.07 61.0451 138.949 61.8098 148.82C62.3479 155.771 62.497 162.738 63.1928 169.678C63.5594 173.338 63.5583 176.897 63.5311 180.581C59.2496 181.168 55.237 183.521 52.6346 186.972C51.7288 188.173 50.963 189.699 51.4082 191.136C52.0564 193.223 54.7064 193.784 56.8888 193.904C64.6949 194.337 72.5599 193.707 80.1977 192.038C80.7759 191.912 81.3814 191.765 81.8169 191.363C82.3951 190.831 82.5351 189.986 82.6414 189.207C83.0069 186.543 82.5239 183.737 82.6559 181.015C82.8114 177.799 83.2303 174.596 83.9084 171.45C84.2125 170.038 84.6085 168.584 85.3048 167.336C84.818 162.531 88.8407 154.112 90.4888 152.011C94.1594 147.333 100.404 144.407 106.186 145.795C110.133 146.742 113.467 149.564 115.619 153.006C117.771 156.448 118.837 160.472 119.345 164.5C119.484 165.606 119.569 166.736 119.377 167.83C119.408 168.145 119.429 168.461 119.446 168.772C119.714 173.872 119.464 178.962 119.464 184.052C119.512 187.199 119.441 190.926 122 192.758C123.384 193.748 125.188 193.87 126.888 193.934C128.083 193.979 129.277 194.013 130.472 194.035C136.066 194.142 143.589 194.003 149.172 193.619C150.4 193.534 151.712 193.405 152.665 192.626C156.21 189.727 151.865 185.698 149.623 183.877Z" fill="#6ACCEC"/>
<path d="M119.377 164.447C118.869 160.419 117.803 156.395 115.651 152.953C113.499 149.511 110.165 146.69 106.217 145.742C100.436 144.354 94.1911 147.28 90.5205 151.959C88.8724 154.059 84.8497 162.478 85.3365 167.283C85.7068 166.62 86.1589 166.011 86.736 165.503C88.2269 164.193 90.273 163.751 92.2326 163.436C99.5616 162.257 107.068 162.193 114.416 163.248C115.873 163.457 117.448 163.777 118.401 164.898C119.073 165.689 119.305 166.727 119.409 167.777C119.601 166.683 119.516 165.553 119.377 164.447Z" fill="#2DBDEE"/>
<path d="M62.4491 75.4073C61.9703 76.6989 61.8116 78.0873 61.7533 79.4633C61.7165 80.3364 61.7785 81.3416 62.4699 81.876C63.2207 82.4569 64.3264 82.1646 65.1349 81.6676C67.5765 80.166 68.7815 76.9154 67.9089 74.1852C67.5503 73.062 66.4981 71.6897 65.1525 72.0878C63.8412 72.4757 62.8857 74.229 62.4491 75.4073Z" fill="#2DBDEE"/>
<path d="M70.7678 82.228C69.9454 83.5325 69.5329 85.0912 69.6029 86.6318C69.6248 87.1026 69.6942 87.5846 69.931 87.9918C70.1677 88.399 70.6006 88.7186 71.0719 88.7068C71.6971 88.6913 72.1593 88.1404 72.5323 87.6381C73.475 86.3689 74.4609 84.9694 74.4181 83.3892C74.4021 82.803 74.23 82.2051 73.8485 81.7589C72.8139 80.5464 71.4978 81.0711 70.7678 82.228Z" fill="#2DBDEE"/>
<path d="M64.1712 94.3795C64.5335 94.9529 65.1374 95.5557 65.7861 95.358C66.1131 95.2581 66.3467 94.9754 66.5369 94.6906C67.9584 92.5707 67.9642 89.544 66.4936 87.4439C65.8663 86.5483 64.6452 85.6174 63.5508 86.342C62.528 87.0191 62.5804 88.5746 62.6493 89.6412C62.7578 91.3128 63.2751 92.9618 64.1712 94.3795Z" fill="#2DBDEE"/>
<path d="M71.5129 74.7883C71.3355 75.3381 71.2478 75.9543 71.4813 76.4828C71.7245 77.0348 72.2898 77.3982 72.8814 77.5152C73.4729 77.6327 74.088 77.5328 74.6657 77.3602C75.7515 77.0369 76.7893 76.4277 77.422 75.4877C78.6879 73.6073 77.6619 71.1048 75.2914 71.0369C73.5563 70.9872 71.9762 73.3518 71.5129 74.7883Z" fill="#2DBDEE"/>
<path d="M130.681 79.9361C130.631 81.1358 130.611 82.3595 130.953 83.51C131.295 84.6611 132.055 85.7459 133.167 86.1969C133.817 86.4598 134.618 86.4705 135.167 86.0344C135.832 85.5065 135.919 84.5382 135.872 83.6901C135.795 82.3029 135.491 80.8959 134.738 79.7282C134.183 78.8674 133.159 77.8654 132.093 77.7062C130.787 77.5111 130.727 78.8444 130.681 79.9361Z" fill="#2DBDEE"/>
<path d="M120.599 74.5904C119.666 75.33 119.203 76.5879 119.336 77.771C119.469 78.9546 120.159 80.0437 121.112 80.7576C121.87 81.3251 122.832 81.673 123.769 81.5357C125.415 81.2941 126.562 79.5275 126.437 77.8682C126.229 75.1301 123.132 72.5838 120.599 74.5904Z" fill="#2DBDEE"/>
<path d="M125.697 94.7592C126.354 95.6623 127.489 96.3735 128.56 96.0535C129.456 95.7852 130.015 94.8928 130.324 94.0105C131.124 91.7304 131.07 86.4897 128.429 85.2644C125.484 83.8986 124.677 88.018 124.567 89.9552C124.473 91.6203 124.691 93.3762 125.697 94.7592Z" fill="#2DBDEE"/>
<path d="M133.4 93.9551C133.194 94.986 133.265 96.051 133.391 97.0951C133.48 97.8347 133.664 98.6726 134.317 99.0317C134.915 99.3614 135.703 99.1226 136.183 98.6363C136.662 98.1495 136.891 97.473 137.048 96.8082C137.281 95.8244 137.386 94.7888 137.158 93.8034C136.481 90.8926 133.949 91.2031 133.4 93.9551Z" fill="#2DBDEE"/>
<path d="M80.9346 140.162C80.9362 141.198 81.2755 142.252 81.9793 143.012C82.6836 143.773 83.7699 144.199 84.7863 143.999C86.142 143.731 87.1092 142.423 87.3545 141.063C87.7045 139.122 86.6342 136.263 84.4598 135.842C82.2518 135.415 80.9308 138.388 80.9346 140.162Z" fill="#2DBDEE"/>
<path d="M79.2809 149.263C78.995 150.249 79.4049 151.396 80.2498 151.977C80.7248 152.304 81.349 152.455 81.8914 152.259C82.7143 151.96 83.09 151.005 83.1985 150.137C83.2776 149.508 83.261 148.836 82.9516 148.283C82.0095 146.598 79.6978 147.823 79.2809 149.263Z" fill="#2DBDEE"/>
<path d="M115.972 146.672C116.858 147.395 118.221 147.46 119.171 146.825C121.468 145.29 120.062 141.789 117.5 141.691C114.884 141.591 114.122 145.161 115.972 146.672Z" fill="#2DBDEE"/>
<path d="M120.594 133.522C119.51 134.651 119.039 136.362 119.476 137.865C119.912 139.369 121.277 140.582 122.833 140.757C124.389 140.932 126.028 140.004 126.604 138.547C127.177 137.101 126.7 135.431 125.882 134.108C124.776 132.32 122.101 131.952 120.594 133.522Z" fill="#2DBDEE"/>
<path d="M122.029 147.671C122.195 148.324 122.554 148.955 123.128 149.308C124.013 149.853 125.268 149.576 125.945 148.787C126.622 147.998 126.736 146.814 126.351 145.848C125.948 144.835 124.579 143.221 123.349 143.758C122.081 144.31 121.734 146.512 122.029 147.671Z" fill="#2DBDEE"/>
<path d="M72.215 142.465C72.2904 143.904 73.6397 145.156 75.0814 145.123C75.8654 145.105 76.6573 144.721 77.0682 144.052C77.5919 143.201 77.414 142.062 76.8903 141.21C76.3052 140.258 75.3796 139.204 74.2077 139.59C73.0508 139.971 72.152 141.257 72.215 142.465Z" fill="#2DBDEE"/>
<path d="M76.7561 111.744C76.6618 111.619 76.5973 111.496 76.5732 111.378C76.6073 111.545 76.6464 111.71 76.6829 111.877C76.6954 111.825 76.7204 111.781 76.7561 111.744Z" fill="black"/>
<path d="M119.941 118.802C119.304 119.537 118.546 120.254 117.59 120.435C116.634 120.615 115.48 120.011 115.418 119.04C114.619 121.477 113.028 123.818 110.635 124.739C108.242 125.66 105.049 124.632 104.247 122.196C103.466 124.488 101.029 126.096 98.6152 125.915C96.2014 125.732 94.034 123.775 93.606 121.393C93.5632 122.862 92.2011 124.09 90.738 124.234C89.2748 124.378 87.8235 123.596 86.8969 122.455C85.9703 121.313 85.5091 119.857 85.2884 118.403C85.4979 119.55 84.2068 120.531 83.0467 120.425C81.8871 120.318 80.9311 119.485 80.1578 118.614C78.8219 117.109 77.7681 115.375 76.8677 113.581C76.8142 113.475 76.6887 113.261 76.5732 113.018C78.1267 119.464 81.0812 125.657 85.819 130.272C90.9389 135.259 98.3069 138.186 105.354 136.995C111.117 136.02 116.276 132.355 119.506 127.482C122.626 122.775 124.004 117.027 123.828 111.378C123.114 114.104 121.788 116.671 119.941 118.802Z" fill="black"/>
<path d="M92.3556 141.365C92.4208 143.02 92.532 144.755 93.4052 146.163C94.2666 147.552 95.7719 148.436 97.3344 148.917C100.054 149.753 103.107 149.479 105.612 148.131C108.118 146.781 110.037 144.365 110.735 141.606C111.591 138.23 110.656 134.688 109.726 131.331C109.265 129.668 108.805 128.006 108.344 126.343C107.912 124.784 107.444 123.159 106.334 121.983C105.01 120.579 102.942 120.054 101.022 120.248C98.2568 120.527 94.9217 122.509 94.0982 125.322C93.177 128.467 92.5106 131.72 92.3407 135C92.2306 137.12 92.2717 139.245 92.3556 141.365Z" fill="#F27CAB"/>
<path d="M100.997 139.869C100.993 140.265 101.083 140.781 101.475 140.844C101.897 140.913 102.134 140.379 102.212 139.959C103.188 134.683 102.94 129.266 102.64 123.909C102.623 123.614 102.604 123.31 102.472 123.045C102.217 122.533 101.534 122.439 101.206 122.933C100.971 123.285 101.129 124.039 101.13 124.433C101.133 126.148 101.1 127.864 101.085 129.579C101.056 133.009 101.026 136.438 100.997 139.869Z" fill="black"/>
<path d="M76.7056 112.57C76.6622 112.391 76.622 112.212 76.5827 112.032C76.5469 112.179 76.6183 112.387 76.7056 112.57Z" fill="#FDFCFD"/>
<path d="M80.3684 118.552C81.1416 119.423 82.0976 120.256 83.2572 120.363C84.4174 120.469 85.7084 119.488 85.4989 118.341C85.7196 119.795 86.1808 121.251 87.1074 122.392C88.034 123.534 89.4854 124.316 90.9485 124.172C92.4116 124.028 93.7738 122.8 93.8165 121.331C94.2445 123.713 96.412 125.67 98.8257 125.852C101.24 126.034 103.676 124.426 104.458 122.134C105.259 124.57 108.453 125.598 110.845 124.677C113.239 123.756 114.83 121.414 115.629 118.978C115.691 119.949 116.844 120.553 117.801 120.373C118.757 120.192 119.515 119.475 120.152 118.739C121.999 116.609 123.325 114.042 124.039 111.316C124.033 111.118 124.03 110.921 124.02 110.724C117.663 116.173 109.425 119.386 101.056 119.677C96.4697 119.837 91.8591 119.118 87.5248 117.615C85.3579 116.862 83.2578 115.914 81.264 114.78C80.4101 114.294 77.5335 113.009 76.6673 111.864C76.6213 111.911 76.5893 111.968 76.5732 112.034C76.6406 112.342 76.7095 112.649 76.7838 112.956C76.8992 113.198 77.0248 113.413 77.0782 113.519C77.9787 115.312 79.0325 117.046 80.3684 118.552Z" fill="#FDFCFD"/>
<path d="M124.892 104.486C124.163 106.281 124.593 108.586 126.156 109.73C127.818 110.946 130.304 110.533 131.838 109.158C133.342 107.81 134.051 105.563 133.386 103.657C132.835 102.078 130.902 100.41 129.112 100.733C127.38 101.045 125.528 102.921 124.892 104.486Z" fill="#F27CAB"/>
<path d="M65.4935 103.076C65.0024 104.8 65.1889 106.759 66.217 108.226C67.2457 109.693 69.1711 110.553 70.9067 110.108C72.0797 109.807 73.0678 108.96 73.6983 107.927C74.7922 106.133 74.8227 103.742 73.7748 101.921C72.8337 100.287 70.9474 99.062 69.0439 98.9514C67.195 98.844 65.9386 101.515 65.4935 103.076Z" fill="#F27CAB"/>
<path d="M100.689 80.7769C99.784 82.9576 99.9614 85.5878 101.263 87.5581C102.564 89.5289 104.988 90.7366 107.334 90.4614C109.015 90.2647 110.562 89.3579 111.74 88.1422C113.815 85.9998 114.782 82.6798 113.693 79.9031C112.592 77.0971 109.684 75.8729 106.83 75.9456C104.184 76.0134 101.658 78.4427 100.689 80.7769Z" fill="#FDFCFD"/>
<path d="M103.65 83.1708C103.489 84.6392 103.844 86.2899 105.029 87.1733C106.01 87.9054 107.407 87.9486 108.516 87.4314C109.626 86.9146 110.456 85.9014 110.925 84.7707C111.394 83.6399 111.523 82.3355 111.096 81.1888C110.547 79.7128 108.705 78.2962 107.087 78.7568C105.03 79.3414 103.877 81.1123 103.65 83.1708Z" fill="black"/>
<path d="M108.141 81.0075C107.812 81.8224 107.972 82.8415 108.613 83.4427C109.272 84.062 110.365 84.1331 111.12 83.6361C111.875 83.1392 112.243 82.1361 112.026 81.2587C111.832 80.4763 111.021 79.57 110.183 79.4434C109.324 79.3135 108.435 80.276 108.141 81.0075Z" fill="#FDFCFD"/>
<path d="M77.905 93.5162C77.0495 96.2554 77.3413 99.2912 79.187 101.701C81.0328 104.11 84.5559 105.758 88.0812 105.477C91.3591 105.214 94.1491 103.413 96.1669 101.338C100.888 96.4825 101.974 88.0047 93.8648 84.8054C86.6998 81.9785 79.4745 88.4899 77.905 93.5162Z" fill="#FDFCFD"/>
<path d="M85.2839 89.3562C83.8528 90.7968 82.877 92.7163 82.7055 94.74C82.534 96.7631 83.2051 98.8723 84.6212 100.327C86.0379 101.783 88.2026 102.514 90.1857 102.078C91.9326 101.694 93.4315 100.449 94.2977 98.8846C95.1639 97.32 95.429 95.4635 95.2281 93.6867C95.0592 92.1932 94.5542 90.7076 93.5865 89.5576C91.2646 86.8003 87.7286 86.8954 85.2839 89.3562Z" fill="black"/>
<path d="M92.7727 90.5163C92.5499 90.9876 92.3543 91.4793 92.2929 91.9971C92.2314 92.5143 92.3148 93.0642 92.6124 93.4933C92.9095 93.9203 93.4423 94.2014 93.9569 94.1159C94.6121 94.0079 95.0524 93.3763 95.272 92.7495C95.4735 92.175 95.5536 91.5332 95.349 90.9598C94.9343 89.7981 93.3728 89.2472 92.7727 90.5163Z" fill="#FDFCFD"/>
<path d="M107.639 97.1665C106.215 99.4013 105.832 102.111 106.666 104.5C107.514 106.927 110.3 109.096 113.494 108.96C116.5 108.831 118.848 106.784 120.037 104.608C122.029 100.963 121.404 95.7419 116.243 93.949C115.148 93.5691 113.918 93.3896 112.743 93.5632C111.281 93.7791 110.012 94.5235 109.068 95.4282C108.514 95.9583 108.036 96.544 107.639 97.1665Z" fill="#FDFCFD"/>
<path d="M111.191 98.2106C110.561 98.8882 110.215 99.7026 109.982 100.521C109.742 101.363 109.613 102.243 109.83 103.089C110.048 103.935 110.65 104.749 111.601 105.18C113.176 105.893 115.331 105.331 116.434 104.193C117.538 103.056 117.748 101.514 117.482 100.098C117.333 99.3045 117.033 98.5029 116.384 97.8846C114.897 96.4669 112.468 96.8399 111.191 98.2106Z" fill="black"/>
<path d="M115.558 98.4708C115.212 98.8507 115.045 99.3156 114.978 99.7805C114.929 100.115 114.935 100.471 115.141 100.766C115.506 101.287 116.445 101.447 117.128 101.192C117.812 100.938 118.237 100.361 118.354 99.773C118.629 98.3938 116.866 97.0344 115.558 98.4708Z" fill="#FDFCFD"/>
<path fill-rule="evenodd" clip-rule="evenodd" d="M43.7423 110.884C43.4222 112.165 43.3452 113.507 43.5168 114.817C43.5633 115.169 43.886 115.417 44.2376 115.371C44.5898 115.325 44.8377 115.002 44.7918 114.65C44.6406 113.5 44.7079 112.322 44.9895 111.196C45.0755 110.851 44.8661 110.502 44.5219 110.416C44.1778 110.33 43.8283 110.539 43.7423 110.884Z" fill="black"/>
<path fill-rule="evenodd" clip-rule="evenodd" d="M32.8457 91.5603C32.2322 92.776 31.6187 94.0142 31.351 95.3501C31.0598 96.7999 31.2163 98.3923 32.0623 99.6043C32.2653 99.895 32.6661 99.9661 32.9573 99.763C33.2481 99.5599 33.3191 99.1592 33.1161 98.8679C32.4679 97.9403 32.3882 96.7133 32.6111 95.6034C32.8563 94.3802 33.4313 93.2527 33.9935 92.1396C34.1533 91.8227 34.0261 91.4358 33.7092 91.276C33.3923 91.1162 33.0054 91.2434 32.8457 91.5603Z" fill="black"/>
<path fill-rule="evenodd" clip-rule="evenodd" d="M153.338 107.199C153.548 108.776 154.541 110.228 155.933 110.997C156.243 111.168 156.634 111.056 156.806 110.745C156.977 110.434 156.865 110.043 156.554 109.872C155.512 109.297 154.769 108.209 154.612 107.029C154.565 106.678 154.241 106.43 153.89 106.477C153.538 106.524 153.291 106.847 153.338 107.199Z" fill="black"/>
<path fill-rule="evenodd" clip-rule="evenodd" d="M159.57 86.6797C160.864 88.371 161.474 90.571 161.236 92.6871C161.196 93.0398 161.45 93.3583 161.802 93.3978C162.155 93.4379 162.474 93.1836 162.513 92.8314C162.788 90.3882 162.085 87.8494 160.591 85.8984C160.375 85.6168 159.971 85.5628 159.69 85.7787C159.408 85.9941 159.354 86.3981 159.57 86.6797Z" fill="black"/>
<path fill-rule="evenodd" clip-rule="evenodd" d="M139.039 116.249C138.733 124.457 138.411 131.02 138.528 139.233C138.534 139.588 138.825 139.872 139.18 139.867C139.535 139.862 139.819 139.57 139.814 139.215C139.696 131.025 140.019 124.482 140.323 116.297C140.337 115.942 140.059 115.644 139.705 115.631C139.35 115.617 139.052 115.895 139.039 116.249Z" fill="black"/>
<path fill-rule="evenodd" clip-rule="evenodd" d="M59.1306 109.783C59.6858 116.609 60.241 123.434 60.7962 130.26C60.825 130.613 61.1355 130.877 61.4893 130.848C61.8425 130.819 62.1065 130.509 62.0776 130.155C61.5224 123.329 60.9672 116.504 60.412 109.679C60.3831 109.326 60.0727 109.062 59.7189 109.09C59.3657 109.119 59.1017 109.43 59.1306 109.783Z" fill="black"/>
<path fill-rule="evenodd" clip-rule="evenodd" d="M138.162 179.66C133.42 179.408 128.604 180.872 124.804 183.721C124.521 183.934 124.463 184.337 124.676 184.621C124.889 184.905 125.292 184.962 125.576 184.749C129.137 182.079 133.649 180.707 138.094 180.943C138.448 180.962 138.751 180.69 138.77 180.336C138.788 179.982 138.516 179.679 138.162 179.66Z" fill="black"/>
<path fill-rule="evenodd" clip-rule="evenodd" d="M134.424 186.913C136.65 188.42 138.089 191.027 138.18 193.712C138.191 194.067 138.489 194.345 138.843 194.333C139.198 194.321 139.477 194.024 139.464 193.669C139.36 190.58 137.705 187.582 135.145 185.848C134.852 185.649 134.451 185.726 134.253 186.02C134.054 186.314 134.131 186.713 134.424 186.913Z" fill="black"/>
<path fill-rule="evenodd" clip-rule="evenodd" d="M142.62 192.84C142.618 192.855 142.618 192.869 142.617 192.884C142.615 193.02 142.613 193.156 142.613 193.292L143.898 193.323C144.042 190.051 142.281 186.763 139.479 185.067C139.176 184.884 138.78 184.981 138.596 185.284C138.413 185.588 138.51 185.983 138.813 186.167C141.101 187.552 142.582 190.171 142.62 192.84Z" fill="black"/>
<path fill-rule="evenodd" clip-rule="evenodd" d="M144.932 185.739C147.41 187.164 149.178 189.761 149.596 192.589C149.648 192.94 149.975 193.182 150.326 193.131C150.677 193.079 150.92 192.752 150.868 192.401C150.394 189.191 148.385 186.243 145.573 184.624C145.265 184.447 144.872 184.553 144.695 184.861C144.518 185.168 144.624 185.562 144.932 185.739Z" fill="black"/>
<path fill-rule="evenodd" clip-rule="evenodd" d="M56.0609 193.007C55.9802 191.419 56.4782 189.808 57.4422 188.543C58.4057 187.278 59.8282 186.37 61.3806 186.027C61.7269 185.95 61.946 185.607 61.8696 185.261C61.7926 184.914 61.4495 184.695 61.1027 184.772C59.257 185.18 57.5657 186.26 56.4194 187.764C55.2737 189.268 54.6806 191.184 54.7773 193.073C54.7955 193.427 55.0974 193.7 55.4517 193.682C55.806 193.664 56.079 193.362 56.0609 193.007Z" fill="black"/>
<path fill-rule="evenodd" clip-rule="evenodd" d="M66.5204 185.304C64.0575 186.984 62.5361 189.962 62.6205 192.943C62.6301 193.298 62.9262 193.577 63.281 193.567C63.6358 193.558 63.9153 193.262 63.9052 192.907C63.8336 190.355 65.1358 187.804 67.245 186.366C67.5379 186.167 67.6137 185.766 67.4139 185.473C67.214 185.18 66.8138 185.104 66.5204 185.304Z" fill="black"/>
<path fill-rule="evenodd" clip-rule="evenodd" d="M73.5127 185.448C71.3191 187.258 70.1547 190.238 70.541 193.056C70.5896 193.407 70.914 193.653 71.2656 193.605C71.6167 193.556 71.8631 193.232 71.815 192.88C71.4874 190.495 72.4733 187.972 74.3303 186.44C74.6044 186.215 74.6429 185.809 74.4174 185.535C74.1919 185.261 73.7863 185.223 73.5127 185.448Z" fill="black"/>
<path fill-rule="evenodd" clip-rule="evenodd" d="M64.1157 181.135C68.6098 181.25 73.0825 182.138 77.279 183.748C77.6103 183.876 77.9823 183.71 78.1094 183.379C78.2366 183.047 78.0709 182.675 77.7396 182.548C73.4064 180.885 68.7883 179.969 64.1488 179.85C63.794 179.841 63.499 180.122 63.49 180.476C63.4809 180.831 63.7614 181.126 64.1157 181.135Z" fill="black"/>
<path fill-rule="evenodd" clip-rule="evenodd" d="M100.382 75.3301C101.022 74.5857 101.907 74.0962 102.808 73.7093C104.623 72.9297 106.649 72.5251 108.589 72.896C110.456 73.2524 112.227 74.4013 113.031 76.1226C113.182 76.4437 113.565 76.5827 113.886 76.4325C114.207 76.2818 114.346 75.8992 114.196 75.5775C113.219 73.4897 111.095 72.0656 108.831 71.6327C106.641 71.2148 104.349 71.6482 102.3 72.5283C101.22 72.9922 100.174 73.6003 99.4073 74.4922C99.176 74.761 99.2064 75.1671 99.4757 75.3985C99.7445 75.6299 100.151 75.5994 100.382 75.3301Z" fill="black"/>
<path fill-rule="evenodd" clip-rule="evenodd" d="M96.171 82.56C94.3397 80.6694 91.7309 79.5558 89.0985 79.5408C86.4662 79.5264 83.8451 80.6106 81.9929 82.4809C81.7433 82.7326 81.7455 83.1403 81.9977 83.3899C82.2494 83.6394 82.6571 83.6373 82.9067 83.3851C84.5184 81.7574 86.8002 80.8142 89.091 80.8265C91.3824 80.8393 93.6535 81.8087 95.2476 83.4546C95.4945 83.7094 95.9017 83.7159 96.1566 83.469C96.4115 83.2221 96.4179 82.8149 96.171 82.56Z" fill="black"/>
<path fill-rule="evenodd" clip-rule="evenodd" d="M109.993 93.527C111.003 92.2557 112.587 91.459 114.21 91.405C115.834 91.351 117.467 92.0404 118.56 93.2422C118.799 93.5045 119.205 93.5243 119.468 93.2854C119.73 93.0466 119.75 92.6399 119.511 92.3776C118.168 90.9011 116.162 90.0536 114.167 90.1204C112.174 90.1861 110.227 91.1656 108.986 92.7276C108.765 93.0049 108.812 93.41 109.09 93.6306C109.367 93.8513 109.772 93.8049 109.993 93.527Z" fill="black"/>
</svg>
