<svg width="191" height="190" viewBox="0 0 191 190" fill="none" xmlns="http://www.w3.org/2000/svg">
<path d="M110.484 184.044C110.71 184.908 110.937 185.774 111.163 186.639C108.863 185.715 106.652 184.571 104.569 183.227C105.754 185.85 107.801 188.075 110.316 189.475C109.606 188.547 108.896 187.618 108.187 186.69C109.743 187.89 111.606 188.691 113.548 188.994C112.895 188.388 112.328 187.689 111.867 186.927C113.976 188.283 116.349 189.228 118.812 189.695C117.461 189.425 115.816 188.196 114.561 187.539C112.936 186.687 111.499 185.596 110.484 184.044Z" fill="#9BA536"/>
<path d="M29.6396 59.7053C28.2165 58.8498 26.8121 57.8843 25.195 57.5069C23.5779 57.1291 21.6497 57.4964 20.7102 58.8657C19.4746 60.6658 20.4652 63.1064 21.5347 65.0101C25.8986 72.7765 31.3329 79.9406 37.636 86.2364C40.5781 89.1753 44.3032 92.1211 48.4198 91.5307C47.8919 91.6064 48.7944 68.7758 48.3942 66.9009C47.9448 64.7979 48.1109 65.2063 45.6994 64.9589C43.8136 64.7659 41.9465 64.4689 40.1045 64.0149C36.4282 63.1087 32.8847 61.6568 29.6396 59.7053Z" fill="#633B97"/>
<path d="M29.401 50.8611C29.6446 49.8486 29.8883 48.7924 29.657 47.7771C29.4256 46.7619 28.5632 45.8087 27.5225 45.8425C26.233 45.884 25.4696 47.2638 24.9682 48.4524C24.1473 50.3966 23.3269 52.3413 22.5065 54.2855C19.872 50.5741 17.0645 46.7122 12.967 44.731C12.4003 44.4568 11.7921 44.2181 11.1633 44.2441C10.5346 44.2697 9.8821 44.6206 9.6754 45.2151C9.39752 46.0131 9.98112 46.8308 10.5277 47.4746C12.4282 49.714 14.3286 51.9539 16.2285 54.1934C14.3482 55.1694 12.0253 54.2536 10.3352 52.9751C8.64512 51.697 7.1841 50.0339 5.21022 49.2637C4.31591 48.9142 3.2181 48.7965 2.46295 49.3892C1.57319 50.0882 1.57319 51.5077 2.15312 52.4787C2.73397 53.4496 3.7346 54.0784 4.69827 54.6706C7.02988 56.1025 9.36103 57.5352 11.6922 58.967C12.352 59.3722 13.0934 59.9197 13.0738 60.6931C13.0537 61.4912 12.1717 62.0305 11.3737 62.0259C10.5752 62.0214 9.8342 61.6454 9.0827 61.3748C7.253 60.716 5.20884 60.6689 3.35131 61.2443C2.58795 61.4802 1.83098 61.8384 1.32405 62.4558C0.81712 63.0726 0.622749 63.9971 1.02793 64.6851C1.46277 65.4239 2.39359 65.6716 3.23086 65.8537C8.12267 66.9187 13.014 67.9836 17.9058 69.0486C19.8035 69.462 21.8002 69.8726 23.6605 69.3128C27.673 68.1054 27.7232 64.4091 27.5713 60.9413C27.4221 57.527 28.6121 54.1477 29.401 50.8611Z" fill="#633B97"/>
<path d="M167.63 58.1573C168.671 57.3049 169.698 56.3696 170.972 55.9347C172.246 55.4999 173.864 55.7212 174.617 56.8368C175.296 57.8415 175.071 59.1826 174.78 60.3593C171.994 71.6222 165.382 81.9027 156.29 89.1102C154.212 90.7578 151.475 92.3156 149.045 91.2547C146.93 90.3321 146.055 87.8367 145.563 85.5827C144.575 81.0522 141.693 67.9418 147.582 65.9762C150.971 64.845 154.692 64.9509 158.135 63.6368C161.564 62.3286 164.789 60.483 167.63 58.1573Z" fill="#633B97"/>
<path d="M169.182 71.2021C168.758 71.1533 168.496 70.7039 168.414 70.2841C168.184 69.0914 169.19 65.9243 170.815 67.3292C171.455 67.8817 171.405 68.5392 171.071 69.2451C170.772 69.8762 170.049 71.3025 169.182 71.2021Z" fill="#7E5DA7"/>
<path d="M163.952 75.1779C163.756 75.3344 163.52 75.4813 163.271 75.4462C163.052 75.4151 162.871 75.2408 162.781 75.0378C162.692 74.8347 162.679 74.6061 162.687 74.3844C162.722 73.4312 163.124 72.4958 163.792 71.815C164.564 71.0288 165.91 70.8171 165.656 72.2229C165.448 73.3742 164.874 74.4437 163.952 75.1779Z" fill="#7E5DA7"/>
<path d="M163.214 81.8165C162.9 82.0752 162.473 82.2965 162.101 82.1309C161.703 81.9529 161.599 81.4314 161.643 80.997C161.741 80.0311 163.041 77.7962 164.32 78.4674C165.544 79.1094 163.83 81.3087 163.214 81.8165Z" fill="#7E5DA7"/>
<path d="M167.103 76.2937C166.933 76.4565 166.685 76.6181 166.481 76.5022C166.3 76.3995 166.283 76.1495 166.303 75.9428C166.373 75.2424 167.023 73.1112 168.049 73.4602C169.316 73.8905 167.558 75.857 167.103 76.2937Z" fill="#7E5DA7"/>
<path d="M164.222 45.0347C164.415 43.952 164.938 42.6652 166.033 42.569C167.42 42.4476 168.056 44.3051 167.901 45.6881C167.747 47.0716 167.36 48.6918 168.335 49.6852C169.185 50.5512 170.677 50.3878 171.694 49.7249C172.71 49.0614 173.408 48.0238 174.227 47.1268C176.039 45.1401 178.46 43.8338 180.831 42.5649C181.451 42.2322 182.148 41.8896 182.831 42.0616C183.82 42.3107 184.252 43.5942 183.91 44.5556C183.568 45.517 182.691 46.1827 181.798 46.6773C180.905 47.1715 179.938 47.5621 179.175 48.2401C178.217 49.0915 177.754 50.7994 178.775 51.5755C179.216 51.9109 179.816 51.9657 180.362 51.8726C181.621 51.6577 182.646 50.762 183.532 49.8426C184.419 48.9232 185.273 47.9175 186.424 47.3645C187.576 46.8119 189.141 46.8621 189.935 47.8623C191.072 49.2937 189.856 51.492 188.245 52.3567C186.634 53.2213 184.706 53.3665 183.12 54.274C181.532 55.1816 180.434 57.478 181.682 58.8136C182.494 59.6828 183.881 59.6782 185.029 59.3666C186.177 59.0554 187.283 58.501 188.472 58.4837C189.662 58.4663 190.999 59.2616 191 60.4512C191.001 61.2875 190.36 61.9756 189.717 62.5108C186.771 64.9606 182.824 66.1693 179.011 65.7892C168.701 64.7612 162.484 54.8256 164.222 45.0347Z" fill="#633B97"/>
<path d="M84.2936 183.684C84.7654 184.72 85.8149 185.957 86.7813 185.355C87.3512 185 87.4201 184.211 87.4274 183.54C87.5766 169.486 87.7258 155.432 87.875 141.378C80.4586 141.698 72.9131 140 65.7024 140.243C64.7721 143.442 66.7733 145.481 68.1216 148.19C70.1014 152.166 71.8161 156.299 73.6577 160.341C77.203 168.122 80.7483 175.903 84.2936 183.684Z" fill="#633B97"/>
<path d="M76.2795 175.493C70.3971 175.415 64.3915 179.356 63.082 185.091C68.5752 186.185 74.2253 186.103 79.8262 186.017C82.7391 185.973 86.1817 186.432 89.0331 185.863C91.6247 185.346 90.7176 183.245 89.3812 181.725C86.1681 178.069 81.1622 175.559 76.2795 175.493Z" fill="#633B97"/>
<path d="M102.795 183.684C102.323 184.72 101.274 185.957 100.308 185.355C99.7373 185 99.6685 184.211 99.6612 183.54C99.5124 169.486 99.3627 155.432 99.214 141.378C106.63 141.698 114.176 140 121.387 140.243C122.317 143.442 120.316 145.481 118.967 148.19C116.987 152.166 115.273 156.299 113.431 160.341C109.886 168.122 106.34 175.903 102.795 183.684Z" fill="#633B97"/>
<path d="M114.052 175.493C119.935 175.415 125.941 179.356 127.25 185.091C121.757 186.185 116.107 186.103 110.506 186.017C107.593 185.973 104.151 186.432 101.299 185.863C98.7077 185.346 99.6148 183.245 100.951 181.725C104.164 178.069 109.17 175.559 114.052 175.493Z" fill="#633B97"/>
<path d="M174.705 27.797C175.639 28.9486 174.608 30.6661 173.152 30.3864C170.769 29.9287 168.284 30.0031 165.931 30.5953C165.812 26.8995 165.105 23.2223 163.835 19.75C168.06 21.4592 171.834 24.2585 174.705 27.797Z" fill="#F26532"/>
<path d="M162.595 19.414C162.932 19.5345 163.259 19.6764 163.591 19.8105C164.861 23.2829 165.568 26.96 165.688 30.6559C164.745 30.8927 163.822 31.2044 162.938 31.6109C162.358 31.8769 161.797 32.1808 161.255 32.5153C160.206 27.1325 157.748 22.0231 154.159 17.875C157.029 17.9361 159.89 18.4481 162.595 19.414Z" fill="#B24C27"/>
<path d="M144.73 19.7543C146.511 18.3431 149.867 18.1427 152.003 17.9666C152.947 17.8891 153.895 17.8612 154.841 17.8813C158.431 22.0294 160.889 27.1388 161.938 32.5216C158.308 34.7624 155.58 38.4546 154.576 42.6059C154.244 43.9761 154.073 45.4316 153.115 46.534C152.611 47.1139 151.893 47.5095 151.125 47.4758C149.846 47.4197 149.218 46.3022 148.733 45.2756C145.919 39.3152 144.181 32.8528 143.595 26.2892C143.406 24.1597 142.811 21.2765 144.73 19.7543Z" fill="#F26532"/>
<path d="M18.9166 30.0031C21.3267 26.0439 24.7671 22.7172 28.8125 20.4531C27.6864 24.0313 27.0403 27.7591 26.8893 31.5079C24.8319 31.4167 22.7558 31.7041 20.8034 32.3603C19.398 32.833 18.1455 31.2697 18.9166 30.0031Z" fill="#F26532"/>
<path d="M40.8665 17.041C43.0074 16.9288 46.3601 16.6765 48.3139 17.8359C50.4206 19.0866 50.218 22.0232 50.3161 24.1595C50.6172 30.7424 49.7626 37.3795 47.7746 43.6634C47.4324 44.7457 46.9592 45.938 45.6999 46.1652C44.9434 46.3017 44.1791 46.0064 43.6014 45.499C42.5032 44.5354 42.1391 43.1159 41.6267 41.8031C40.3933 38.6429 38.1215 35.9162 35.2866 34.0586C35.7429 28.1338 37.4622 22.3075 40.2989 17.0862C40.4882 17.0721 40.6771 17.0511 40.8665 17.041Z" fill="#F26532"/>
<path d="M29.6538 20.0816C32.8765 18.4125 36.4455 17.4374 40.0625 17.1719C37.2258 22.3931 35.5065 28.2194 35.0502 34.1443C33.7822 33.3143 32.4024 32.6568 30.9519 32.2138C29.6693 31.8223 28.3392 31.6064 27.0014 31.5471C27.1524 27.7983 27.7985 24.0704 28.9246 20.4923C29.1683 20.3563 29.406 20.2098 29.6538 20.0816Z" fill="#B24C27"/>
<path d="M41.9217 28.68C41.955 28.3556 41.9942 28.0307 42.0399 27.7063C42.5892 23.7845 44.0325 19.9207 46.7391 17.0493C53.7892 9.5704 66.6189 10.1718 76.027 9.66393C88.3475 8.99867 100.696 8.5611 113.031 9.08035C124.433 9.5599 141.974 9.55123 150.447 18.7248C161.184 33.2031 153.882 85.1158 153.954 104.941C153.709 116.069 154.302 127.282 154.474 138.412C155.367 146.097 151.335 151.592 143.415 151.407C138.143 151.87 132.863 152.256 127.579 152.571C127.649 152.492 127.72 152.414 127.782 152.328C128.342 151.557 128.522 150.582 128.663 149.64C130.215 139.219 129.211 127.881 123.82 118.65C118.496 109.534 108.966 102.835 98.488 101.539C88.0099 100.243 76.8625 104.635 70.5658 113.109C62.0885 124.517 63.2757 139.442 64.0605 152.807C61.347 152.666 58.634 152.512 55.9227 152.332C52.9893 152.137 49.8085 151.815 47.6649 149.802C41.0018 139.38 46.0971 125.265 45.0217 113.513C43.6419 98.4347 43.7304 83.0621 43.2002 67.9313C42.9301 60.2155 42.6746 52.4993 42.4277 44.7827C42.2571 39.451 41.3714 34.0222 41.9217 28.68Z" fill="#633B97"/>
<path d="M133.758 50.8008C134.077 52.6429 132.973 54.6573 131.217 55.3012C129.462 55.9445 127.265 55.0662 126.51 53.356C126.04 52.2929 126.116 51.0509 126.487 49.9494C127.815 46.0026 133.086 46.9311 133.758 50.8008Z" fill="#7E5DA7"/>
<path d="M143.986 42.7952C144.393 44.1129 143.879 45.662 142.765 46.4751C141.651 47.2877 140.018 47.3042 138.888 46.5143C137.758 45.7241 137.212 44.1855 137.593 42.86C137.922 41.7101 139.273 39.8695 140.631 40.0337C141.966 40.1952 143.596 41.5331 143.986 42.7952Z" fill="#7E5DA7"/>
<path d="M145.685 57.8138C145.286 58.7433 144.546 59.5418 143.607 59.9182C142.668 60.2942 141.535 60.2125 140.712 59.6244C139.954 59.0832 139.523 58.1944 139.245 57.3055C138.535 55.0269 139.451 51.4386 142.503 51.6325C145.31 51.8114 146.66 55.5424 145.685 57.8138Z" fill="#7E5DA7"/>
<path d="M128.185 61.0054C128.115 62.252 126.993 63.3494 125.745 63.3913C125.056 63.4146 124.327 63.1103 123.987 62.5116C123.666 61.9481 123.736 61.2423 123.921 60.6203C124.213 59.6371 125.185 58.2459 126.375 58.4402C127.459 58.6173 128.241 59.9957 128.185 61.0054Z" fill="#7E5DA7"/>
<path d="M71.8074 49.5778C72.2317 51.126 71.5993 52.9744 70.1835 53.73C69.0058 54.3583 67.4513 54.1306 66.452 53.2459C64.5986 51.6046 65.0576 48.7528 66.8179 47.2448C68.8023 45.5447 71.2179 47.4269 71.8074 49.5778Z" fill="#7E5DA7"/>
<path d="M61.5583 45.7255C61.9014 47.4804 60.8871 49.3731 59.2888 50.1748C58.4223 50.6092 57.3728 50.7433 56.4758 50.3756C55.4925 49.9727 54.8072 49.0058 54.5722 47.9686C54.3372 46.932 54.5083 45.8364 54.8688 44.8362C56.0984 41.4273 60.9145 42.4343 61.5583 45.7255Z" fill="#7E5DA7"/>
<path d="M62.8373 60.1262C61.6715 60.7906 60.0654 60.6008 59.1277 59.6417C57.1283 57.5961 58.8571 53.4252 61.8403 53.887C64.8134 54.3469 65.3537 58.6912 62.8373 60.1262Z" fill="#7E5DA7"/>
<path d="M53.9242 54.5541C54.1655 55.3426 54.2335 56.2255 53.8781 56.9687C53.3972 57.9748 52.2359 58.5064 51.123 58.573C50.2041 58.6282 49.2391 58.4019 48.5441 57.7974C46.75 56.2364 47.6275 53.3778 49.3207 52.1057C51.2275 50.673 53.3643 52.7262 53.9242 54.5541Z" fill="#7E5DA7"/>
<path d="M70.3652 113.106C76.6619 104.632 87.8094 100.241 98.2875 101.536C108.766 102.833 118.295 109.531 123.619 118.648C129.011 127.878 130.015 139.216 128.462 149.637C128.322 150.58 128.142 151.555 127.582 152.326C127.519 152.412 127.449 152.49 127.379 152.568C106.232 153.83 85.0156 153.906 63.86 152.805C63.0752 139.439 61.8879 124.514 70.3652 113.106Z" fill="#7E5DA7"/>
<path d="M140.314 4.80936C143.744 6.18049 146.213 8.06129 143.959 10.3044C145.098 9.17142 147.328 9.96445 147.774 11.508C148.221 13.0512 147.122 14.7586 145.619 15.3258C144.117 15.8934 142.384 15.4996 141.016 14.6587C142.114 15.0634 142.171 16.7599 141.352 17.5967C140.534 18.4331 139.258 18.5991 138.088 18.606C134.641 18.627 131.193 17.6656 128.252 15.8642C123.808 18.8642 117.386 18.512 113.295 15.0442C109.271 18.8118 102.024 18.2273 98.6552 13.8629C95.0432 17.8075 87.9718 17.7468 84.4278 13.7411C83.2853 15.7775 81.0477 17.1536 78.7161 17.2536C76.3845 17.3535 74.0374 16.174 72.7246 14.243C71.6104 16.2771 69.4485 17.698 67.1406 17.9129C64.8323 18.1278 62.4455 17.1308 60.9749 15.3376C58.558 16.926 55.9275 18.5768 53.0388 18.4518C50.15 18.3272 47.2476 15.4791 48.2259 12.756C45.9518 13.8013 45.3595 10.5909 46.0741 9.21888C46.8662 7.69763 48.5147 6.50765 50.0095 5.76026C52.1276 4.70123 54.4911 4.25452 56.8264 3.8612C81.1344 -0.233022 106.001 0.254752 130.564 2.33221C131.734 2.43122 136.59 3.32005 140.314 4.80936Z" fill="#CDDD44"/>
<path d="M130.448 77.6419C128.28 76.5409 125.832 78.1338 124.783 80.0292C123.986 81.4697 123.749 83.1565 123.725 84.8033C121.684 83.0571 118.571 82.6902 116.18 83.914C113.789 85.1382 112.266 87.8786 112.489 90.5552C111.972 87.8188 108.591 86.3145 105.927 87.1267C103.263 87.9388 101.409 90.4498 100.561 93.1022C100.226 90.2504 97.5455 87.869 94.6736 87.8727C91.8018 87.8763 89.1275 90.2645 88.7994 93.1177C87.4169 91.0425 85.9144 88.8637 83.6334 87.8567C81.3524 86.8497 78.0987 87.6395 77.3988 90.0327C76.5902 87.9749 75.7301 85.8413 74.0953 84.3538C72.4595 82.8663 69.8048 82.2494 68.0281 83.5644C68.1508 81.8484 68.2704 80.0953 67.8369 78.4303C67.4034 76.7649 66.3106 75.1729 64.6872 74.6021C63.1691 74.0687 61.2254 74.7303 60.5925 76.1713C60.9949 74.854 60.4478 73.2812 59.2775 72.5379C58.4457 72.0095 57.3684 71.9461 56.4472 72.2842C55.8184 69.1263 55.7924 65.862 56.5088 62.6406C56.7095 62.7342 56.9121 62.8241 57.1138 62.9162C57.0978 63.0303 57.0819 63.1444 57.0659 63.258C56.8587 64.7327 56.6949 66.2777 57.2037 67.6771C57.712 69.077 59.0982 70.2711 60.5724 70.0616C62.2388 69.8253 63.2084 68.0056 63.4342 66.3374C63.9439 68.5281 64.4937 70.7775 65.806 72.604C67.1178 74.4306 69.3919 75.7515 71.5898 75.2765C74.0725 74.7395 75.507 72.2906 76.5638 69.9161C75.4285 73.0731 77.2276 77.0902 80.4513 78.1703C83.9186 79.3315 88.1241 76.7877 88.7054 73.1771C89.5121 76.4473 92.7481 78.9455 96.1155 78.898C99.4833 78.851 102.648 76.2634 103.363 72.9718C102.833 74.9233 103.998 77.1108 105.812 78.0028C107.626 78.8953 109.897 78.5823 111.578 77.4612C113.261 76.3397 114.385 74.5054 114.926 72.5575C114.746 74.4976 116.183 76.4049 118.054 76.9488C119.924 77.4927 122.05 76.7512 123.335 75.287C124.619 73.8228 125.09 71.7385 124.77 69.8171C125.29 70.934 125.831 72.0798 126.73 72.9235C127.628 73.7676 128.98 74.2489 130.121 73.7835C131.206 73.3409 131.815 72.2039 132.302 71.138C132.708 70.2501 134.995 65.7835 134.454 64.73C134.869 64.4594 135.282 64.1861 135.688 63.8968C135.675 69.1609 134.119 74.337 131.497 78.971C131.332 78.3925 131.005 77.9248 130.448 77.6419Z" fill="black"/>
<path d="M132.516 71.158C132.029 72.2239 131.42 73.361 130.335 73.8036C129.194 74.269 127.842 73.7876 126.944 72.9435C126.045 72.0998 125.504 70.9541 124.983 69.8371C125.304 71.7585 124.833 73.8428 123.548 75.307C122.264 76.7712 120.138 77.5127 118.267 76.9688C116.397 76.4249 114.96 74.5176 115.14 72.5775C114.598 74.5254 113.475 76.3597 111.792 77.4812C110.11 78.6023 107.84 78.9153 106.026 78.0228C104.212 77.1308 103.047 74.9434 103.577 72.9918C102.862 76.2835 99.6972 78.871 96.3294 78.918C92.962 78.9655 89.7261 76.4673 88.9194 73.1972C88.3381 76.8077 84.1325 79.3515 80.6652 78.1903C77.4416 77.1102 75.6425 73.0931 76.7777 69.9361C76.8197 69.8421 76.8612 69.7486 76.9018 69.655C87.091 72.0747 97.6362 73 108.089 72.3466C117.389 71.7649 126.893 69.8239 134.668 64.75C135.209 65.8036 132.922 70.2701 132.516 71.158Z" fill="#FDFCFD"/>
<path d="M120.232 91.5044C111.091 97.5884 99.5474 99.5135 88.6728 97.9954C79.8004 96.7566 71.0507 93.1808 64.7809 86.7823C60.8213 82.7415 57.9659 77.6389 56.8872 72.2246C57.8084 71.8865 58.8857 71.95 59.7175 72.4783C60.8879 73.2216 61.435 74.7944 61.0325 76.1117C60.9887 76.2116 60.9504 76.3148 60.9198 76.422C60.9646 76.3207 61.0006 76.2171 61.0325 76.1117C61.6654 74.6708 63.6092 74.0092 65.1272 74.5425C66.7507 75.1134 67.8435 76.7053 68.2769 78.3708C68.7104 80.0357 68.5909 81.7888 68.4681 83.5048C70.2449 82.1898 72.8995 82.8067 74.5353 84.2942C76.1702 85.7817 77.0303 87.9153 77.8388 89.9731C78.5387 87.5799 81.7925 86.7901 84.0734 87.7971C86.3544 88.8041 87.8569 90.9828 89.2395 93.058C89.5676 90.2049 92.2418 87.8167 95.1137 87.8131C97.9855 87.8094 100.666 90.1907 101.002 93.0425C101.849 90.3901 103.703 87.8792 106.367 87.067C109.031 86.2548 112.412 87.7592 112.929 90.4955C112.706 87.819 114.229 85.0786 116.62 83.8544C119.011 82.6306 122.124 82.9974 124.165 84.7436C124.189 83.0969 124.426 81.41 125.223 79.9696C126.272 78.0742 128.72 76.4813 130.888 77.5823C131.445 77.8652 131.772 78.3329 131.938 78.9114C129.092 83.9438 124.99 88.3373 120.232 91.5044Z" fill="#FDFCFD"/>
<path d="M77.9471 26.0091C78.0041 26.0725 78.0598 26.1368 78.115 26.2021C82.6258 31.5483 80.1555 41.1937 72.7395 42.1359C69.348 42.5666 65.8109 40.8711 63.9027 38.0348C60.2907 32.6662 62.804 24.2437 69.5328 23.0446C72.5912 22.4993 75.876 23.6957 77.9471 26.0091Z" fill="#FDFCFD"/>
<path d="M75.3526 28.052C76.111 28.961 76.4495 30.1546 76.5732 31.3318C76.7037 32.5757 76.6065 33.8733 76.0653 35.0008C74.9693 37.2818 71.9894 38.4161 69.6277 37.5081C67.2655 36.6001 65.8154 33.8305 66.342 31.3551C67.0844 27.8659 72.6268 24.7823 75.3526 28.052Z" fill="black"/>
<path d="M69.7347 28.6132C69.9287 29.0964 70.0674 29.6097 70.0624 30.1303C70.0569 30.6509 69.8963 31.1816 69.5504 31.5704C68.9381 32.2575 67.8174 32.3538 67.0198 31.8948C66.2223 31.4357 65.7518 30.5195 65.6911 29.601C65.6523 29.0147 65.771 28.4033 66.1127 27.9251C67.1444 26.4837 69.1635 27.1869 69.7347 28.6132Z" fill="#FDFCFD"/>
<path d="M103.259 26.0091C103.316 26.0725 103.372 26.1368 103.427 26.2021C107.938 31.5483 105.468 41.1937 98.0518 42.1359C94.6607 42.5666 91.1236 40.8711 89.2154 38.0348C85.603 32.6662 88.1162 24.2437 94.8455 23.0446C97.9039 22.4993 101.188 23.6957 103.259 26.0091Z" fill="#FDFCFD"/>
<path d="M100.665 28.052C101.423 28.961 101.762 30.1546 101.886 31.3318C102.016 32.5757 101.919 33.8733 101.377 35.0008C100.282 37.2818 97.3019 38.4161 94.9397 37.5081C92.578 36.6001 91.1274 33.8305 91.654 31.3551C92.3968 27.8659 97.9388 24.7823 100.665 28.052Z" fill="black"/>
<path d="M95.9852 28.6132C96.1786 29.0964 96.3178 29.6097 96.3123 30.1303C96.3073 30.6509 96.1467 31.1816 95.8004 31.5704C95.1885 32.2575 94.0679 32.3538 93.2698 31.8948C92.4722 31.4357 92.0023 30.5195 91.9411 29.601C91.9023 29.0147 92.0214 28.4033 92.3632 27.9251C93.3948 26.4837 95.4135 27.1869 95.9852 28.6132Z" fill="#FDFCFD"/>
<path d="M128.572 26.0091C128.629 26.0725 128.685 26.1368 128.74 26.2021C133.251 31.5483 130.781 41.1937 123.364 42.1359C119.973 42.5666 116.436 40.8711 114.528 38.0348C110.916 32.6662 113.429 24.2437 120.158 23.0446C123.216 22.4993 126.501 23.6957 128.572 26.0091Z" fill="#FDFCFD"/>
<path d="M125.977 28.052C126.736 28.961 127.074 30.1546 127.198 31.3318C127.329 32.5757 127.231 33.8733 126.69 35.0008C125.594 37.2818 122.615 38.4161 120.252 37.5081C117.89 36.6001 116.44 33.8305 116.967 31.3551C117.71 27.8659 123.252 24.7823 125.977 28.052Z" fill="black"/>
<path d="M121.298 28.6132C121.491 29.0964 121.63 29.6097 121.625 30.1303C121.619 30.6509 121.459 31.1816 121.113 31.5704C120.501 32.2575 119.38 32.3538 118.582 31.8948C117.785 31.4357 117.314 30.5195 117.254 29.601C117.214 29.0147 117.333 28.4033 117.675 27.9251C118.707 26.4837 120.726 27.1869 121.298 28.6132Z" fill="#FDFCFD"/>
<path d="M117.322 47.5716C117.379 47.635 117.435 47.6993 117.49 47.7646C122.001 53.1109 119.531 62.7563 112.114 63.6985C108.723 64.1292 105.186 62.4341 103.278 59.5979C99.6657 54.2288 102.179 45.8062 108.908 44.6071C111.966 44.0618 115.251 45.2582 117.322 47.5716Z" fill="#FDFCFD"/>
<path d="M113.79 49.4973C114.548 50.4067 114.887 51.5999 115.011 52.7776C115.141 54.021 115.044 55.3191 114.503 56.4461C113.407 58.7271 110.427 59.8614 108.065 58.9534C105.703 58.0454 104.253 55.2758 104.779 52.8009C105.522 49.3112 111.064 46.2276 113.79 49.4973Z" fill="black"/>
<path d="M109.11 50.0588C109.304 50.542 109.443 51.0549 109.437 51.5755C109.432 52.0961 109.272 52.6268 108.925 53.0155C108.313 53.7027 107.192 53.799 106.395 53.34C105.597 52.8809 105.127 51.9647 105.066 51.0462C105.027 50.4604 105.146 49.8485 105.488 49.3708C106.52 47.9289 108.538 48.632 109.11 50.0588Z" fill="#FDFCFD"/>
<path d="M88.2593 47.5716C88.3163 47.635 88.3725 47.6993 88.4272 47.7646C92.9385 53.1109 90.4682 62.7563 83.0517 63.6985C79.6602 64.1292 76.1231 62.4341 74.2149 59.5979C70.603 54.2288 73.1162 45.8062 79.8454 44.6071C82.9035 44.0618 86.1882 45.2582 88.2593 47.5716Z" fill="#FDFCFD"/>
<path d="M85.6651 49.4973C86.423 50.4067 86.762 51.5999 86.8857 52.7776C87.0162 54.021 86.919 55.3191 86.3774 56.4461C85.2814 58.7271 82.3019 59.8614 79.9397 58.9534C77.5775 58.0454 76.1275 55.2758 76.6545 52.8009C77.3968 49.3112 82.9388 46.2276 85.6651 49.4973Z" fill="black"/>
<path d="M80.9847 50.0588C81.1787 50.542 81.3178 51.0549 81.3123 51.5755C81.3069 52.0961 81.1467 52.6268 80.8004 53.0155C80.1881 53.7027 79.0679 53.799 78.2698 53.34C77.4722 52.8809 77.0023 51.9647 76.9411 51.0462C76.9023 50.4604 77.0214 49.8485 77.3632 49.3708C78.3948 47.9289 80.4135 48.632 80.9847 50.0588Z" fill="#FDFCFD"/>
<path fill-rule="evenodd" clip-rule="evenodd" d="M23.0747 54.9882C22.3182 58.3926 23.0195 62.0957 24.9687 64.9877C25.138 65.2386 25.0719 65.5799 24.8205 65.7492C24.5695 65.9189 24.2282 65.8523 24.0589 65.6009C21.9436 62.4626 21.1821 58.4446 22.0034 54.7501C22.0691 54.4544 22.3625 54.2678 22.6581 54.3335C22.9538 54.3992 23.1404 54.6926 23.0747 54.9882Z" fill="black"/>
<path fill-rule="evenodd" clip-rule="evenodd" d="M160.877 65.6982C161.076 67.2569 161.422 68.7968 161.91 70.2907C162.005 70.5786 161.847 70.8888 161.559 70.9828C161.271 71.0773 160.961 70.9199 160.867 70.6319C160.357 69.0724 159.995 67.464 159.788 65.8369C159.75 65.5362 159.963 65.2611 160.263 65.2232C160.564 65.1849 160.839 65.398 160.877 65.6982Z" fill="black"/>
<path fill-rule="evenodd" clip-rule="evenodd" d="M168.732 49.0089C168.733 49.6929 169.189 50.2915 169.689 50.7578C170.305 51.3323 171.028 51.7872 171.615 52.3922C173.263 54.0928 173.67 56.8729 172.577 58.975C172.438 59.2437 172.106 59.3482 171.837 59.2086C171.569 59.069 171.464 58.7373 171.604 58.4685C172.485 56.7725 172.157 54.529 170.826 53.1561C170.253 52.5647 169.543 52.1226 168.94 51.5609C168.221 50.8911 167.636 49.994 167.634 49.0107C167.634 48.7078 167.879 48.4614 168.182 48.4609C168.485 48.4605 168.731 48.706 168.732 49.0089Z" fill="black"/>
<path fill-rule="evenodd" clip-rule="evenodd" d="M80.7403 180.229C79.1519 180.162 77.5454 180.672 76.2856 181.642C75.0262 182.612 74.1233 184.035 73.7815 185.588C73.7163 185.884 73.4233 186.071 73.1276 186.006C72.8315 185.941 72.6444 185.648 72.7092 185.352C73.1057 183.549 74.1538 181.898 75.6158 180.772C77.0781 179.646 78.943 179.054 80.7864 179.132C81.0893 179.145 81.3248 179.401 81.312 179.703C81.2992 180.006 81.0432 180.241 80.7403 180.229Z" fill="black"/>
<path fill-rule="evenodd" clip-rule="evenodd" d="M74.39 178.783C71.4155 179.873 69.0155 182.422 68.1056 185.456C68.0189 185.746 67.7123 185.911 67.4226 185.824C67.1324 185.737 66.9672 185.431 67.0543 185.141C68.0618 181.781 70.7192 178.96 74.0122 177.752C74.2965 177.648 74.6122 177.794 74.7163 178.079C74.8208 178.363 74.6743 178.679 74.39 178.783Z" fill="black"/>
<path fill-rule="evenodd" clip-rule="evenodd" d="M107.569 179.597C109.42 179.545 111.283 180.116 112.788 181.195C114.293 182.274 115.431 183.856 115.976 185.626C116.065 185.916 115.902 186.223 115.612 186.312C115.323 186.401 115.016 186.238 114.926 185.949C114.452 184.406 113.46 183.028 112.148 182.087V182.087C110.837 181.146 109.213 180.649 107.6 180.694C107.297 180.703 107.044 180.463 107.036 180.161C107.027 179.858 107.266 179.605 107.569 179.597Z" fill="black"/>
<path fill-rule="evenodd" clip-rule="evenodd" d="M156.311 64.2792C155.736 73.2396 155.161 82.201 154.585 91.1615C154.566 91.464 154.304 91.6935 154.002 91.6739C153.7 91.6547 153.47 91.3933 153.49 91.0912C154.066 82.1307 154.641 73.1694 155.216 64.2089C155.235 63.9064 155.497 63.6769 155.799 63.6965C156.101 63.7156 156.331 63.9771 156.311 64.2792Z" fill="black"/>
<path fill-rule="evenodd" clip-rule="evenodd" d="M79.4125 24.0518C77.4646 21.8132 74.5166 20.48 71.5498 20.4964C68.5826 20.5124 65.6492 21.8776 63.7264 24.1375C63.5302 24.368 63.1834 24.3958 62.9525 24.1996C62.7221 24.0034 62.6943 23.6566 62.8905 23.4257C65.0177 20.9267 68.2623 19.4164 71.5435 19.3986C74.825 19.3804 78.0861 20.8551 80.2402 23.3308C80.4392 23.5594 80.415 23.9067 80.1868 24.1051C79.9582 24.3041 79.611 24.2799 79.4125 24.0518Z" fill="black"/>
<path fill-rule="evenodd" clip-rule="evenodd" d="M105.672 23.6542C103.604 21.4043 100.551 20.0939 97.4953 20.1463H97.4949C94.4396 20.1979 91.4323 21.6105 89.442 23.9298C89.2444 24.1593 88.8976 24.1858 88.6681 23.9887C88.4381 23.7911 88.4117 23.4444 88.6088 23.2148C90.8008 20.6615 94.112 19.1055 97.4766 19.0485C100.841 18.9915 104.204 20.4342 106.48 22.9114C106.685 23.1345 106.671 23.4818 106.448 23.6871C106.224 23.892 105.877 23.8774 105.672 23.6542Z" fill="black"/>
<path fill-rule="evenodd" clip-rule="evenodd" d="M131.903 24.4237C129.772 21.8384 126.458 20.2697 123.107 20.2619C119.756 20.2537 116.434 21.8051 114.29 24.3804C114.097 24.6131 113.75 24.6446 113.517 24.4507C113.284 24.2572 113.253 23.9109 113.447 23.6777C115.796 20.856 119.438 19.155 123.11 19.1641C126.782 19.1728 130.415 20.8921 132.75 23.7256C132.942 23.9592 132.909 24.3056 132.675 24.4981C132.442 24.6907 132.096 24.6574 131.903 24.4237Z" fill="black"/>
<path fill-rule="evenodd" clip-rule="evenodd" d="M117.837 46.3071C115.945 43.9618 113.032 42.4707 110.023 42.3078C107.014 42.1453 103.957 43.3134 101.824 45.442C101.609 45.6555 101.261 45.6555 101.047 45.4411C100.834 45.2266 100.834 44.8785 101.048 44.6645C103.399 42.3196 106.767 41.0329 110.082 41.2118C113.398 41.3911 116.607 43.0337 118.691 45.6181C118.881 45.854 118.844 46.1994 118.608 46.3897C118.372 46.58 118.027 46.543 117.837 46.3071Z" fill="black"/>
<path fill-rule="evenodd" clip-rule="evenodd" d="M90.6089 46.6902C89.0443 44.1555 86.2957 42.3879 83.3403 42.0155C80.385 41.6437 77.2836 42.6749 75.14 44.7428C74.9219 44.9531 74.5742 44.9467 74.3639 44.7286C74.1535 44.5105 74.1599 44.1628 74.378 43.9525C76.7571 41.6583 80.1979 40.5139 83.4772 40.9268C86.7565 41.3393 89.8072 43.3014 91.5434 46.1134C91.7022 46.3712 91.6223 46.7098 91.3645 46.8691C91.1067 47.0278 90.7681 46.948 90.6089 46.6902Z" fill="black"/>
</svg>
