<svg width="157" height="128" viewBox="0 0 157 128" fill="none" xmlns="http://www.w3.org/2000/svg">
<path d="M101.782 122.241C101.443 120.458 100.22 118.886 98.6519 117.952C96.9476 116.935 94.8952 116.612 92.916 116.752C91.4203 116.858 89.9485 117.237 88.5779 117.841C88.5717 117.844 88.5655 117.847 88.5586 117.851C89.5825 114.555 90.747 111.359 91.9832 108.106C93.5685 103.936 95.1531 99.7666 96.7391 95.5976C98.8148 90.1374 97.0241 90.41 91.8751 90.5722C87.398 90.7135 82.9162 90.7451 78.4375 90.6671C79.541 102.024 80.6444 113.382 81.7486 124.74C81.7764 124.745 81.805 124.751 81.8328 124.755C82.073 125.207 82.8359 125.365 83.2876 125.494C84.7254 125.907 86.2497 125.903 87.7323 125.891C87.9841 125.889 88.2358 125.887 88.4875 125.884C89.9099 126.081 91.3346 126.257 92.7639 126.393C94.3963 126.549 96.0558 126.596 97.6735 126.763C99.004 126.9 100.194 126.84 101.111 125.68C101.863 124.729 102.052 123.43 101.782 122.241Z" fill="#F26532"/>
<path d="M88.6564 117.812C87.4842 118.192 86.4803 119.061 85.9375 120.168L88.6564 117.812Z" fill="#F26532"/>
<path d="M90.625 118.633C93.0041 120.278 94.2643 123.396 93.6944 126.23L90.625 118.633Z" fill="#F26532"/>
<path d="M97.1875 118.867C98.2786 119.744 99.0879 120.968 99.4678 122.315C99.8477 123.663 99.7959 125.129 99.3234 126.447" fill="#F26532"/>
<path d="M62.4196 90.5722C57.2706 90.41 55.4799 90.1374 57.5556 95.5976C59.1417 99.7666 60.7262 103.936 62.3115 108.106C63.4574 111.122 64.3817 114.209 65.303 117.302C63.1648 116.442 60.7254 116.317 58.7123 117.44C56.5911 118.349 55.2089 120.491 55.0151 122.766C54.9324 123.744 55.1842 124.8 55.9023 125.469C56.4235 125.954 57.127 126.187 57.8119 126.381C60.0992 127.028 62.4088 126.615 64.73 126.298C66.2697 126.088 67.8049 125.841 69.3338 125.558C69.9222 125.45 71.2743 125.42 71.9832 124.994C72.3237 124.907 72.5392 124.82 72.5469 124.74C73.6503 113.382 74.7546 102.025 75.858 90.6671C71.3786 90.7451 66.8968 90.7135 62.4196 90.5722Z" fill="#F26532"/>
<path d="M65.3125 116.992C67.0654 117.518 68.6283 118.657 69.6646 120.165L65.3125 116.992Z" fill="#F26532"/>
<path d="M66.0769 119.453C63.7982 120.721 62.3542 123.357 62.5117 125.96L66.0769 119.453Z" fill="#F26532"/>
<path d="M60.9943 118.984C60.1194 119.267 59.4368 119.98 58.9959 120.786C58.5557 121.592 58.3264 122.494 58.1017 123.385C57.8971 124.195 57.6917 125.048 57.8986 125.858" fill="#F26532"/>
<path d="M48.0288 120.31C43.215 116.963 36.9842 115.727 31.2569 116.984C29.4585 117.378 27.6431 118.05 26.3751 119.385C25.108 120.721 24.5397 122.851 25.4377 124.458C26.5759 126.496 29.3226 126.838 31.6569 126.861C39.0274 126.935 46.4049 126.223 53.6249 124.74C54.7291 113.382 55.8325 102.024 56.9368 90.6667C52.4573 90.7447 47.9755 90.7131 43.4976 90.5725C38.3495 90.4096 36.5587 90.137 38.6344 95.5972C40.2197 99.7663 41.8042 103.936 43.3895 108.106C44.1632 110.141 44.9362 112.174 45.7092 114.208C46.1709 115.422 46.9979 119.593 48.0288 120.31Z" fill="#F26532"/>
<path d="M48.4375 119.922C49.4421 120.503 50.3208 121.3 50.9988 122.242L48.4375 119.922Z" fill="#F26532"/>
<path d="M40.9633 118.516C38.9525 118.78 37.0475 119.777 35.6846 121.277C34.3209 122.777 33.5101 124.769 33.4375 126.795" fill="#F26532"/>
<path d="M32.4497 118.281C30.9215 118.888 29.6088 120.024 28.7895 121.45C27.9694 122.875 27.6482 124.58 27.8922 126.207" fill="#F26532"/>
<path d="M109.845 120.31C114.659 116.963 120.889 115.727 126.617 116.984C128.415 117.378 130.23 118.05 131.498 119.385C132.766 120.721 133.333 122.851 132.436 124.458C131.298 126.496 128.551 126.838 126.217 126.861C118.847 126.935 111.469 126.223 104.249 124.74C103.145 113.382 102.041 102.024 100.938 90.6667C105.417 90.7447 109.898 90.7131 114.376 90.5725C119.525 90.4096 121.315 90.137 119.239 95.5972C117.654 99.7663 116.069 103.936 114.484 108.106C113.711 110.141 112.937 112.174 112.164 114.208C111.703 115.422 110.876 119.593 109.845 120.31Z" fill="#F26532"/>
<path d="M111.139 119.453C110.324 119.883 109.682 120.628 109.375 121.497L111.139 119.453Z" fill="#F26532"/>
<path d="M116.875 119.688C118.489 119.894 120.012 120.737 121.046 121.993C122.079 123.25 122.61 124.909 122.5 126.532" fill="#F26532"/>
<path d="M123.438 118.867C124.956 119.166 126.342 120.089 127.203 121.373C128.066 122.658 128.395 124.289 128.098 125.807" fill="#F26532"/>
<path d="M22.9492 4.20031C24.1646 2.22274 26.0889 0.0212249 28.336 0.602684C29.7414 0.965613 30.6294 2.31231 31.3699 3.56094C35.8247 11.0628 39.8748 18.804 43.4987 26.7413C43.3342 26.3791 32.993 28.1166 31.929 28.2301C27.9012 28.6579 23.8627 28.993 19.8195 29.2347C16.6427 29.4247 11.8127 30.8324 12.9949 26.278C13.937 22.6502 15.4358 19.0696 16.9454 15.6465C18.6844 11.7014 20.6905 7.87362 22.9492 4.20031Z" fill="#2DBDEE"/>
<path d="M130.233 3.70311C128.814 1.86607 126.668 -0.11922 124.495 0.696213C123.136 1.2074 122.396 2.64055 121.791 3.95945C118.157 11.8914 114.95 20.0187 112.188 28.295C112.313 27.9174 122.78 28.5498 123.85 28.5491C127.901 28.5483 131.952 28.4534 135.998 28.2657C139.176 28.1175 144.128 29.0062 142.47 24.6024C141.149 21.0944 139.279 17.6929 137.416 14.4489C135.268 10.7107 132.867 7.11619 130.233 3.70311Z" fill="#2DBDEE"/>
<path d="M12.3159 41.6351C13.9398 45.0451 17.5869 47.3918 21.3637 47.4582C25.1397 47.5238 28.8662 45.3061 30.6091 41.9548C34.9217 46.5841 43.6289 45.7146 46.9416 40.324C50.9169 45.8189 60.2017 46.2057 64.6201 41.0591C70.2501 47.2041 81.4438 46.7756 86.5873 40.2182C87.7433 43.4884 90.9618 45.9238 94.4227 46.147C97.8845 46.3709 101.389 44.3694 102.955 41.2745C105.131 44.0575 108.785 45.6096 112.299 45.2412C115.811 44.8729 119.066 42.5981 120.617 39.4251C121.863 42.2629 124.837 44.2544 127.936 44.3262C131.035 44.398 134.097 42.5471 135.474 39.7703C137.908 43.205 143.956 42.9787 146.128 39.3703C147.666 41.8305 150.556 43.3826 153.457 43.3069C154.049 43.2915 154.633 43.1926 155.206 43.0482C155.084 41.0135 154.955 39.0437 154.82 37.1866C154.527 33.1596 154.018 28.7334 151.059 25.986C148.514 23.6238 144.803 23.1296 141.348 22.796C116.422 20.3914 91.439 21.4802 66.5568 21.593C55.1291 21.6439 43.673 21.6864 32.2901 22.8107C23.5088 23.6779 12.4495 20.8594 5.44654 27.9604C1.40954 32.0538 0.638899 38.0808 0.625 43.9795C4.55235 45.4065 9.34532 44.6351 12.3159 41.6351Z" fill="#F26532"/>
<path d="M146.41 59.9219C144.239 63.5296 138.19 63.7566 135.756 60.3211C134.38 63.0979 131.317 64.9496 128.218 64.8778C125.12 64.806 122.146 62.8145 120.9 59.9767C119.348 63.1497 116.093 65.4253 112.582 65.7929C109.068 66.1604 105.413 64.6091 103.238 61.8261C101.672 64.921 98.1671 66.9226 94.7054 66.6986C91.2444 66.4755 88.0259 64.0408 86.87 60.7698C81.7264 67.3272 70.5328 67.7558 64.9028 61.6107C60.4843 66.7566 51.1995 66.3705 47.2243 60.8748C43.9116 66.2662 35.2044 67.1357 30.8917 62.5064C29.1489 65.8577 25.4223 68.0754 21.6463 68.0098C17.8696 67.9434 14.2225 65.5967 12.5986 62.1867C9.79171 65.0215 5.35626 65.8709 1.5625 64.7512C1.6737 68.0013 1.78412 71.2507 1.89763 74.5001C2.02581 78.2066 2.14396 82.1942 3.01344 85.92C6.44195 86.4668 10.1431 85.5123 12.5986 83.0328C14.2225 86.4428 17.8696 88.7895 21.6463 88.8551C25.4223 88.9215 29.1489 86.703 30.8917 83.3525C35.2044 87.9818 43.9116 87.1123 47.2243 81.7216C51.1995 87.2165 60.4843 87.6027 64.9028 82.4568C70.5328 88.6019 81.7264 88.1733 86.87 81.6158C88.0259 84.8868 91.2444 87.3216 94.7054 87.5447C98.1671 87.7687 101.672 85.7672 103.238 82.6722C105.413 85.4552 109.068 87.0073 112.582 86.6389C116.093 86.2714 119.348 83.9957 120.9 80.8228C122.146 83.6606 125.12 85.6521 128.218 85.7239C131.317 85.7957 134.38 83.9448 135.756 81.1672C138.19 84.6019 144.239 84.3764 146.41 80.768C147.949 83.2282 150.839 84.7803 153.739 84.7046C154.536 84.6837 155.321 84.5309 156.077 84.2807C156.826 80.9116 156.955 77.3148 156.841 73.8198C156.734 70.5712 156.609 66.9951 156.463 63.2902C155.592 63.6253 154.673 63.8338 153.739 63.8585C150.839 63.9342 147.949 62.3821 146.41 59.9219Z" fill="#F26532"/>
<path d="M154.808 89.9093C154.606 89.0429 154.38 84.6793 155.547 84.294C154.792 84.5441 154.007 84.697 153.21 84.7178C150.309 84.7935 147.419 83.2414 145.881 80.7812C143.71 84.3897 137.661 84.6151 135.227 81.1804C133.85 83.958 130.788 85.809 127.689 85.7371C124.59 85.6653 121.616 83.6739 120.37 80.8361C118.819 84.009 115.564 86.2846 112.052 86.6522C108.539 87.0205 104.884 85.4684 102.709 82.6855C101.143 85.7804 97.6377 87.7819 94.176 87.558C90.715 87.3348 87.4965 84.9001 86.3406 81.6291C81.197 88.1865 70.0034 88.6151 64.3734 82.47C59.9549 87.6159 50.6701 87.2298 46.6949 81.7349C43.3822 87.1256 34.675 87.995 30.3623 83.3658C28.6195 86.7163 24.8929 88.9348 21.1169 88.8684C17.3401 88.8027 13.6931 86.4561 12.0692 83.0461C9.48312 85.6584 6.04842 86.168 2.5589 86.0059C2.70871 90.1 2.13806 94.1401 2.93805 98.2428C3.28785 100.038 3.87317 101.815 4.71022 103.443C7.44068 103.364 10.1402 102.362 12.0692 100.414C13.6931 103.823 17.3401 106.172 21.1169 106.236C24.8929 106.303 28.6195 104.084 30.3623 100.735C34.675 105.364 43.3822 104.494 46.6949 99.1022C50.6701 104.598 59.9549 104.984 64.3734 99.8381C70.0034 105.982 81.197 105.555 86.3406 98.9972C87.4965 102.268 90.715 104.703 94.176 104.926C97.6377 105.15 101.143 103.148 102.709 100.054C104.884 102.837 108.539 104.388 112.052 104.02C115.564 103.653 118.819 101.378 120.37 98.2042C121.616 101.042 124.59 103.033 127.689 103.105C130.788 103.178 133.85 101.325 135.227 98.5485C137.661 101.984 143.71 101.758 145.881 98.1501C147.419 100.61 150.309 102.162 153.21 102.086C153.507 102.078 153.801 102.043 154.094 102.002C155.103 100.496 155.668 98.6397 155.773 96.8142C155.91 94.4343 155.343 92.2019 154.808 89.9093Z" fill="#F47E57"/>
<path d="M153.457 43.3507C150.557 43.4264 147.666 41.8743 146.128 39.4141C143.957 43.0225 137.908 43.2488 135.474 39.8141C134.097 42.5909 131.035 44.4418 127.936 44.37C124.837 44.2982 121.864 42.3067 120.617 39.4689C119.066 42.6419 115.811 44.9167 112.299 45.285C108.786 45.6534 105.131 44.1013 102.956 41.3183C101.39 44.4132 97.8847 46.4147 94.423 46.1908C90.9621 45.9676 87.7436 43.5322 86.5876 40.2619C81.4441 46.8194 70.2504 47.2479 64.6204 41.1029C60.2019 46.2495 50.9171 45.8627 46.9419 40.3678C43.6292 45.7584 34.922 46.6279 30.6093 41.9986C28.8665 45.3499 25.1399 47.5676 21.3639 47.502C17.5871 47.4356 13.9401 45.0889 12.3161 41.6789C9.34554 44.6789 4.55256 45.4503 0.625208 44.0233C0.622119 45.3082 0.653781 46.5877 0.697023 47.8387C0.890843 53.4927 1.08543 59.1474 1.28002 64.8006C5.07379 65.9203 9.50924 65.0709 12.3161 62.2362C13.9401 65.6462 17.5871 67.9928 21.3639 68.0592C25.1399 68.1249 28.8665 65.9072 30.6093 62.5559C34.922 67.1852 43.6292 66.3156 46.9419 60.9242C50.9171 66.4199 60.2019 66.806 64.6204 61.6601C70.2504 67.8052 81.4441 67.3766 86.5876 60.8192C87.7436 64.0902 90.9621 66.5249 94.423 66.7481C97.8847 66.972 101.39 64.9705 102.956 61.8755C105.131 64.6585 108.786 66.2099 112.299 65.8423C115.811 65.4747 119.066 63.1991 120.617 60.0262C121.864 62.864 124.837 64.8555 127.936 64.9273C131.035 64.9991 134.097 63.1474 135.474 60.3706C137.908 63.806 143.957 63.579 146.128 59.9713C147.666 62.4315 150.557 63.9836 153.457 63.908C154.391 63.8833 155.31 63.6748 156.181 63.3396C155.919 56.6393 155.594 49.5166 155.207 43.092C154.634 43.2364 154.049 43.3353 153.457 43.3507Z" fill="#F47E57"/>
<path d="M18.4235 39.3985C15.046 44.4069 12.7472 50.6076 14.1873 56.4739C15.6537 62.4453 21.137 67.1386 27.2373 67.9131C33.3376 68.6876 39.6996 65.639 43.132 60.5372C46.5644 55.4353 47.0316 48.5451 44.5583 42.9159C42.2239 37.6024 37.5267 33.7052 32.0882 31.8612C26.4535 29.9508 21.3926 34.9955 18.4235 39.3985Z" fill="#FDFCFD"/>
<path d="M22.6014 42.4963C21.2378 44.1318 20.6277 46.2785 20.4061 48.3958C20.1706 50.6337 20.3459 52.968 21.3196 54.9958C23.291 59.0984 28.6507 61.1385 32.8993 59.5054C37.1478 57.8722 39.7563 52.89 38.8088 48.4383C37.4729 42.1619 27.504 36.6153 22.6014 42.4963Z" fill="black"/>
<path d="M32.1519 43.484C31.8037 44.3527 31.5535 45.2755 31.5627 46.2114C31.5728 47.148 31.8608 48.1024 32.484 48.802C33.5851 50.0375 35.6005 50.2105 37.0353 49.3858C38.47 48.5603 39.3148 46.9117 39.426 45.26C39.4947 44.206 39.2816 43.1056 38.6669 42.2462C36.8113 39.6524 33.1797 40.9173 32.1519 43.484Z" fill="#FDFCFD"/>
<path d="M113.11 37.8748C109.733 42.8825 107.435 49.0847 108.875 54.9503C110.341 60.9224 115.824 65.615 121.925 66.3895C128.024 67.1648 134.386 64.1154 137.819 59.0135C141.251 53.9117 141.719 47.0222 139.244 41.3921C136.911 36.0787 132.214 32.1815 126.776 30.3375C121.141 28.4278 116.079 33.4718 113.11 37.8748Z" fill="#FDFCFD"/>
<path d="M117.288 40.9732C115.925 42.6087 115.316 44.7547 115.093 46.8728C114.858 49.1098 115.034 51.4442 116.007 53.4719C117.979 57.5746 123.338 59.6147 127.586 57.9816C131.835 56.3484 134.444 51.3669 133.497 46.9145C132.161 40.6389 122.192 35.0914 117.288 40.9732Z" fill="black"/>
<path d="M126.839 42.0768C126.491 42.9463 126.24 43.8691 126.25 44.8058C126.26 45.7417 126.548 46.6961 127.171 47.3957C128.273 48.632 130.288 48.8049 131.722 47.9795C133.158 47.154 134.003 45.5054 134.113 43.8537C134.183 42.7989 133.968 41.6992 133.354 40.8398C131.498 38.246 127.867 39.5116 126.839 42.0768Z" fill="#FDFCFD"/>
<path d="M107.35 86.0609C106.553 81.1683 106.196 74.929 103.434 70.675C102.702 69.5468 101.577 68.6009 100.247 68.4017C99.1389 68.2349 98.0277 68.5932 96.9574 68.9244C84.9669 72.6456 72.14 73.6433 59.7186 71.8225C57.3827 71.4796 54.6384 71.1669 52.9998 72.8665C51.5218 74.4008 51.7728 76.7761 51.5743 78.7119C51.2986 81.3969 51.3535 84.1544 51.2569 86.8524C51.233 87.525 51.2446 88.2902 51.7403 88.7451C53.4955 90.362 55.9627 86.4393 56.775 85.3466C57.5356 84.3227 58.2337 83.2517 58.8615 82.1413C59.1186 81.6865 60.5649 79.5614 60.368 79.0934C61.5348 81.871 65.0004 85.0277 68.1941 84.8949C70.4451 84.8007 72.4875 82.9173 72.764 80.6811C72.6759 82.7212 73.818 84.7667 75.6018 85.7605C77.3855 86.7544 79.726 86.6508 81.4148 85.5026C83.1036 84.3551 84.0611 82.2169 83.7931 80.193C83.2835 82.2679 84.6302 84.5273 86.583 85.396C88.5344 86.2648 90.8903 85.8895 92.7135 84.7744C94.7428 83.5327 96.4331 81.088 96.1675 78.6309C97.8091 82.2131 100.233 85.4347 103.221 88.0037C103.746 88.4547 104.305 88.8956 104.965 89.1026C105.626 89.3095 106.414 89.2385 106.914 88.759C107.599 88.1003 107.503 86.9984 107.35 86.0609Z" fill="#FDFCFD"/>
<path d="M51.7317 67.4921C50.1271 71.1948 52.751 75.631 56.3525 77.4503C59.9548 79.2704 64.1871 79.1646 68.2195 79.0186C75.5762 78.7515 82.932 78.4843 90.2879 78.2171C94.1496 78.0766 98.4044 77.7739 101.139 75.0449C104.251 71.9407 104.177 71.3268 103.75 66.9531" fill="#F26532"/>
<path d="M65.2985 39.3985C61.921 44.4069 59.6222 50.6076 61.0623 56.4739C62.5295 62.4453 68.012 67.1386 74.1123 67.9131C80.2126 68.6876 86.5746 65.639 90.007 60.5372C93.4394 55.4353 93.9066 48.5451 91.4333 42.9159C89.0989 37.6024 84.4017 33.7052 78.9632 31.8612C73.3285 29.9508 68.2676 34.9955 65.2985 39.3985Z" fill="#FDFCFD"/>
<path d="M70.4143 42.4963C69.0506 44.1318 68.4405 46.2785 68.2182 48.3958C67.9834 50.6337 68.1587 52.968 69.1324 54.9958C71.1038 59.0984 76.4636 61.1385 80.7113 59.5054C84.9607 57.8722 87.5691 52.89 86.6217 48.4383C85.2858 42.1619 75.3176 36.6153 70.4143 42.4963Z" fill="black"/>
<path d="M79.0269 43.484C78.6787 44.3527 78.4285 45.2755 78.4377 46.2114C78.4478 47.148 78.7358 48.1024 79.359 48.802C80.4601 50.0375 82.4755 50.2105 83.9102 49.3858C85.345 48.5603 86.1905 46.9117 86.3002 45.26C86.3704 44.206 86.1565 43.1056 85.5411 42.2462C83.6863 39.6524 80.0547 40.9173 79.0269 43.484Z" fill="#FDFCFD"/>
<path d="M30.6681 83.0112C30.384 85.1972 31.5214 87.6134 33.5723 88.4211C35.5437 89.1964 37.7962 88.3988 39.5653 87.2358C42.7838 85.1223 44.9652 81.1865 42.4093 77.6498C40.339 74.7865 36.5128 76.1147 34.1051 77.8073C32.37 79.0266 30.9469 80.8621 30.6681 83.0112Z" fill="#EE3536"/>
<path d="M109.388 79.72C109.273 81.6389 109.909 83.6875 111.411 84.8867C112.703 85.9176 114.481 86.1979 116.111 85.9269C118.357 85.5539 120.43 84.1493 121.525 82.1532C122.621 80.1578 122.681 77.605 121.596 75.6042C120.254 73.1286 116.848 71.3664 114.197 72.666C111.532 73.9718 109.567 76.7347 109.388 79.72Z" fill="#EE3536"/>
<path fill-rule="evenodd" clip-rule="evenodd" d="M89.0636 117.255C87.7416 117.682 86.6095 118.663 85.998 119.911C85.8543 120.203 85.9756 120.556 86.2667 120.699C86.5586 120.842 86.9115 120.721 87.0543 120.43C87.5284 119.465 88.4033 118.706 89.4265 118.375C89.7354 118.276 89.9053 117.943 89.8049 117.634C89.7053 117.325 89.3732 117.155 89.0636 117.255Z" fill="black"/>
<path fill-rule="evenodd" clip-rule="evenodd" d="M90.8792 119.12C93.0699 120.635 94.2305 123.506 93.7062 126.117C93.6421 126.435 93.8483 126.746 94.1672 126.81C94.4854 126.874 94.7958 126.668 94.8599 126.349C95.4753 123.29 94.1155 119.926 91.5479 118.151C91.2807 117.967 90.9139 118.033 90.7294 118.301C90.5448 118.568 90.6112 118.935 90.8792 119.12Z" fill="black"/>
<path fill-rule="evenodd" clip-rule="evenodd" d="M96.4701 119.328C97.4662 120.129 98.2052 121.246 98.5519 122.477C98.8994 123.708 98.8515 125.047 98.4199 126.251C98.3102 126.557 98.4701 126.894 98.7759 127.004C99.0816 127.114 99.4191 126.954 99.5287 126.648C100.042 125.215 100.098 123.623 99.6855 122.158C99.2724 120.694 98.3929 119.363 97.2068 118.411C96.9535 118.207 96.5829 118.248 96.3798 118.501C96.1759 118.755 96.2168 119.125 96.4701 119.328Z" fill="black"/>
<path fill-rule="evenodd" clip-rule="evenodd" d="M64.7946 117.559C66.42 118.047 67.8694 119.103 68.8307 120.501C69.0145 120.769 69.3813 120.837 69.6493 120.653C69.9164 120.469 69.9852 120.102 69.8006 119.834C68.6894 118.217 67.013 116.995 65.1328 116.431C64.8216 116.338 64.4934 116.515 64.4 116.826C64.3065 117.137 64.4834 117.465 64.7946 117.559Z" fill="black"/>
<path fill-rule="evenodd" clip-rule="evenodd" d="M66.3791 118.942C63.908 120.317 62.342 123.175 62.5127 125.999C62.532 126.323 62.8115 126.57 63.1358 126.551C63.4602 126.531 63.7073 126.252 63.688 125.928C63.5436 123.544 64.8656 121.131 66.9521 119.97C67.2355 119.813 67.3382 119.454 67.1799 119.169C67.0223 118.886 66.6632 118.783 66.3791 118.942Z" fill="black"/>
<path fill-rule="evenodd" clip-rule="evenodd" d="M61.3994 118.427C60.3824 118.755 59.5778 119.569 59.0651 120.506V120.507C58.601 121.356 58.3539 122.304 58.1168 123.243C57.8883 124.148 57.6829 125.102 57.9137 126.006C57.9948 126.321 58.3153 126.511 58.6303 126.431C58.9446 126.35 59.1354 126.029 59.055 125.714C58.872 124.999 59.0774 124.248 59.2581 123.532V123.531C59.4705 122.689 59.6821 121.833 60.0983 121.071C60.4682 120.395 61.028 119.784 61.7608 119.547C62.0705 119.447 62.2403 119.115 62.14 118.806C62.0403 118.497 61.7083 118.327 61.3994 118.427Z" fill="black"/>
<path fill-rule="evenodd" clip-rule="evenodd" d="M47.7939 120.434C48.7267 120.974 49.5429 121.714 50.1722 122.589C50.3621 122.853 50.7305 122.912 50.9938 122.723C51.2579 122.533 51.3173 122.165 51.1281 121.902C50.4015 120.892 49.4602 120.038 48.3838 119.415C48.1028 119.252 47.7422 119.349 47.5792 119.63C47.4163 119.911 47.5128 120.272 47.7939 120.434Z" fill="black"/>
<path fill-rule="evenodd" clip-rule="evenodd" d="M41.4757 117.935C39.3282 118.217 37.2935 119.281 35.8379 120.884C34.3815 122.486 33.5159 124.613 33.4379 126.777C33.4263 127.101 33.6804 127.375 34.0054 127.386C34.3298 127.398 34.6031 127.144 34.6147 126.819C34.6819 124.931 35.4379 123.074 36.7089 121.676C37.9792 120.278 39.7544 119.349 41.6286 119.102C41.9506 119.06 42.1784 118.764 42.1359 118.442C42.0934 118.12 41.7977 117.892 41.4757 117.935Z" fill="black"/>
<path fill-rule="evenodd" clip-rule="evenodd" d="M32.8212 117.737C31.1703 118.392 29.7525 119.619 28.8676 121.159C27.9819 122.699 27.6352 124.539 27.8985 126.297C27.9471 126.618 28.2467 126.84 28.568 126.792C28.8892 126.743 29.1108 126.444 29.0629 126.122C28.8382 124.626 29.134 123.057 29.8884 121.746C30.6421 120.434 31.8498 119.39 33.2552 118.831C33.5571 118.711 33.7054 118.369 33.5849 118.067C33.4652 117.765 33.1232 117.617 32.8212 117.737Z" fill="black"/>
<path fill-rule="evenodd" clip-rule="evenodd" d="M110.515 118.936C109.571 119.434 108.826 120.298 108.471 121.304C108.363 121.61 108.524 121.947 108.83 122.055C109.137 122.163 109.473 122.002 109.582 121.696C109.839 120.965 110.38 120.339 111.065 119.976C111.352 119.825 111.463 119.468 111.311 119.181C111.159 118.894 110.802 118.783 110.515 118.936Z" fill="black"/>
<path fill-rule="evenodd" clip-rule="evenodd" d="M117.389 120.274C118.856 120.462 120.24 121.228 121.179 122.37C122.118 123.513 122.602 125.02 122.501 126.496C122.48 126.819 122.725 127.1 123.05 127.123C123.373 127.144 123.654 126.899 123.677 126.574C123.796 124.804 123.216 122.994 122.089 121.622C120.962 120.252 119.299 119.332 117.539 119.106C117.217 119.065 116.921 119.293 116.88 119.615C116.838 119.937 117.067 120.233 117.389 120.274Z" fill="black"/>
<path fill-rule="evenodd" clip-rule="evenodd" d="M123.913 119.448C125.279 119.716 126.527 120.547 127.303 121.704C128.08 122.861 128.377 124.329 128.109 125.697C128.046 126.015 128.255 126.325 128.574 126.387C128.892 126.45 129.201 126.241 129.264 125.922C129.591 124.254 129.229 122.461 128.281 121.048C127.334 119.636 125.809 118.621 124.14 118.292C123.821 118.23 123.511 118.438 123.449 118.756C123.386 119.075 123.594 119.385 123.913 119.448Z" fill="black"/>
<path fill-rule="evenodd" clip-rule="evenodd" d="M50.8612 67.1143C49.0712 71.2448 51.8974 76.2408 55.9159 78.2709C59.6564 80.1613 64.047 80.0894 68.2354 79.9381C75.592 79.6709 82.9479 79.4037 90.3037 79.1365C94.3956 78.9875 98.8797 78.5852 101.778 75.6941C103.494 73.9806 104.295 72.9273 104.646 71.7266C104.987 70.5536 104.887 69.21 104.656 66.8541C104.607 66.3437 104.152 65.97 103.642 66.0201C103.131 66.0696 102.758 66.5244 102.808 67.0348C103.005 69.0525 103.154 70.2023 102.862 71.2062C102.578 72.1822 101.86 72.9876 100.465 74.3783C97.8928 76.9451 93.8682 77.1482 90.2358 77.2802C82.8799 77.5474 75.5241 77.8146 68.1674 78.0817C64.291 78.2223 60.217 78.3628 56.7529 76.6123C53.5677 75.0038 51.1469 71.1274 52.5661 67.8525C52.77 67.3823 52.553 66.8348 52.0828 66.6309C51.6125 66.4271 51.065 66.6441 50.8612 67.1143Z" fill="black"/>
</svg>
