<svg width="56" height="24" viewBox="0 0 56 24" fill="none" xmlns="http://www.w3.org/2000/svg">
<path d="M18.3195 4.45339C17.5422 4.45339 16.9118 5.08348 16.9118 5.86109C16.9118 6.63843 17.5422 7.26879 18.3195 7.26879C19.0971 7.26879 19.7275 6.63843 19.7275 5.86109C19.7275 5.08348 19.0971 4.45339 18.3195 4.45339ZM12.0513 16.0408C9.8916 16.0408 8.13992 14.2891 8.13992 12.1293C8.13992 9.96948 9.8916 8.21793 12.0513 8.21793C14.2111 8.21793 15.9627 9.96948 15.9627 12.1293C15.9627 14.2891 14.2111 16.0408 12.0513 16.0408ZM12.0513 6.09944C8.72239 6.09944 6.02144 8.80027 6.02144 12.1293C6.02144 15.4585 8.72239 18.1592 12.0513 18.1592C15.3803 18.1592 18.0811 15.4585 18.0811 12.1293C18.0811 8.80027 15.3803 6.09944 12.0513 6.09944ZM21.6075 16.8753C21.5569 18.0217 21.3644 18.6407 21.2038 19.0534C20.8094 20.076 19.9978 20.8876 18.9753 21.282C18.5626 21.4425 17.9391 21.6351 16.7972 21.6854C15.5592 21.7406 15.1879 21.7542 12.056 21.7542C8.92406 21.7542 8.54806 21.7406 7.31443 21.6854C6.16803 21.6351 5.54901 21.4425 5.13646 21.282C4.62748 21.0939 4.16439 20.7958 3.78839 20.4061C3.39852 20.0254 3.10055 19.567 2.91248 19.058C2.75202 18.6453 2.55942 18.0217 2.50901 16.8799C2.45392 15.6419 2.44032 15.2704 2.44032 12.1385C2.44032 9.00661 2.45392 8.63061 2.50901 7.39724C2.55942 6.25083 2.75202 5.63181 2.91248 5.21913C3.10055 4.71002 3.39852 4.24706 3.79292 3.87092C4.17346 3.48105 4.63202 3.18308 5.141 2.99515C5.55381 2.83469 6.17736 2.64209 7.3191 2.59167C8.55727 2.53658 8.92873 2.52285 12.0604 2.52285C15.1969 2.52285 15.5683 2.53658 16.8019 2.59167C17.9482 2.64209 18.5672 2.83469 18.98 2.99515C19.4888 3.18308 19.9521 3.48105 20.3281 3.87092C20.7177 4.25146 21.0158 4.71002 21.2038 5.21913C21.3644 5.63181 21.5569 6.25537 21.6075 7.39724C21.6624 8.63527 21.6763 9.00661 21.6763 12.1385C21.6763 15.2704 21.6624 15.6372 21.6075 16.8753ZM23.7213 7.29173C23.6662 6.04449 23.4645 5.18699 23.1756 4.44406C22.8775 3.65538 22.4191 2.9494 21.8182 2.36239C21.2313 1.76631 20.5205 1.30308 19.7411 1.00964C18.9937 0.720743 18.1408 0.519071 16.8935 0.463985C15.6371 0.404364 15.2381 0.390625 12.0513 0.390625C8.86444 0.390625 8.4655 0.404364 7.21359 0.45945C5.96649 0.514403 5.10899 0.716207 4.36619 1.00498C3.57738 1.30308 2.87127 1.76151 2.28426 2.36239C1.68818 2.9494 1.22509 3.66005 0.931518 4.43952C0.642617 5.18699 0.440947 6.03982 0.385994 7.28706C0.326373 8.54364 0.3125 8.94245 0.3125 12.1293C0.3125 15.3162 0.326372 15.7151 0.381325 16.967C0.436278 18.2141 0.638215 19.0716 0.927116 19.8146C1.22509 20.6034 1.68818 21.3094 2.28426 21.8964C2.87127 22.4924 3.58205 22.9557 4.36152 23.2491C5.10899 23.538 5.96182 23.7397 7.20919 23.7946C8.46083 23.8499 8.85991 23.8635 12.0468 23.8635C15.2336 23.8635 15.6326 23.8499 16.8845 23.7946C18.1316 23.7397 18.9891 23.538 19.7319 23.2491C21.3093 22.6392 22.5566 21.3919 23.1664 19.8146C23.4552 19.0671 23.6571 18.2141 23.7121 16.967C23.767 15.7151 23.7809 15.3162 23.7809 12.1293C23.7809 8.94245 23.7762 8.54364 23.7213 7.29173Z" fill="white"/>
<path d="M52.222 0.390625H35.626C33.7302 0.390625 32.1875 1.93333 32.1875 3.82901V20.4251C32.1875 22.3208 33.7302 23.8635 35.626 23.8635H42.5486V15.5655H39.7978V11.4394H42.5486V8.64283C42.5486 6.36764 44.3994 4.51673 46.6747 4.51673H50.8467V8.64283H46.6747V11.4394H50.8467L50.159 15.5655H46.6747V23.8635H52.222C54.1178 23.8635 55.6604 22.3208 55.6604 20.4251V3.82901C55.6604 1.93333 54.1178 0.390625 52.222 0.390625Z" fill="white"/>
</svg>
