<svg width="74" height="74" viewBox="0 0 74 74" fill="none" xmlns="http://www.w3.org/2000/svg">
<path d="M36.6019 73.2041C56.7821 73.2041 73.1414 56.8448 73.1414 36.6646C73.1414 16.4843 56.7821 0.125 36.6019 0.125C16.4218 0.125 0.0625 16.4843 0.0625 36.6646C0.0625 56.8448 16.4218 73.2041 36.6019 73.2041Z" fill="#7E5DA7" stroke="white" stroke-width="0.00789027" stroke-miterlimit="1.5" stroke-linecap="round" stroke-linejoin="round"/>
<path d="M48.8904 42.386C48.736 42.1268 48.3221 41.9724 47.6992 41.661C47.079 41.3496 44.0258 39.8473 43.4555 39.6403C42.8872 39.4337 42.4735 39.3289 42.0577 39.9517C41.6441 40.5723 40.4529 41.9724 40.0915 42.386C39.7298 42.7999 39.3662 42.8521 38.7459 42.5407C38.125 42.2293 36.1233 41.5754 33.7519 39.4587C31.9068 37.8119 30.6596 35.7788 30.2979 35.1563C29.9365 34.5357 30.2604 34.1993 30.5692 33.8898C30.8492 33.6121 31.1901 33.1648 31.5015 32.8012C31.8168 32.442 31.9193 32.1829 32.1285 31.767C32.3351 31.3534 32.2329 30.9898 32.0763 30.6784C31.9193 30.3692 30.6781 27.3121 30.162 26.0691C29.6565 24.859 29.1445 25.0221 28.7642 25.0032L27.573 24.9823C27.1594 24.9823 26.4863 25.1371 25.9183 25.7596C25.3496 26.3824 23.7451 27.8824 23.7451 30.9395C23.7451 33.9965 25.9705 36.9491 26.2797 37.3628C26.5907 37.7764 30.6573 44.0491 36.8861 46.7383C38.3676 47.3778 39.5254 47.7604 40.4257 48.0465C41.9135 48.5187 43.2674 48.4521 44.3372 48.2931C45.5306 48.1153 48.0107 46.7909 48.529 45.3405C49.0471 43.8882 49.0471 42.6452 48.8904 42.386ZM25.0968 53.8033C28.5992 55.8823 31.9424 57.1276 36.3636 57.1298C47.7476 57.1298 57.0207 47.8648 57.0268 36.4747C57.0313 25.0618 47.8018 15.8092 36.3803 15.8051C24.9885 15.8051 15.7212 25.0701 15.7171 36.458C15.7152 41.1074 17.0774 44.5886 19.3656 48.2304L17.278 55.8531C17.278 55.8531 25.0968 53.803 25.0968 53.8033ZM11.3125 61.7581L14.8373 48.8804C12.6623 45.1108 11.5195 40.8376 11.5214 36.4561C11.5275 22.757 22.6754 11.6094 36.3722 11.6094C43.0188 11.6116 49.2579 14.2003 53.9511 18.8977C58.6421 23.5951 61.225 29.8383 61.2228 36.4792C61.2167 50.1799 50.0691 61.3275 36.3722 61.3275C32.2137 61.3255 28.1164 60.2827 24.4868 58.3018L11.3125 61.7581Z" fill="white"/>
</svg>
